<?xml version="1.0" encoding="utf-8" standalone="no"?>
<!DOCTYPE svg PUBLIC "-//W3C//DTD SVG 1.1//EN"
  "http://www.w3.org/Graphics/SVG/1.1/DTD/svg11.dtd">
<svg xmlns:xlink="http://www.w3.org/1999/xlink" width="368.399515pt" height="260.39952pt" viewBox="0 0 368.399515 260.39952" xmlns="http://www.w3.org/2000/svg" version="1.1">
 <metadata>
  <rdf:RDF xmlns:dc="http://purl.org/dc/elements/1.1/" xmlns:cc="http://creativecommons.org/ns#" xmlns:rdf="http://www.w3.org/1999/02/22-rdf-syntax-ns#">
   <cc:Work>
    <dc:type rdf:resource="http://purl.org/dc/dcmitype/StillImage"/>
    <dc:date>2026-06-29T13:00:04.590904</dc:date>
    <dc:format>image/svg+xml</dc:format>
    <dc:creator>
     <cc:Agent>
      <dc:title>Matplotlib v3.10.0, https://matplotlib.org/</dc:title>
     </cc:Agent>
    </dc:creator>
   </cc:Work>
  </rdf:RDF>
 </metadata>
 <defs>
  <style type="text/css">*{stroke-linejoin: round; stroke-linecap: butt}</style>
 </defs>
 <g id="figure_1">
  <g id="patch_1">
   <path d="M 0 260.39952 
L 368.399515 260.39952 
L 368.399515 -0 
L 0 -0 
z
" style="fill: #ffffff"/>
  </g>
  <g id="axes_1">
   <g id="patch_2">
    <path d="M 45.886961 217.210587 
L 359.954087 217.210587 
L 359.954087 7.2 
L 45.886961 7.2 
z
" style="fill: #ffffff"/>
   </g>
   <g id="patch_3">
    <path d="M 45.886961 217.210587 
L 45.886961 7.2 
" style="fill: none; stroke: #000000; stroke-linejoin: miter; stroke-linecap: square"/>
   </g>
   <g id="patch_4">
    <path d="M 359.954087 217.210587 
L 359.954087 7.2 
" style="fill: none; stroke: #000000; stroke-linejoin: miter; stroke-linecap: square"/>
   </g>
   <g id="patch_5">
    <path d="M 45.886961 217.210587 
L 359.954087 217.210587 
" style="fill: none; stroke: #000000; stroke-linejoin: miter; stroke-linecap: square"/>
   </g>
   <g id="patch_6">
    <path d="M 45.886961 7.2 
L 359.954087 7.2 
" style="fill: none; stroke: #000000; stroke-linejoin: miter; stroke-linecap: square"/>
   </g>
   <g id="matplotlib.axis_1">
    <g id="xtick_1">
     <g id="line2d_1">
      <path d="M 51.926713 217.210587 
L 51.926713 7.2 
" clip-path="url(#pf558c10729)" style="fill: none; stroke-dasharray: 2.96,1.28; stroke-dashoffset: 0; stroke: #b0b0b0; stroke-opacity: 0.35; stroke-width: 0.8"/>
     </g>
     <g id="line2d_2">
      <defs>
       <path id="ma019cba122" d="M 0 0 
L 0 3.5 
" style="stroke: #000000; stroke-width: 0.8"/>
      </defs>
      <g>
       <use xlink:href="#ma019cba122" x="51.926713" y="217.210587" style="stroke: #000000; stroke-width: 0.8"/>
      </g>
     </g>
     <g id="text_1">
      <!-- $\mathdefault{0}$ -->
      <g transform="translate(48.284123 233.259296) scale(0.13 -0.13)">
       <defs>
        <path id="LMRoman12-Bold-30" d="M 3309 2060 
C 3309 2677 3309 4224 1798 4224 
C 282 4224 282 2683 282 2060 
C 282 1444 282 -64 1792 -64 
C 3302 -64 3309 1424 3309 2060 
z
M 2541 2137 
C 2541 622 2445 532 2253 339 
C 2125 211 1952 147 1798 147 
C 1594 147 1440 230 1312 365 
C 1152 526 1050 628 1050 2137 
C 1050 2587 1050 2998 1101 3331 
C 1190 3967 1651 4012 1792 4012 
C 1997 4012 2394 3916 2483 3376 
C 2541 3049 2541 2529 2541 2137 
z
" transform="scale(0.015625)"/>
       </defs>
       <use xlink:href="#LMRoman12-Bold-30" transform="scale(0.996264)"/>
      </g>
     </g>
    </g>
    <g id="xtick_2">
     <g id="line2d_3">
      <path d="M 112.324237 217.210587 
L 112.324237 7.2 
" clip-path="url(#pf558c10729)" style="fill: none; stroke-dasharray: 2.96,1.28; stroke-dashoffset: 0; stroke: #b0b0b0; stroke-opacity: 0.35; stroke-width: 0.8"/>
     </g>
     <g id="line2d_4">
      <g>
       <use xlink:href="#ma019cba122" x="112.324237" y="217.210587" style="stroke: #000000; stroke-width: 0.8"/>
      </g>
     </g>
     <g id="text_2">
      <!-- $\mathdefault{10}$ -->
      <g transform="translate(105.039057 233.259296) scale(0.13 -0.13)">
       <defs>
        <path id="LMRoman12-Bold-31" d="M 3091 0 
L 3091 275 
L 2214 275 
L 2214 4029 
C 2214 4224 2202 4224 1997 4224 
C 1523 3795 813 3795 672 3795 
L 550 3795 
L 550 3520 
L 672 3520 
C 896 3520 1235 3558 1491 3641 
L 1491 275 
L 602 275 
L 602 0 
L 1843 12 
L 3091 0 
z
" transform="scale(0.015625)"/>
       </defs>
       <use xlink:href="#LMRoman12-Bold-31" transform="scale(0.996264)"/>
       <use xlink:href="#LMRoman12-Bold-30" transform="translate(56.039851 0) scale(0.996264)"/>
      </g>
     </g>
    </g>
    <g id="xtick_3">
     <g id="line2d_5">
      <path d="M 172.721762 217.210587 
L 172.721762 7.2 
" clip-path="url(#pf558c10729)" style="fill: none; stroke-dasharray: 2.96,1.28; stroke-dashoffset: 0; stroke: #b0b0b0; stroke-opacity: 0.35; stroke-width: 0.8"/>
     </g>
     <g id="line2d_6">
      <g>
       <use xlink:href="#ma019cba122" x="172.721762" y="217.210587" style="stroke: #000000; stroke-width: 0.8"/>
      </g>
     </g>
     <g id="text_3">
      <!-- $\mathdefault{20}$ -->
      <g transform="translate(165.436581 233.259296) scale(0.13 -0.13)">
       <defs>
        <path id="LMRoman12-Bold-32" d="M 3232 1378 
L 2963 1378 
C 2944 1243 2899 864 2803 800 
C 2752 755 2253 755 2157 755 
L 1165 755 
L 2086 1519 
C 2797 2052 3232 2379 3232 2995 
C 3232 3759 2547 4224 1702 4224 
C 979 4224 358 3806 358 3187 
C 358 2848 634 2752 781 2752 
C 979 2752 1210 2886 1210 3180 
C 1210 3449 1011 3584 813 3610 
C 1069 3921 1408 3948 1542 3948 
C 2131 3948 2413 3449 2413 2988 
C 2413 2488 2074 2026 1811 1750 
L 422 294 
C 358 236 358 224 358 108 
L 358 0 
L 3046 0 
L 3232 1378 
z
" transform="scale(0.015625)"/>
       </defs>
       <use xlink:href="#LMRoman12-Bold-32" transform="scale(0.996264)"/>
       <use xlink:href="#LMRoman12-Bold-30" transform="translate(56.039851 0) scale(0.996264)"/>
      </g>
     </g>
    </g>
    <g id="xtick_4">
     <g id="line2d_7">
      <path d="M 233.119286 217.210587 
L 233.119286 7.2 
" clip-path="url(#pf558c10729)" style="fill: none; stroke-dasharray: 2.96,1.28; stroke-dashoffset: 0; stroke: #b0b0b0; stroke-opacity: 0.35; stroke-width: 0.8"/>
     </g>
     <g id="line2d_8">
      <g>
       <use xlink:href="#ma019cba122" x="233.119286" y="217.210587" style="stroke: #000000; stroke-width: 0.8"/>
      </g>
     </g>
     <g id="text_4">
      <!-- $\mathdefault{30}$ -->
      <g transform="translate(225.834105 233.259296) scale(0.13 -0.13)">
       <defs>
        <path id="LMRoman12-Bold-33" d="M 3290 1164 
C 3290 1479 3130 2092 2138 2265 
C 2701 2436 3091 2824 3091 3327 
C 3091 3812 2630 4224 1741 4224 
C 1024 4224 499 3839 499 3315 
C 499 2995 749 2892 915 2892 
C 1101 2892 1325 3014 1325 3308 
C 1325 3455 1261 3673 960 3718 
C 1229 3993 1664 3993 1702 3993 
C 2272 3993 2272 3539 2272 3347 
C 2272 3155 2246 2861 2042 2605 
C 1875 2392 1709 2380 1466 2368 
C 1389 2361 1261 2355 1235 2342 
C 1197 2323 1197 2278 1197 2252 
C 1197 2143 1235 2143 1363 2143 
L 1670 2143 
C 2387 2143 2387 1473 2387 1164 
C 2387 876 2387 192 1696 192 
C 1562 192 1139 211 832 434 
C 1107 492 1203 691 1203 883 
C 1203 1145 1018 1331 755 1331 
C 486 1324 301 1139 301 870 
C 301 281 941 -64 1728 -64 
C 2784 -64 3290 518 3290 1158 
L 3290 1164 
z
" transform="scale(0.015625)"/>
       </defs>
       <use xlink:href="#LMRoman12-Bold-33" transform="scale(0.996264)"/>
       <use xlink:href="#LMRoman12-Bold-30" transform="translate(56.039851 0) scale(0.996264)"/>
      </g>
     </g>
    </g>
    <g id="xtick_5">
     <g id="line2d_9">
      <path d="M 293.51681 217.210587 
L 293.51681 7.2 
" clip-path="url(#pf558c10729)" style="fill: none; stroke-dasharray: 2.96,1.28; stroke-dashoffset: 0; stroke: #b0b0b0; stroke-opacity: 0.35; stroke-width: 0.8"/>
     </g>
     <g id="line2d_10">
      <g>
       <use xlink:href="#ma019cba122" x="293.51681" y="217.210587" style="stroke: #000000; stroke-width: 0.8"/>
      </g>
     </g>
     <g id="text_5">
      <!-- $\mathdefault{40}$ -->
      <g transform="translate(286.23163 233.259296) scale(0.13 -0.13)">
       <defs>
        <path id="LMRoman12-Bold-34" d="M 3392 0 
L 3392 275 
L 2771 275 
L 2771 1004 
L 3392 1004 
L 3392 1280 
L 2771 1280 
L 2771 4037 
C 2771 4198 2765 4224 2605 4224 
C 2490 4224 2477 4224 2400 4127 
L 198 1280 
L 198 1004 
L 2016 1004 
L 2016 275 
L 1318 275 
L 1318 0 
C 1504 12 2138 12 2368 12 
C 2586 12 3219 12 3392 0 
z
M 2074 1280 
L 493 1280 
L 2074 3324 
L 2074 1280 
z
" transform="scale(0.015625)"/>
       </defs>
       <use xlink:href="#LMRoman12-Bold-34" transform="scale(0.996264)"/>
       <use xlink:href="#LMRoman12-Bold-30" transform="translate(56.039851 0) scale(0.996264)"/>
      </g>
     </g>
    </g>
    <g id="xtick_6">
     <g id="line2d_11">
      <path d="M 353.914335 217.210587 
L 353.914335 7.2 
" clip-path="url(#pf558c10729)" style="fill: none; stroke-dasharray: 2.96,1.28; stroke-dashoffset: 0; stroke: #b0b0b0; stroke-opacity: 0.35; stroke-width: 0.8"/>
     </g>
     <g id="line2d_12">
      <g>
       <use xlink:href="#ma019cba122" x="353.914335" y="217.210587" style="stroke: #000000; stroke-width: 0.8"/>
      </g>
     </g>
     <g id="text_6">
      <!-- $\mathdefault{50}$ -->
      <g transform="translate(346.629154 233.259296) scale(0.13 -0.13)">
       <defs>
        <path id="LMRoman12-Bold-35" d="M 3232 1286 
C 3232 2067 2701 2624 1824 2624 
C 1568 2624 1261 2572 986 2368 
L 986 3328 
C 1203 3308 1376 3308 1472 3308 
C 1626 3276 1990 3276 2419 3539 
C 2618 3664 2950 3960 2950 4112 
C 2950 4145 2950 4224 2874 4224 
C 2874 4224 2854 4224 2790 4191 
C 2496 4098 2182 4032 1824 4032 
C 1459 4032 1152 4098 851 4200 
C 806 4212 787 4224 768 4224 
C 691 4224 691 4164 691 4062 
L 691 2179 
C 691 2055 691 1984 819 1984 
C 883 1984 896 1991 947 2055 
C 1024 2146 1254 2432 1798 2432 
C 2387 2432 2387 1822 2387 1312 
C 2387 851 2387 192 1600 192 
C 1363 192 960 280 742 640 
C 1082 627 1165 883 1165 1024 
C 1165 1267 998 1440 762 1440 
C 570 1440 358 1324 358 1024 
C 358 469 864 -64 1626 -64 
C 2611 -84 3232 486 3232 1280 
L 3232 1286 
z
" transform="scale(0.015625)"/>
       </defs>
       <use xlink:href="#LMRoman12-Bold-35" transform="scale(0.996264)"/>
       <use xlink:href="#LMRoman12-Bold-30" transform="translate(56.039851 0) scale(0.996264)"/>
      </g>
     </g>
    </g>
    <g id="text_7">
     <!-- \textbf{Epoch} -->
     <g transform="translate(179.890644 250.292894) scale(0.15 -0.15)">
      <defs>
       <path id="LMRoman12-Bold-45" d="M 4518 1717 
L 4250 1717 
C 4115 770 3878 275 2765 275 
L 1766 275 
L 1766 2112 
L 2144 2112 
C 2758 2112 2822 1851 2822 1368 
L 3091 1368 
L 3091 3138 
L 2822 3138 
C 2822 2657 2758 2387 2144 2387 
L 1766 2387 
L 1766 4076 
L 2765 4076 
C 3744 4076 3955 3661 4051 2837 
L 4320 2837 
L 4134 4352 
L 243 4352 
L 243 4076 
L 922 4076 
L 922 275 
L 243 275 
L 243 0 
L 4243 0 
L 4518 1717 
z
" transform="scale(0.015625)"/>
       <path id="LMRoman12-Bold-70" d="M 3750 1427 
C 3750 2310 3155 2880 2291 2880 
C 1914 2880 1587 2751 1331 2547 
L 1331 2880 
L 224 2835 
L 224 2560 
C 621 2560 666 2560 666 2307 
L 666 -1005 
L 224 -1005 
L 224 -1280 
C 371 -1268 832 -1268 1011 -1268 
C 1190 -1268 1658 -1268 1805 -1280 
L 1805 -1005 
L 1363 -1005 
L 1363 238 
C 1523 96 1805 -64 2189 -64 
C 3066 -64 3750 471 3750 1418 
L 3750 1427 
z
M 2982 1418 
C 2982 478 2522 147 2112 147 
C 1837 147 1562 289 1363 594 
L 1363 2242 
C 1600 2547 1939 2649 2189 2649 
C 2605 2649 2982 2271 2982 1427 
L 2982 1418 
z
" transform="scale(0.015625)"/>
       <path id="LMRoman12-Bold-6f" d="M 3392 1379 
C 3392 2245 2803 2880 1798 2880 
C 755 2880 198 2213 198 1379 
C 198 538 787 -64 1792 -64 
C 2835 -64 3392 570 3392 1379 
z
M 2624 1443 
C 2624 910 2624 166 1798 166 
C 966 166 966 917 966 1443 
C 966 1744 966 2065 1088 2296 
C 1229 2553 1517 2668 1792 2668 
C 2157 2668 2387 2495 2496 2315 
C 2624 2084 2624 1751 2624 1443 
z
" transform="scale(0.015625)"/>
       <path id="LMRoman12-Bold-63" d="M 2995 724 
C 2995 801 2925 801 2861 801 
C 2758 801 2752 795 2720 718 
C 2675 596 2502 166 1914 166 
C 1011 166 1011 1141 1011 1430 
C 1011 1808 1018 2649 1856 2649 
C 1901 2649 2278 2636 2278 2604 
C 2278 2604 2272 2591 2259 2585 
C 2240 2566 2157 2469 2157 2309 
C 2157 2039 2374 1930 2534 1930 
C 2669 1930 2912 2014 2912 2315 
C 2912 2841 2176 2880 1830 2880 
C 691 2880 243 2136 243 1398 
C 243 525 851 -64 1792 -64 
C 2797 -64 2995 679 2995 724 
z
" transform="scale(0.015625)"/>
       <path id="LMRoman12-Bold-68" d="M 3840 0 
L 3840 275 
L 3398 275 
L 3398 1964 
C 3398 2567 3136 2880 2432 2880 
C 1786 2880 1472 2429 1382 2240 
L 1376 2240 
L 1376 4480 
L 269 4416 
L 269 4140 
C 666 4140 710 4140 710 3885 
L 710 275 
L 269 275 
L 269 0 
C 416 12 877 12 1056 12 
C 1235 12 1702 12 1850 0 
L 1850 275 
L 1408 275 
L 1408 1638 
C 1408 2329 1920 2668 2330 2668 
C 2566 2668 2701 2515 2701 2028 
L 2701 275 
L 2259 275 
L 2259 0 
C 2406 12 2867 12 3046 12 
C 3226 12 3693 12 3840 0 
z
" transform="scale(0.015625)"/>
      </defs>
      <use xlink:href="#LMRoman12-Bold-45" transform="scale(0.996264)"/>
      <use xlink:href="#LMRoman12-Bold-70" transform="translate(73.565697 0) scale(0.996264)"/>
      <use xlink:href="#LMRoman12-Bold-6f" transform="translate(138.945522 0) scale(0.996264)"/>
      <use xlink:href="#LMRoman12-Bold-63" transform="translate(198.098698 0) scale(0.996264)"/>
      <use xlink:href="#LMRoman12-Bold-68" transform="translate(244.798573 0) scale(0.996264)"/>
     </g>
    </g>
   </g>
   <g id="matplotlib.axis_2">
    <g id="ytick_1">
     <g id="line2d_13">
      <path d="M 45.886961 204.857023 
L 359.954087 204.857023 
" clip-path="url(#pf558c10729)" style="fill: none; stroke-dasharray: 2.96,1.28; stroke-dashoffset: 0; stroke: #b0b0b0; stroke-opacity: 0.35; stroke-width: 0.8"/>
     </g>
     <g id="line2d_14">
      <defs>
       <path id="m1636dfb6db" d="M 0 0 
L -3.5 0 
" style="stroke: #000000; stroke-width: 0.8"/>
      </defs>
      <g>
       <use xlink:href="#m1636dfb6db" x="45.886961" y="204.857023" style="stroke: #000000; stroke-width: 0.8"/>
      </g>
     </g>
     <g id="text_8">
      <!-- $\mathdefault{20}$ -->
      <g transform="translate(24.316599 209.381377) scale(0.13 -0.13)">
       <use xlink:href="#LMRoman12-Bold-32" transform="scale(0.996264)"/>
       <use xlink:href="#LMRoman12-Bold-30" transform="translate(56.039851 0) scale(0.996264)"/>
      </g>
     </g>
    </g>
    <g id="ytick_2">
     <g id="line2d_15">
      <path d="M 45.886961 143.089203 
L 359.954087 143.089203 
" clip-path="url(#pf558c10729)" style="fill: none; stroke-dasharray: 2.96,1.28; stroke-dashoffset: 0; stroke: #b0b0b0; stroke-opacity: 0.35; stroke-width: 0.8"/>
     </g>
     <g id="line2d_16">
      <g>
       <use xlink:href="#m1636dfb6db" x="45.886961" y="143.089203" style="stroke: #000000; stroke-width: 0.8"/>
      </g>
     </g>
     <g id="text_9">
      <!-- $\mathdefault{25}$ -->
      <g transform="translate(24.316599 147.613558) scale(0.13 -0.13)">
       <use xlink:href="#LMRoman12-Bold-32" transform="scale(0.996264)"/>
       <use xlink:href="#LMRoman12-Bold-35" transform="translate(56.039851 0) scale(0.996264)"/>
      </g>
     </g>
    </g>
    <g id="ytick_3">
     <g id="line2d_17">
      <path d="M 45.886961 81.321384 
L 359.954087 81.321384 
" clip-path="url(#pf558c10729)" style="fill: none; stroke-dasharray: 2.96,1.28; stroke-dashoffset: 0; stroke: #b0b0b0; stroke-opacity: 0.35; stroke-width: 0.8"/>
     </g>
     <g id="line2d_18">
      <g>
       <use xlink:href="#m1636dfb6db" x="45.886961" y="81.321384" style="stroke: #000000; stroke-width: 0.8"/>
      </g>
     </g>
     <g id="text_10">
      <!-- $\mathdefault{30}$ -->
      <g transform="translate(24.316599 85.845738) scale(0.13 -0.13)">
       <use xlink:href="#LMRoman12-Bold-33" transform="scale(0.996264)"/>
       <use xlink:href="#LMRoman12-Bold-30" transform="translate(56.039851 0) scale(0.996264)"/>
      </g>
     </g>
    </g>
    <g id="ytick_4">
     <g id="line2d_19">
      <path d="M 45.886961 19.553564 
L 359.954087 19.553564 
" clip-path="url(#pf558c10729)" style="fill: none; stroke-dasharray: 2.96,1.28; stroke-dashoffset: 0; stroke: #b0b0b0; stroke-opacity: 0.35; stroke-width: 0.8"/>
     </g>
     <g id="line2d_20">
      <g>
       <use xlink:href="#m1636dfb6db" x="45.886961" y="19.553564" style="stroke: #000000; stroke-width: 0.8"/>
      </g>
     </g>
     <g id="text_11">
      <!-- $\mathdefault{35}$ -->
      <g transform="translate(24.316599 24.077918) scale(0.13 -0.13)">
       <use xlink:href="#LMRoman12-Bold-33" transform="scale(0.996264)"/>
       <use xlink:href="#LMRoman12-Bold-35" transform="translate(56.039851 0) scale(0.996264)"/>
      </g>
     </g>
    </g>
    <g id="text_12">
     <!-- \textbf{BLEU} -->
     <g transform="translate(17.409973 135.209003) rotate(-90) scale(0.15 -0.15)">
      <defs>
       <path id="LMRoman12-Bold-42" d="M 4717 1184 
C 4717 1792 4186 2233 3411 2291 
C 4333 2465 4512 2997 4512 3303 
C 4512 3900 3974 4416 2950 4416 
L 250 4416 
L 250 4140 
L 928 4140 
L 928 275 
L 250 275 
L 250 0 
L 3142 0 
C 4198 0 4717 569 4717 1184 
z
M 3667 3309 
C 3667 2854 3418 2387 2669 2387 
L 1715 2387 
L 1715 4140 
L 2874 4140 
C 3533 4140 3667 3634 3667 3309 
z
M 3846 1196 
C 3846 793 3629 275 2893 275 
L 1715 275 
L 1715 2176 
L 2989 2176 
C 3738 2176 3846 1484 3846 1196 
z
" transform="scale(0.015625)"/>
       <path id="LMRoman12-Bold-4c" d="M 4019 1737 
L 3750 1737 
C 3706 1293 3603 275 2451 275 
L 1766 275 
L 1766 4140 
L 2618 4140 
L 2618 4416 
L 1395 4403 
C 1158 4403 429 4403 243 4416 
L 243 4140 
L 922 4140 
L 922 275 
L 243 275 
L 243 0 
L 3834 0 
L 4019 1737 
z
" transform="scale(0.015625)"/>
       <path id="LMRoman12-Bold-55" d="M 5286 4140 
L 5286 4416 
C 5139 4403 4640 4403 4461 4403 
C 4282 4403 3782 4403 3635 4416 
L 3635 4140 
L 3782 4140 
C 3955 4140 3968 4140 4122 4121 
C 4307 4095 4314 4089 4314 3948 
L 4314 1501 
C 4314 583 3667 211 2912 211 
C 1792 211 1766 1071 1766 1444 
L 1766 4140 
L 2445 4140 
L 2445 4416 
C 2259 4403 1574 4403 1344 4403 
C 1114 4403 429 4403 243 4416 
L 243 4140 
L 922 4140 
L 922 1488 
C 922 641 1600 -64 2886 -64 
C 4070 -64 4608 673 4608 1482 
L 4608 3948 
C 4608 4089 4614 4095 4781 4121 
C 4896 4134 5024 4140 5139 4140 
L 5286 4140 
z
" transform="scale(0.015625)"/>
      </defs>
      <use xlink:href="#LMRoman12-Bold-42" transform="scale(0.996264)"/>
      <use xlink:href="#LMRoman12-Bold-4c" transform="translate(79.676235 0) scale(0.996264)"/>
      <use xlink:href="#LMRoman12-Bold-45" transform="translate(147.015282 0) scale(0.996264)"/>
      <use xlink:href="#LMRoman12-Bold-55" transform="translate(220.580979 0) scale(0.996264)"/>
     </g>
    </g>
   </g>
   <g id="text_13">
    <!-- \textbf{EN$\rightarrow$ZH} -->
    <g transform="translate(50.300697 20.840138) scale(0.125 -0.125)">
     <defs>
      <path id="LMRoman12-Bold-4e" d="M 5382 4140 
L 5382 4416 
C 5235 4403 4736 4403 4557 4403 
C 4378 4403 3872 4403 3725 4416 
L 3725 4140 
L 3872 4140 
C 4045 4140 4058 4140 4211 4121 
C 4397 4095 4403 4089 4403 3947 
L 4403 1254 
L 1856 4339 
C 1792 4409 1786 4416 1658 4416 
L 243 4416 
L 243 4140 
L 922 4140 
L 922 468 
C 922 326 915 320 749 294 
C 634 281 506 275 390 275 
L 243 275 
L 243 0 
C 390 12 890 12 1069 12 
C 1248 12 1754 12 1901 0 
L 1901 275 
L 1754 275 
C 1581 275 1568 275 1414 294 
C 1229 320 1222 326 1222 468 
L 1222 3921 
L 4390 83 
C 4461 6 4467 0 4550 0 
C 4704 0 4704 38 4704 185 
L 4704 3947 
C 4704 4089 4710 4095 4877 4121 
C 4992 4134 5120 4140 5235 4140 
L 5382 4140 
z
" transform="scale(0.015625)"/>
      <path id="LMMathSymbols10-Bold-21" d="M 6938 1600 
C 6938 1657 6899 1702 6848 1715 
C 6106 1888 5536 2482 5382 3237 
C 5370 3289 5325 3328 5267 3328 
L 5114 3328 
C 5050 3328 4998 3276 4998 3186 
C 5114 2631 5421 2140 5856 1792 
L 602 1792 
C 474 1792 410 1696 410 1600 
C 410 1504 474 1408 602 1408 
L 5856 1408 
C 5421 1059 5114 569 4998 13 
C 4998 -77 5050 -128 5114 -128 
L 5267 -128 
C 5325 -128 5370 -90 5382 -38 
C 5536 717 6106 1311 6848 1484 
C 6899 1497 6938 1542 6938 1600 
z
" transform="scale(0.015625)"/>
      <path id="LMRoman12-Bold-5a" d="M 4032 1795 
L 3763 1795 
C 3712 1041 3590 294 2317 294 
L 1382 294 
L 3942 4121 
C 3994 4198 3994 4230 3994 4275 
C 3994 4416 3942 4416 3808 4416 
L 570 4416 
L 499 2891 
L 768 2891 
C 819 3805 1306 4140 2138 4140 
L 3008 4140 
L 448 307 
C 397 230 397 204 397 147 
C 397 0 442 0 582 0 
L 3923 0 
L 4032 1795 
z
" transform="scale(0.015625)"/>
      <path id="LMRoman12-Bold-48" d="M 5382 0 
L 5382 275 
L 4704 275 
L 4704 4140 
L 5382 4140 
L 5382 4416 
C 5197 4403 4512 4403 4282 4403 
C 4051 4403 3366 4403 3181 4416 
L 3181 4140 
L 3859 4140 
L 3859 2432 
L 1766 2432 
L 1766 4140 
L 2445 4140 
L 2445 4416 
C 2259 4403 1574 4403 1344 4403 
C 1114 4403 429 4403 243 4416 
L 243 4140 
L 922 4140 
L 922 275 
L 243 275 
L 243 0 
C 429 12 1114 12 1344 12 
C 1574 12 2259 12 2445 0 
L 2445 275 
L 1766 275 
L 1766 2156 
L 3859 2156 
L 3859 275 
L 3181 275 
L 3181 0 
C 3366 12 4051 12 4282 12 
C 4512 12 5197 12 5382 0 
z
" transform="scale(0.015625)"/>
     </defs>
     <use xlink:href="#LMRoman12-Bold-45" transform="scale(0.996264)"/>
     <use xlink:href="#LMRoman12-Bold-4e" transform="translate(73.565697 0) scale(0.996264)"/>
     <use xlink:href="#LMMathSymbols10-Bold-21" transform="translate(161.195322 0) scale(0.996264)"/>
     <use xlink:href="#LMRoman12-Bold-5a" transform="translate(275.765075 0) scale(0.996264)"/>
     <use xlink:href="#LMRoman12-Bold-48" transform="translate(344.258226 0) scale(0.996264)"/>
    </g>
   </g>
   <g id="text_14">
    <!-- \textbf{ZH$\rightarrow$EN} -->
    <g transform="translate(114.684458 20.840138) scale(0.125 -0.125)">
     <use xlink:href="#LMRoman12-Bold-5a" transform="scale(0.996264)"/>
     <use xlink:href="#LMRoman12-Bold-48" transform="translate(68.493151 0) scale(0.996264)"/>
     <use xlink:href="#LMMathSymbols10-Bold-21" transform="translate(156.122776 0) scale(0.996264)"/>
     <use xlink:href="#LMRoman12-Bold-45" transform="translate(270.692529 0) scale(0.996264)"/>
     <use xlink:href="#LMRoman12-Bold-4e" transform="translate(344.258226 0) scale(0.996264)"/>
    </g>
   </g>
   <g id="line2d_21">
    <path d="M 102.565903 261.39952 
L 106.284485 258.965633 
L 107.524012 261.39952 
M 115.222487 261.39952 
L 118.36399 251.182888 
L 124.403742 237.841039 
L 130.443495 260.324525 
L 136.483247 237.841039 
L 142.523 246.241462 
L 148.562752 229.193544 
L 154.602504 232.158399 
L 160.642257 224.128583 
L 166.682009 230.181829 
L 172.721762 234.752648 
L 178.761514 223.881511 
L 184.801267 224.993332 
L 190.841019 227.093438 
L 196.880771 223.387369 
L 202.920524 216.83998 
L 208.960276 218.445943 
L 215.000029 220.051907 
L 221.039781 212.88684 
L 227.079534 214.739874 
L 233.119286 211.033805 
L 239.159038 220.175442 
L 245.198791 207.945414 
L 251.238543 212.392697 
L 257.278296 213.875125 
L 263.318048 208.563092 
L 269.357801 214.369267 
L 275.397553 207.821878 
L 281.437306 212.145626 
L 287.477058 210.04552 
L 293.51681 209.674913 
L 299.556563 207.080664 
L 305.596315 207.2042 
L 311.636068 204.733487 
L 317.67582 205.474701 
L 323.715573 205.845308 
L 329.755325 205.845308 
L 335.795077 201.645096 
L 341.83483 207.574807 
L 347.874582 201.398025 
" clip-path="url(#pf558c10729)" style="fill: none; stroke-dasharray: 7.4,3.2; stroke-dashoffset: 0; stroke: #ef476f; stroke-opacity: 0.95; stroke-width: 2"/>
   </g>
   <g id="line2d_22">
    <path d="M 74.288668 261.39952 
L 76.085723 245.006106 
L 82.125475 216.83998 
L 88.165228 180.026359 
L 94.20498 168.537545 
L 100.244733 126.288356 
L 106.284485 121.594002 
L 112.324237 139.753741 
L 118.36399 102.198907 
L 124.403742 97.504552 
L 130.443495 87.745237 
L 136.483247 98.739909 
L 142.523 75.76228 
L 148.562752 71.314997 
L 154.602504 80.950777 
L 160.642257 72.92096 
L 166.682009 72.056211 
L 172.721762 71.067926 
L 178.761514 65.014679 
L 184.801267 76.256422 
L 190.841019 54.390614 
L 196.880771 74.156317 
L 202.920524 50.437474 
L 208.960276 61.802753 
L 215.000029 50.931616 
L 221.039781 48.955046 
L 227.079534 54.884757 
L 233.119286 45.001906 
L 239.159038 48.090297 
L 245.198791 57.231934 
L 251.238543 47.472618 
L 257.278296 38.825124 
L 263.318048 61.679217 
L 269.357801 58.837897 
L 275.397553 40.678158 
L 281.437306 53.031722 
L 287.477058 49.078582 
L 293.51681 34.377841 
L 299.556563 43.148871 
L 305.596315 45.248977 
L 317.67582 46.731405 
L 323.715573 40.801694 
L 329.755325 27.58338 
L 335.795077 35.366126 
L 341.83483 40.801694 
L 347.874582 38.578052 
" clip-path="url(#pf558c10729)" style="fill: none; stroke-dasharray: 7.4,3.2; stroke-dashoffset: 0; stroke: #06d6a0; stroke-opacity: 0.95; stroke-width: 2"/>
   </g>
   <g id="line2d_23">
    <path d="M 105.752138 261.39952 
L 106.284485 260.942203 
L 106.603893 261.39952 
M 115.011647 261.39952 
L 118.36399 251.182888 
L 124.403742 238.952859 
L 130.443495 258.595026 
L 136.483247 239.447002 
L 142.523 246.488533 
L 148.562752 228.081723 
L 154.602504 229.564151 
L 160.642257 223.387369 
L 166.682009 228.946473 
L 172.721762 231.664257 
L 178.761514 222.028477 
L 184.801267 224.005047 
L 190.841019 221.781406 
L 196.880771 221.65787 
L 202.920524 220.298978 
L 208.960276 214.245732 
L 215.000029 218.81655 
L 221.039781 212.763304 
L 227.079534 213.257446 
L 233.119286 209.18077 
L 239.159038 216.222302 
L 245.198791 206.586522 
L 251.238543 211.157341 
L 257.278296 212.269161 
L 263.318048 207.080664 
L 269.357801 212.02209 
L 275.397553 206.957129 
L 281.437306 209.304306 
L 287.477058 206.215915 
L 293.51681 208.686628 
L 299.556563 205.968844 
L 305.596315 204.486416 
L 311.636068 203.745202 
L 317.67582 202.015703 
L 323.715573 202.633381 
L 329.755325 200.656811 
L 335.795077 201.150954 
L 341.83483 202.756917 
L 347.874582 197.444885 
" clip-path="url(#pf558c10729)" style="fill: none; stroke: #e49b0f; stroke-width: 2.2; stroke-linecap: square"/>
   </g>
   <g id="line2d_24">
    <path d="M 72.535897 261.39952 
L 76.085723 234.752648 
L 82.125475 214.616338 
L 88.165228 185.585463 
L 94.20498 170.884722 
L 100.244733 121.964609 
L 106.284485 120.23511 
L 112.324237 139.136063 
L 118.36399 102.693049 
L 124.403742 95.898589 
L 130.443495 84.903917 
L 136.483247 97.751624 
L 142.523 77.121172 
L 148.562752 68.10307 
L 154.602504 77.73885 
L 160.642257 77.244708 
L 166.682009 75.391673 
L 172.721762 68.473677 
L 178.761514 64.397001 
L 184.801267 74.279852 
L 190.841019 51.549295 
L 196.880771 71.067926 
L 202.920524 53.402329 
L 208.960276 56.737791 
L 215.000029 47.71969 
L 221.039781 44.87837 
L 227.079534 49.202117 
L 233.119286 38.578052 
L 239.159038 43.643014 
L 245.198791 50.437474 
L 251.238543 43.395942 
L 257.278296 34.501376 
L 263.318048 58.590826 
L 269.357801 59.826182 
L 275.397553 36.230875 
L 281.437306 45.248977 
L 287.477058 44.384227 
L 293.51681 25.483275 
L 299.556563 45.619584 
L 305.596315 41.542908 
L 311.636068 30.918843 
L 317.67582 40.801694 
L 323.715573 29.807022 
L 329.755325 20.047706 
L 335.795077 29.189344 
L 341.83483 37.466232 
L 347.874582 32.277735 
" clip-path="url(#pf558c10729)" style="fill: none; stroke: #8338ec; stroke-width: 2.2; stroke-linecap: square"/>
   </g>
   <g id="PathCollection_1">
    <defs>
     <path id="m79610710b6" d="M 0 2.738613 
C 0.726289 2.738613 1.422928 2.450055 1.936492 1.936492 
C 2.450055 1.422928 2.738613 0.726289 2.738613 0 
C 2.738613 -0.726289 2.450055 -1.422928 1.936492 -1.936492 
C 1.422928 -2.450055 0.726289 -2.738613 0 -2.738613 
C -0.726289 -2.738613 -1.422928 -2.450055 -1.936492 -1.936492 
C -2.450055 -1.422928 -2.738613 -0.726289 -2.738613 0 
C -2.738613 0.726289 -2.450055 1.422928 -1.936492 1.936492 
C -1.422928 2.450055 -0.726289 2.738613 0 2.738613 
z
" style="stroke: #e49b0f; stroke-width: 1.6"/>
    </defs>
    <g clip-path="url(#pf558c10729)">
     <use xlink:href="#m79610710b6" x="347.874582" y="197.444885" style="fill: #ffffff; stroke: #e49b0f; stroke-width: 1.6"/>
    </g>
   </g>
   <g id="PathCollection_2">
    <defs>
     <path id="m387f4d0a2a" d="M 0 2.738613 
C 0.726289 2.738613 1.422928 2.450055 1.936492 1.936492 
C 2.450055 1.422928 2.738613 0.726289 2.738613 0 
C 2.738613 -0.726289 2.450055 -1.422928 1.936492 -1.936492 
C 1.422928 -2.450055 0.726289 -2.738613 0 -2.738613 
C -0.726289 -2.738613 -1.422928 -2.450055 -1.936492 -1.936492 
C -2.450055 -1.422928 -2.738613 -0.726289 -2.738613 0 
C -2.738613 0.726289 -2.450055 1.422928 -1.936492 1.936492 
C -1.422928 2.450055 -0.726289 2.738613 0 2.738613 
z
" style="stroke: #ef476f; stroke-width: 1.6"/>
    </defs>
    <g clip-path="url(#pf558c10729)">
     <use xlink:href="#m387f4d0a2a" x="347.874582" y="201.398025" style="fill: #ffffff; stroke: #ef476f; stroke-width: 1.6"/>
    </g>
   </g>
   <g id="PathCollection_3">
    <defs>
     <path id="m25616c18b2" d="M 0 2.738613 
C 0.726289 2.738613 1.422928 2.450055 1.936492 1.936492 
C 2.450055 1.422928 2.738613 0.726289 2.738613 0 
C 2.738613 -0.726289 2.450055 -1.422928 1.936492 -1.936492 
C 1.422928 -2.450055 0.726289 -2.738613 0 -2.738613 
C -0.726289 -2.738613 -1.422928 -2.450055 -1.936492 -1.936492 
C -2.450055 -1.422928 -2.738613 -0.726289 -2.738613 0 
C -2.738613 0.726289 -2.450055 1.422928 -1.936492 1.936492 
C -1.422928 2.450055 -0.726289 2.738613 0 2.738613 
z
" style="stroke: #8338ec; stroke-width: 1.6"/>
    </defs>
    <g clip-path="url(#pf558c10729)">
     <use xlink:href="#m25616c18b2" x="329.755325" y="20.047706" style="fill: #ffffff; stroke: #8338ec; stroke-width: 1.6"/>
    </g>
   </g>
   <g id="PathCollection_4">
    <defs>
     <path id="mf8cd82f8ac" d="M 0 2.738613 
C 0.726289 2.738613 1.422928 2.450055 1.936492 1.936492 
C 2.450055 1.422928 2.738613 0.726289 2.738613 0 
C 2.738613 -0.726289 2.450055 -1.422928 1.936492 -1.936492 
C 1.422928 -2.450055 0.726289 -2.738613 0 -2.738613 
C -0.726289 -2.738613 -1.422928 -2.450055 -1.936492 -1.936492 
C -2.450055 -1.422928 -2.738613 -0.726289 -2.738613 0 
C -2.738613 0.726289 -2.450055 1.422928 -1.936492 1.936492 
C -1.422928 2.450055 -0.726289 2.738613 0 2.738613 
z
" style="stroke: #06d6a0; stroke-width: 1.6"/>
    </defs>
    <g clip-path="url(#pf558c10729)">
     <use xlink:href="#mf8cd82f8ac" x="329.755325" y="27.58338" style="fill: #ffffff; stroke: #06d6a0; stroke-width: 1.6"/>
    </g>
   </g>
   <g id="legend_1">
    <g id="line2d_25">
     <path d="M 53.086961 31.200635 
L 60.286961 31.200635 
L 67.486961 31.200635 
" style="fill: none; stroke: #e49b0f; stroke-width: 2.2; stroke-linecap: square"/>
    </g>
    <g id="text_15">
     <!-- \textbf{TDM} -->
     <g transform="translate(71.686961 35.400635) scale(0.12 -0.12)">
      <defs>
       <path id="LMRoman12-Bold-54" d="M 4736 2828 
L 4608 4352 
L 390 4352 
L 262 2828 
L 531 2828 
C 589 3530 640 4076 1562 4076 
L 2080 4076 
L 2080 275 
L 1114 275 
L 1114 0 
L 2502 12 
L 3891 0 
L 3891 275 
L 2925 275 
L 2925 4076 
L 3437 4076 
C 4358 4076 4410 3536 4467 2828 
L 4736 2828 
z
" transform="scale(0.015625)"/>
       <path id="LMRoman12-Bold-44" d="M 5114 2169 
C 5114 3625 4141 4416 2938 4416 
L 243 4416 
L 243 4140 
L 922 4140 
L 922 275 
L 243 275 
L 243 0 
L 2938 0 
C 4166 0 5114 790 5114 2169 
z
M 4243 2175 
C 4243 1421 4147 1086 3923 784 
C 3699 487 3270 275 2694 275 
L 1734 275 
L 1734 4140 
L 2694 4140 
C 3251 4140 3699 3921 3936 3586 
C 4122 3322 4243 3006 4243 2175 
z
" transform="scale(0.015625)"/>
       <path id="LMRoman12-Bold-4d" d="M 6560 0 
L 6560 275 
L 5882 275 
L 5882 4140 
L 6560 4140 
L 6560 4416 
L 5197 4416 
C 5062 4416 5005 4416 4947 4281 
L 3411 816 
L 1875 4281 
C 1818 4416 1760 4416 1626 4416 
L 262 4416 
L 262 4140 
L 941 4140 
L 941 468 
C 941 326 934 320 768 294 
C 653 281 525 275 410 275 
L 262 275 
L 262 0 
C 410 12 909 12 1088 12 
C 1267 12 1773 12 1920 0 
L 1920 275 
L 1773 275 
C 1600 275 1587 275 1434 294 
C 1248 320 1242 326 1242 468 
L 1242 4063 
L 1248 4063 
L 2989 134 
C 3021 64 3059 0 3168 0 
C 3277 0 3315 64 3347 134 
L 5120 4140 
L 5126 4140 
L 5126 275 
L 4448 275 
L 4448 0 
C 4621 12 5286 12 5504 12 
C 5722 12 6387 12 6560 0 
z
" transform="scale(0.015625)"/>
      </defs>
      <use xlink:href="#LMRoman12-Bold-54" transform="scale(0.996264)"/>
      <use xlink:href="#LMRoman12-Bold-44" transform="translate(77.949419 0) scale(0.996264)"/>
      <use xlink:href="#LMRoman12-Bold-4d" transform="translate(163.852305 0) scale(0.996264)"/>
     </g>
    </g>
    <g id="line2d_26">
     <path d="M 53.086961 46.125231 
L 60.286961 46.125231 
L 67.486961 46.125231 
" style="fill: none; stroke-dasharray: 7.4,3.2; stroke-dashoffset: 0; stroke: #ef476f; stroke-width: 2"/>
    </g>
    <g id="text_16">
     <!-- \textbf{Base} -->
     <g transform="translate(71.686961 50.325231) scale(0.12 -0.12)">
      <defs>
       <path id="LMRoman12-Bold-61" d="M 3462 115 
C 3462 249 3405 249 3315 249 
C 2912 256 2912 358 2912 506 
L 2912 1892 
C 2912 2482 2445 2880 1542 2880 
C 1184 2880 429 2847 429 2309 
C 429 2039 634 1924 806 1924 
C 998 1924 1184 2059 1184 2302 
C 1184 2424 1139 2540 1030 2610 
C 1242 2668 1395 2668 1517 2668 
C 1952 2668 2214 2424 2214 1898 
L 2214 1642 
C 1203 1642 186 1359 186 647 
C 186 64 928 -64 1370 -64 
C 1862 -64 2176 204 2304 487 
C 2304 275 2304 0 2950 0 
L 3277 0 
C 3411 0 3462 0 3462 140 
L 3462 115 
z
M 2214 889 
C 2214 288 1677 172 1472 172 
C 1158 172 896 384 896 678 
C 896 1260 1587 1459 2214 1491 
L 2214 889 
z
" transform="scale(0.015625)"/>
       <path id="LMRoman12-Bold-73" d="M 2592 880 
C 2592 1190 2426 1392 2298 1501 
C 2035 1707 1818 1744 1472 1805 
C 1062 1871 678 1938 678 2240 
C 678 2687 1248 2687 1382 2687 
C 2093 2687 2131 2208 2144 2048 
C 2150 1969 2202 1969 2278 1969 
C 2413 1969 2413 1987 2413 2131 
L 2413 2713 
C 2413 2835 2413 2880 2317 2880 
C 2278 2880 2266 2880 2170 2822 
C 2144 2803 2074 2758 2042 2739 
C 1862 2841 1626 2880 1395 2880 
C 1203 2880 243 2880 243 2017 
C 243 1379 1037 1246 1235 1216 
C 1408 1183 1619 1145 1645 1145 
C 1901 1087 2157 925 2157 651 
C 2157 147 1574 147 1440 147 
C 1114 147 710 251 531 886 
C 493 1017 486 1023 378 1023 
C 243 1023 243 1004 243 853 
L 243 102 
C 243 -20 243 -64 339 -64 
C 384 -64 397 -64 525 38 
L 691 160 
C 979 -64 1325 -64 1440 -64 
C 1792 -64 2592 12 2592 880 
z
" transform="scale(0.015625)"/>
       <path id="LMRoman12-Bold-65" d="M 3078 731 
C 3078 829 2982 829 2944 829 
C 2842 829 2835 809 2797 725 
C 2630 302 2208 166 1901 166 
C 973 166 966 1043 966 1408 
L 2893 1408 
C 3040 1408 3078 1408 3078 1568 
C 3078 1758 3034 2232 2739 2529 
C 2470 2796 2112 2880 1741 2880 
C 742 2880 198 2232 198 1433 
C 198 523 858 -64 1824 -64 
C 2790 -64 3078 621 3078 731 
z
M 2490 1593 
L 966 1593 
C 979 1852 986 2099 1120 2327 
C 1242 2529 1466 2668 1741 2668 
C 2426 2668 2483 1909 2490 1593 
z
" transform="scale(0.015625)"/>
      </defs>
      <use xlink:href="#LMRoman12-Bold-42" transform="scale(0.996264)"/>
      <use xlink:href="#LMRoman12-Bold-61" transform="translate(79.676235 0) scale(0.996264)"/>
      <use xlink:href="#LMRoman12-Bold-73" transform="translate(134.159424 0) scale(0.996264)"/>
      <use xlink:href="#LMRoman12-Bold-65" transform="translate(178.368578 0) scale(0.996264)"/>
     </g>
    </g>
    <g id="line2d_27">
     <path d="M 116.107376 31.200635 
L 123.307376 31.200635 
L 130.507376 31.200635 
" style="fill: none; stroke: #8338ec; stroke-width: 2.2; stroke-linecap: square"/>
    </g>
    <g id="text_17">
     <!-- \textbf{TDM} -->
     <g transform="translate(134.707376 35.400635) scale(0.12 -0.12)">
      <use xlink:href="#LMRoman12-Bold-54" transform="scale(0.996264)"/>
      <use xlink:href="#LMRoman12-Bold-44" transform="translate(77.949419 0) scale(0.996264)"/>
      <use xlink:href="#LMRoman12-Bold-4d" transform="translate(163.852305 0) scale(0.996264)"/>
     </g>
    </g>
    <g id="line2d_28">
     <path d="M 116.107376 46.125231 
L 123.307376 46.125231 
L 130.507376 46.125231 
" style="fill: none; stroke-dasharray: 7.4,3.2; stroke-dashoffset: 0; stroke: #06d6a0; stroke-width: 2"/>
    </g>
    <g id="text_18">
     <!-- \textbf{Base} -->
     <g transform="translate(134.707376 50.325231) scale(0.12 -0.12)">
      <use xlink:href="#LMRoman12-Bold-42" transform="scale(0.996264)"/>
      <use xlink:href="#LMRoman12-Bold-61" transform="translate(79.676235 0) scale(0.996264)"/>
      <use xlink:href="#LMRoman12-Bold-73" transform="translate(134.159424 0) scale(0.996264)"/>
      <use xlink:href="#LMRoman12-Bold-65" transform="translate(178.368578 0) scale(0.996264)"/>
     </g>
    </g>
   </g>
  </g>
 </g>
 <defs>
  <clipPath id="pf558c10729">
   <rect x="45.886961" y="7.2" width="314.067127" height="210.010587"/>
  </clipPath>
 </defs>
</svg>
