<?xml version="1.0" encoding="utf-8" standalone="no"?>
<!DOCTYPE svg PUBLIC "-//W3C//DTD SVG 1.1//EN"
  "http://www.w3.org/Graphics/SVG/1.1/DTD/svg11.dtd">
<svg xmlns:xlink="http://www.w3.org/1999/xlink" width="368.399516pt" height="260.39952pt" viewBox="0 0 368.399516 260.39952" xmlns="http://www.w3.org/2000/svg" version="1.1">
 <metadata>
  <rdf:RDF xmlns:dc="http://purl.org/dc/elements/1.1/" xmlns:cc="http://creativecommons.org/ns#" xmlns:rdf="http://www.w3.org/1999/02/22-rdf-syntax-ns#">
   <cc:Work>
    <dc:type rdf:resource="http://purl.org/dc/dcmitype/StillImage"/>
    <dc:date>2026-07-16T15:21:28.318570</dc:date>
    <dc:format>image/svg+xml</dc:format>
    <dc:creator>
     <cc:Agent>
      <dc:title>Matplotlib v3.10.0, https://matplotlib.org/</dc:title>
     </cc:Agent>
    </dc:creator>
   </cc:Work>
  </rdf:RDF>
 </metadata>
 <defs>
  <style type="text/css">*{stroke-linejoin: round; stroke-linecap: butt}</style>
 </defs>
 <g id="figure_1">
  <g id="patch_1">
   <path d="M 0 260.39952 
L 368.399516 260.39952 
L 368.399516 -0 
L 0 -0 
z
" style="fill: #ffffff"/>
  </g>
  <g id="axes_1">
   <g id="patch_2">
    <path d="M 50.024202 217.210587 
L 359.872965 217.210587 
L 359.872965 7.2 
L 50.024202 7.2 
z
" style="fill: #ffffff"/>
   </g>
   <g id="patch_3">
    <path d="M 50.024202 217.210587 
L 50.024202 7.2 
" style="fill: none; stroke: #000000; stroke-linejoin: miter; stroke-linecap: square"/>
   </g>
   <g id="patch_4">
    <path d="M 359.872965 217.210587 
L 359.872965 7.2 
" style="fill: none; stroke: #000000; stroke-linejoin: miter; stroke-linecap: square"/>
   </g>
   <g id="patch_5">
    <path d="M 50.024202 217.210587 
L 359.872965 217.210587 
" style="fill: none; stroke: #000000; stroke-linejoin: miter; stroke-linecap: square"/>
   </g>
   <g id="patch_6">
    <path d="M 50.024202 7.2 
L 359.872965 7.2 
" style="fill: none; stroke: #000000; stroke-linejoin: miter; stroke-linecap: square"/>
   </g>
   <g id="matplotlib.axis_1">
    <g id="xtick_1">
     <g id="line2d_1">
      <path d="M 55.982832 217.210587 
L 55.982832 7.2 
" clip-path="url(#p3ab3c64d89)" style="fill: none; stroke-dasharray: 2.96,1.28; stroke-dashoffset: 0; stroke: #b0b0b0; stroke-opacity: 0.35; stroke-width: 0.8"/>
     </g>
     <g id="line2d_2">
      <defs>
       <path id="mf752a31cc6" d="M 0 0 
L 0 3.5 
" style="stroke: #000000; stroke-width: 0.8"/>
      </defs>
      <g>
       <use xlink:href="#mf752a31cc6" x="55.982832" y="217.210587" style="stroke: #000000; stroke-width: 0.8"/>
      </g>
     </g>
     <g id="text_1">
      <!-- $\mathdefault{0}$ -->
      <g transform="translate(52.340242 233.259296) scale(0.13 -0.13)">
       <defs>
        <path id="LMRoman12-Bold-30" d="M 3309 2060 
C 3309 2677 3309 4224 1798 4224 
C 282 4224 282 2683 282 2060 
C 282 1444 282 -64 1792 -64 
C 3302 -64 3309 1424 3309 2060 
z
M 2541 2137 
C 2541 622 2445 532 2253 339 
C 2125 211 1952 147 1798 147 
C 1594 147 1440 230 1312 365 
C 1152 526 1050 628 1050 2137 
C 1050 2587 1050 2998 1101 3331 
C 1190 3967 1651 4012 1792 4012 
C 1997 4012 2394 3916 2483 3376 
C 2541 3049 2541 2529 2541 2137 
z
" transform="scale(0.015625)"/>
       </defs>
       <use xlink:href="#LMRoman12-Bold-30" transform="scale(0.996264)"/>
      </g>
     </g>
    </g>
    <g id="xtick_2">
     <g id="line2d_3">
      <path d="M 115.569132 217.210587 
L 115.569132 7.2 
" clip-path="url(#p3ab3c64d89)" style="fill: none; stroke-dasharray: 2.96,1.28; stroke-dashoffset: 0; stroke: #b0b0b0; stroke-opacity: 0.35; stroke-width: 0.8"/>
     </g>
     <g id="line2d_4">
      <g>
       <use xlink:href="#mf752a31cc6" x="115.569132" y="217.210587" style="stroke: #000000; stroke-width: 0.8"/>
      </g>
     </g>
     <g id="text_2">
      <!-- $\mathdefault{10}$ -->
      <g transform="translate(108.283952 233.259296) scale(0.13 -0.13)">
       <defs>
        <path id="LMRoman12-Bold-31" d="M 3091 0 
L 3091 275 
L 2214 275 
L 2214 4029 
C 2214 4224 2202 4224 1997 4224 
C 1523 3795 813 3795 672 3795 
L 550 3795 
L 550 3520 
L 672 3520 
C 896 3520 1235 3558 1491 3641 
L 1491 275 
L 602 275 
L 602 0 
L 1843 12 
L 3091 0 
z
" transform="scale(0.015625)"/>
       </defs>
       <use xlink:href="#LMRoman12-Bold-31" transform="scale(0.996264)"/>
       <use xlink:href="#LMRoman12-Bold-30" transform="translate(56.039851 0) scale(0.996264)"/>
      </g>
     </g>
    </g>
    <g id="xtick_3">
     <g id="line2d_5">
      <path d="M 175.155433 217.210587 
L 175.155433 7.2 
" clip-path="url(#p3ab3c64d89)" style="fill: none; stroke-dasharray: 2.96,1.28; stroke-dashoffset: 0; stroke: #b0b0b0; stroke-opacity: 0.35; stroke-width: 0.8"/>
     </g>
     <g id="line2d_6">
      <g>
       <use xlink:href="#mf752a31cc6" x="175.155433" y="217.210587" style="stroke: #000000; stroke-width: 0.8"/>
      </g>
     </g>
     <g id="text_3">
      <!-- $\mathdefault{20}$ -->
      <g transform="translate(167.870253 233.259296) scale(0.13 -0.13)">
       <defs>
        <path id="LMRoman12-Bold-32" d="M 3232 1378 
L 2963 1378 
C 2944 1243 2899 864 2803 800 
C 2752 755 2253 755 2157 755 
L 1165 755 
L 2086 1519 
C 2797 2052 3232 2379 3232 2995 
C 3232 3759 2547 4224 1702 4224 
C 979 4224 358 3806 358 3187 
C 358 2848 634 2752 781 2752 
C 979 2752 1210 2886 1210 3180 
C 1210 3449 1011 3584 813 3610 
C 1069 3921 1408 3948 1542 3948 
C 2131 3948 2413 3449 2413 2988 
C 2413 2488 2074 2026 1811 1750 
L 422 294 
C 358 236 358 224 358 108 
L 358 0 
L 3046 0 
L 3232 1378 
z
" transform="scale(0.015625)"/>
       </defs>
       <use xlink:href="#LMRoman12-Bold-32" transform="scale(0.996264)"/>
       <use xlink:href="#LMRoman12-Bold-30" transform="translate(56.039851 0) scale(0.996264)"/>
      </g>
     </g>
    </g>
    <g id="xtick_4">
     <g id="line2d_7">
      <path d="M 234.741734 217.210587 
L 234.741734 7.2 
" clip-path="url(#p3ab3c64d89)" style="fill: none; stroke-dasharray: 2.96,1.28; stroke-dashoffset: 0; stroke: #b0b0b0; stroke-opacity: 0.35; stroke-width: 0.8"/>
     </g>
     <g id="line2d_8">
      <g>
       <use xlink:href="#mf752a31cc6" x="234.741734" y="217.210587" style="stroke: #000000; stroke-width: 0.8"/>
      </g>
     </g>
     <g id="text_4">
      <!-- $\mathdefault{30}$ -->
      <g transform="translate(227.456553 233.259296) scale(0.13 -0.13)">
       <defs>
        <path id="LMRoman12-Bold-33" d="M 3290 1164 
C 3290 1479 3130 2092 2138 2265 
C 2701 2436 3091 2824 3091 3327 
C 3091 3812 2630 4224 1741 4224 
C 1024 4224 499 3839 499 3315 
C 499 2995 749 2892 915 2892 
C 1101 2892 1325 3014 1325 3308 
C 1325 3455 1261 3673 960 3718 
C 1229 3993 1664 3993 1702 3993 
C 2272 3993 2272 3539 2272 3347 
C 2272 3155 2246 2861 2042 2605 
C 1875 2392 1709 2380 1466 2368 
C 1389 2361 1261 2355 1235 2342 
C 1197 2323 1197 2278 1197 2252 
C 1197 2143 1235 2143 1363 2143 
L 1670 2143 
C 2387 2143 2387 1473 2387 1164 
C 2387 876 2387 192 1696 192 
C 1562 192 1139 211 832 434 
C 1107 492 1203 691 1203 883 
C 1203 1145 1018 1331 755 1331 
C 486 1324 301 1139 301 870 
C 301 281 941 -64 1728 -64 
C 2784 -64 3290 518 3290 1158 
L 3290 1164 
z
" transform="scale(0.015625)"/>
       </defs>
       <use xlink:href="#LMRoman12-Bold-33" transform="scale(0.996264)"/>
       <use xlink:href="#LMRoman12-Bold-30" transform="translate(56.039851 0) scale(0.996264)"/>
      </g>
     </g>
    </g>
    <g id="xtick_5">
     <g id="line2d_9">
      <path d="M 294.328035 217.210587 
L 294.328035 7.2 
" clip-path="url(#p3ab3c64d89)" style="fill: none; stroke-dasharray: 2.96,1.28; stroke-dashoffset: 0; stroke: #b0b0b0; stroke-opacity: 0.35; stroke-width: 0.8"/>
     </g>
     <g id="line2d_10">
      <g>
       <use xlink:href="#mf752a31cc6" x="294.328035" y="217.210587" style="stroke: #000000; stroke-width: 0.8"/>
      </g>
     </g>
     <g id="text_5">
      <!-- $\mathdefault{40}$ -->
      <g transform="translate(287.042854 233.259296) scale(0.13 -0.13)">
       <defs>
        <path id="LMRoman12-Bold-34" d="M 3392 0 
L 3392 275 
L 2771 275 
L 2771 1004 
L 3392 1004 
L 3392 1280 
L 2771 1280 
L 2771 4037 
C 2771 4198 2765 4224 2605 4224 
C 2490 4224 2477 4224 2400 4127 
L 198 1280 
L 198 1004 
L 2016 1004 
L 2016 275 
L 1318 275 
L 1318 0 
C 1504 12 2138 12 2368 12 
C 2586 12 3219 12 3392 0 
z
M 2074 1280 
L 493 1280 
L 2074 3324 
L 2074 1280 
z
" transform="scale(0.015625)"/>
       </defs>
       <use xlink:href="#LMRoman12-Bold-34" transform="scale(0.996264)"/>
       <use xlink:href="#LMRoman12-Bold-30" transform="translate(56.039851 0) scale(0.996264)"/>
      </g>
     </g>
    </g>
    <g id="xtick_6">
     <g id="line2d_11">
      <path d="M 353.914335 217.210587 
L 353.914335 7.2 
" clip-path="url(#p3ab3c64d89)" style="fill: none; stroke-dasharray: 2.96,1.28; stroke-dashoffset: 0; stroke: #b0b0b0; stroke-opacity: 0.35; stroke-width: 0.8"/>
     </g>
     <g id="line2d_12">
      <g>
       <use xlink:href="#mf752a31cc6" x="353.914335" y="217.210587" style="stroke: #000000; stroke-width: 0.8"/>
      </g>
     </g>
     <g id="text_6">
      <!-- $\mathdefault{50}$ -->
      <g transform="translate(346.629155 233.259296) scale(0.13 -0.13)">
       <defs>
        <path id="LMRoman12-Bold-35" d="M 3232 1286 
C 3232 2067 2701 2624 1824 2624 
C 1568 2624 1261 2572 986 2368 
L 986 3328 
C 1203 3308 1376 3308 1472 3308 
C 1626 3276 1990 3276 2419 3539 
C 2618 3664 2950 3960 2950 4112 
C 2950 4145 2950 4224 2874 4224 
C 2874 4224 2854 4224 2790 4191 
C 2496 4098 2182 4032 1824 4032 
C 1459 4032 1152 4098 851 4200 
C 806 4212 787 4224 768 4224 
C 691 4224 691 4164 691 4062 
L 691 2179 
C 691 2055 691 1984 819 1984 
C 883 1984 896 1991 947 2055 
C 1024 2146 1254 2432 1798 2432 
C 2387 2432 2387 1822 2387 1312 
C 2387 851 2387 192 1600 192 
C 1363 192 960 280 742 640 
C 1082 627 1165 883 1165 1024 
C 1165 1267 998 1440 762 1440 
C 570 1440 358 1324 358 1024 
C 358 469 864 -64 1626 -64 
C 2611 -84 3232 486 3232 1280 
L 3232 1286 
z
" transform="scale(0.015625)"/>
       </defs>
       <use xlink:href="#LMRoman12-Bold-35" transform="scale(0.996264)"/>
       <use xlink:href="#LMRoman12-Bold-30" transform="translate(56.039851 0) scale(0.996264)"/>
      </g>
     </g>
    </g>
    <g id="text_7">
     <!-- \textbf{Epoch} -->
     <g transform="translate(181.918704 250.292894) scale(0.15 -0.15)">
      <defs>
       <path id="LMRoman12-Bold-45" d="M 4518 1717 
L 4250 1717 
C 4115 770 3878 275 2765 275 
L 1766 275 
L 1766 2112 
L 2144 2112 
C 2758 2112 2822 1851 2822 1368 
L 3091 1368 
L 3091 3138 
L 2822 3138 
C 2822 2657 2758 2387 2144 2387 
L 1766 2387 
L 1766 4076 
L 2765 4076 
C 3744 4076 3955 3661 4051 2837 
L 4320 2837 
L 4134 4352 
L 243 4352 
L 243 4076 
L 922 4076 
L 922 275 
L 243 275 
L 243 0 
L 4243 0 
L 4518 1717 
z
" transform="scale(0.015625)"/>
       <path id="LMRoman12-Bold-70" d="M 3750 1427 
C 3750 2310 3155 2880 2291 2880 
C 1914 2880 1587 2751 1331 2547 
L 1331 2880 
L 224 2835 
L 224 2560 
C 621 2560 666 2560 666 2307 
L 666 -1005 
L 224 -1005 
L 224 -1280 
C 371 -1268 832 -1268 1011 -1268 
C 1190 -1268 1658 -1268 1805 -1280 
L 1805 -1005 
L 1363 -1005 
L 1363 238 
C 1523 96 1805 -64 2189 -64 
C 3066 -64 3750 471 3750 1418 
L 3750 1427 
z
M 2982 1418 
C 2982 478 2522 147 2112 147 
C 1837 147 1562 289 1363 594 
L 1363 2242 
C 1600 2547 1939 2649 2189 2649 
C 2605 2649 2982 2271 2982 1427 
L 2982 1418 
z
" transform="scale(0.015625)"/>
       <path id="LMRoman12-Bold-6f" d="M 3392 1379 
C 3392 2245 2803 2880 1798 2880 
C 755 2880 198 2213 198 1379 
C 198 538 787 -64 1792 -64 
C 2835 -64 3392 570 3392 1379 
z
M 2624 1443 
C 2624 910 2624 166 1798 166 
C 966 166 966 917 966 1443 
C 966 1744 966 2065 1088 2296 
C 1229 2553 1517 2668 1792 2668 
C 2157 2668 2387 2495 2496 2315 
C 2624 2084 2624 1751 2624 1443 
z
" transform="scale(0.015625)"/>
       <path id="LMRoman12-Bold-63" d="M 2995 724 
C 2995 801 2925 801 2861 801 
C 2758 801 2752 795 2720 718 
C 2675 596 2502 166 1914 166 
C 1011 166 1011 1141 1011 1430 
C 1011 1808 1018 2649 1856 2649 
C 1901 2649 2278 2636 2278 2604 
C 2278 2604 2272 2591 2259 2585 
C 2240 2566 2157 2469 2157 2309 
C 2157 2039 2374 1930 2534 1930 
C 2669 1930 2912 2014 2912 2315 
C 2912 2841 2176 2880 1830 2880 
C 691 2880 243 2136 243 1398 
C 243 525 851 -64 1792 -64 
C 2797 -64 2995 679 2995 724 
z
" transform="scale(0.015625)"/>
       <path id="LMRoman12-Bold-68" d="M 3840 0 
L 3840 275 
L 3398 275 
L 3398 1964 
C 3398 2567 3136 2880 2432 2880 
C 1786 2880 1472 2429 1382 2240 
L 1376 2240 
L 1376 4480 
L 269 4416 
L 269 4140 
C 666 4140 710 4140 710 3885 
L 710 275 
L 269 275 
L 269 0 
C 416 12 877 12 1056 12 
C 1235 12 1702 12 1850 0 
L 1850 275 
L 1408 275 
L 1408 1638 
C 1408 2329 1920 2668 2330 2668 
C 2566 2668 2701 2515 2701 2028 
L 2701 275 
L 2259 275 
L 2259 0 
C 2406 12 2867 12 3046 12 
C 3226 12 3693 12 3840 0 
z
" transform="scale(0.015625)"/>
      </defs>
      <use xlink:href="#LMRoman12-Bold-45" transform="scale(0.996264)"/>
      <use xlink:href="#LMRoman12-Bold-70" transform="translate(73.565697 0) scale(0.996264)"/>
      <use xlink:href="#LMRoman12-Bold-6f" transform="translate(138.945522 0) scale(0.996264)"/>
      <use xlink:href="#LMRoman12-Bold-63" transform="translate(198.098698 0) scale(0.996264)"/>
      <use xlink:href="#LMRoman12-Bold-68" transform="translate(244.798573 0) scale(0.996264)"/>
     </g>
    </g>
   </g>
   <g id="matplotlib.axis_2">
    <g id="ytick_1">
     <g id="line2d_13">
      <path d="M 50.024202 183.799812 
L 359.872965 183.799812 
" clip-path="url(#p3ab3c64d89)" style="fill: none; stroke-dasharray: 2.96,1.28; stroke-dashoffset: 0; stroke: #b0b0b0; stroke-opacity: 0.35; stroke-width: 0.8"/>
     </g>
     <g id="line2d_14">
      <defs>
       <path id="m45b4609868" d="M 0 0 
L -3.5 0 
" style="stroke: #000000; stroke-width: 0.8"/>
      </defs>
      <g>
       <use xlink:href="#m45b4609868" x="50.024202" y="183.799812" style="stroke: #000000; stroke-width: 0.8"/>
      </g>
     </g>
     <g id="text_8">
      <!-- $\mathdefault{3.0}$ -->
      <g transform="translate(24.316599 188.324166) scale(0.13 -0.13)">
       <defs>
        <path id="LMMathItalic10-Bold-3a" d="M 1517 499 
C 1517 774 1293 998 1018 998 
C 742 998 518 774 518 499 
C 518 224 742 0 1018 0 
C 1293 0 1517 224 1517 499 
z
" transform="scale(0.015625)"/>
       </defs>
       <use xlink:href="#LMRoman12-Bold-33" transform="scale(0.996264)"/>
       <use xlink:href="#LMMathItalic10-Bold-3a" transform="translate(56.039851 0) scale(0.996264)"/>
       <use xlink:href="#LMRoman12-Bold-30" transform="translate(87.864782 0) scale(0.996264)"/>
      </g>
     </g>
    </g>
    <g id="ytick_2">
     <g id="line2d_15">
      <path d="M 50.024202 136.070133 
L 359.872965 136.070133 
" clip-path="url(#p3ab3c64d89)" style="fill: none; stroke-dasharray: 2.96,1.28; stroke-dashoffset: 0; stroke: #b0b0b0; stroke-opacity: 0.35; stroke-width: 0.8"/>
     </g>
     <g id="line2d_16">
      <g>
       <use xlink:href="#m45b4609868" x="50.024202" y="136.070133" style="stroke: #000000; stroke-width: 0.8"/>
      </g>
     </g>
     <g id="text_9">
      <!-- $\mathdefault{3.1}$ -->
      <g transform="translate(24.316599 140.594487) scale(0.13 -0.13)">
       <use xlink:href="#LMRoman12-Bold-33" transform="scale(0.996264)"/>
       <use xlink:href="#LMMathItalic10-Bold-3a" transform="translate(56.039851 0) scale(0.996264)"/>
       <use xlink:href="#LMRoman12-Bold-31" transform="translate(87.864782 0) scale(0.996264)"/>
      </g>
     </g>
    </g>
    <g id="ytick_3">
     <g id="line2d_17">
      <path d="M 50.024202 88.340454 
L 359.872965 88.340454 
" clip-path="url(#p3ab3c64d89)" style="fill: none; stroke-dasharray: 2.96,1.28; stroke-dashoffset: 0; stroke: #b0b0b0; stroke-opacity: 0.35; stroke-width: 0.8"/>
     </g>
     <g id="line2d_18">
      <g>
       <use xlink:href="#m45b4609868" x="50.024202" y="88.340454" style="stroke: #000000; stroke-width: 0.8"/>
      </g>
     </g>
     <g id="text_10">
      <!-- $\mathdefault{3.2}$ -->
      <g transform="translate(24.316599 92.864809) scale(0.13 -0.13)">
       <use xlink:href="#LMRoman12-Bold-33" transform="scale(0.996264)"/>
       <use xlink:href="#LMMathItalic10-Bold-3a" transform="translate(56.039851 0) scale(0.996264)"/>
       <use xlink:href="#LMRoman12-Bold-32" transform="translate(87.864782 0) scale(0.996264)"/>
      </g>
     </g>
    </g>
    <g id="ytick_4">
     <g id="line2d_19">
      <path d="M 50.024202 40.610775 
L 359.872965 40.610775 
" clip-path="url(#p3ab3c64d89)" style="fill: none; stroke-dasharray: 2.96,1.28; stroke-dashoffset: 0; stroke: #b0b0b0; stroke-opacity: 0.35; stroke-width: 0.8"/>
     </g>
     <g id="line2d_20">
      <g>
       <use xlink:href="#m45b4609868" x="50.024202" y="40.610775" style="stroke: #000000; stroke-width: 0.8"/>
      </g>
     </g>
     <g id="text_11">
      <!-- $\mathdefault{3.3}$ -->
      <g transform="translate(24.316599 45.13513) scale(0.13 -0.13)">
       <use xlink:href="#LMRoman12-Bold-33" transform="scale(0.996264)"/>
       <use xlink:href="#LMMathItalic10-Bold-3a" transform="translate(56.039851 0) scale(0.996264)"/>
       <use xlink:href="#LMRoman12-Bold-33" transform="translate(87.864782 0) scale(0.996264)"/>
      </g>
     </g>
    </g>
    <g id="text_12">
     <!-- \textbf{Test Loss} -->
     <g transform="translate(17.409973 146.458064) rotate(-90) scale(0.15 -0.15)">
      <defs>
       <path id="LMRoman12-Bold-54" d="M 4736 2828 
L 4608 4352 
L 390 4352 
L 262 2828 
L 531 2828 
C 589 3530 640 4076 1562 4076 
L 2080 4076 
L 2080 275 
L 1114 275 
L 1114 0 
L 2502 12 
L 3891 0 
L 3891 275 
L 2925 275 
L 2925 4076 
L 3437 4076 
C 4358 4076 4410 3536 4467 2828 
L 4736 2828 
z
" transform="scale(0.015625)"/>
       <path id="LMRoman12-Bold-65" d="M 3078 731 
C 3078 829 2982 829 2944 829 
C 2842 829 2835 809 2797 725 
C 2630 302 2208 166 1901 166 
C 973 166 966 1043 966 1408 
L 2893 1408 
C 3040 1408 3078 1408 3078 1568 
C 3078 1758 3034 2232 2739 2529 
C 2470 2796 2112 2880 1741 2880 
C 742 2880 198 2232 198 1433 
C 198 523 858 -64 1824 -64 
C 2790 -64 3078 621 3078 731 
z
M 2490 1593 
L 966 1593 
C 979 1852 986 2099 1120 2327 
C 1242 2529 1466 2668 1741 2668 
C 2426 2668 2483 1909 2490 1593 
z
" transform="scale(0.015625)"/>
       <path id="LMRoman12-Bold-73" d="M 2592 880 
C 2592 1190 2426 1392 2298 1501 
C 2035 1707 1818 1744 1472 1805 
C 1062 1871 678 1938 678 2240 
C 678 2687 1248 2687 1382 2687 
C 2093 2687 2131 2208 2144 2048 
C 2150 1969 2202 1969 2278 1969 
C 2413 1969 2413 1987 2413 2131 
L 2413 2713 
C 2413 2835 2413 2880 2317 2880 
C 2278 2880 2266 2880 2170 2822 
C 2144 2803 2074 2758 2042 2739 
C 1862 2841 1626 2880 1395 2880 
C 1203 2880 243 2880 243 2017 
C 243 1379 1037 1246 1235 1216 
C 1408 1183 1619 1145 1645 1145 
C 1901 1087 2157 925 2157 651 
C 2157 147 1574 147 1440 147 
C 1114 147 710 251 531 886 
C 493 1017 486 1023 378 1023 
C 243 1023 243 1004 243 853 
L 243 102 
C 243 -20 243 -64 339 -64 
C 384 -64 397 -64 525 38 
L 691 160 
C 979 -64 1325 -64 1440 -64 
C 1792 -64 2592 12 2592 880 
z
" transform="scale(0.015625)"/>
       <path id="LMRoman12-Bold-74" d="M 2394 768 
L 2394 1107 
L 2125 1107 
L 2125 774 
C 2125 352 1933 166 1734 166 
C 1350 166 1350 595 1350 742 
L 1350 2540 
L 2272 2540 
L 2272 2816 
L 1350 2816 
L 1350 4032 
L 1082 4032 
C 1075 3401 768 2771 134 2751 
L 134 2540 
L 653 2540 
L 653 761 
C 653 83 1178 -64 1638 -64 
C 2112 -64 2394 294 2394 768 
z
" transform="scale(0.015625)"/>
       <path id="LMRoman12-Bold-4c" d="M 4019 1737 
L 3750 1737 
C 3706 1293 3603 275 2451 275 
L 1766 275 
L 1766 4140 
L 2618 4140 
L 2618 4416 
L 1395 4403 
C 1158 4403 429 4403 243 4416 
L 243 4140 
L 922 4140 
L 922 275 
L 243 275 
L 243 0 
L 3834 0 
L 4019 1737 
z
" transform="scale(0.015625)"/>
      </defs>
      <use xlink:href="#LMRoman12-Bold-54" transform="scale(0.996264)"/>
      <use xlink:href="#LMRoman12-Bold-65" transform="translate(68.609444 0) scale(0.996264)"/>
      <use xlink:href="#LMRoman12-Bold-73" transform="translate(119.750992 0) scale(0.996264)"/>
      <use xlink:href="#LMRoman12-Bold-74" transform="translate(163.960146 0) scale(0.996264)"/>
      <use xlink:href="#LMRoman12-Bold-4c" transform="translate(244.906597 0) scale(0.996264)"/>
      <use xlink:href="#LMRoman12-Bold-6f" transform="translate(312.245644 0) scale(0.996264)"/>
      <use xlink:href="#LMRoman12-Bold-73" transform="translate(368.285494 0) scale(0.996264)"/>
      <use xlink:href="#LMRoman12-Bold-73" transform="translate(412.494649 0) scale(0.996264)"/>
     </g>
    </g>
   </g>
   <g id="line2d_21">
    <path d="M 125.052846 -1 
L 127.486393 12.450265 
L 133.445023 28.678355 
L 139.403653 45.86104 
L 145.362283 54.929679 
L 151.320913 55.406976 
L 157.279543 65.907505 
L 163.238173 87.38586 
L 169.196803 94.068015 
L 175.155433 91.204235 
L 181.114063 95.022609 
L 187.072693 99.795577 
L 193.031323 115.069074 
L 198.989953 116.023668 
L 204.948584 125.092307 
L 210.907214 129.865275 
L 216.865844 130.819868 
L 222.824474 139.41121 
L 228.783104 143.229585 
L 234.741734 141.320398 
L 240.700364 150.866333 
L 246.658994 154.684708 
L 252.617624 155.162004 
L 258.576254 158.025785 
L 264.534884 163.27605 
L 270.493514 154.684708 
L 276.452144 168.049018 
L 282.410774 169.958205 
L 288.369405 169.958205 
L 294.328035 168.049018 
L 300.286665 159.934972 
L 306.245295 179.981437 
L 312.203925 177.117657 
L 318.162555 180.458734 
L 324.121185 180.458734 
L 330.079815 172.821986 
L 336.038445 187.618186 
L 341.997075 185.708999 
L 347.955705 191.913857 
" clip-path="url(#p3ab3c64d89)" style="fill: none; stroke-dasharray: 7.4,3.2; stroke-dashoffset: 0; stroke: #2e2e2e; stroke-width: 2"/>
   </g>
   <g id="line2d_22">
    <path d="M 123.024994 -1 
L 127.486393 18.655123 
L 133.445023 37.269698 
L 139.403653 53.020492 
L 145.362283 59.702647 
L 151.320913 65.907505 
L 157.279543 71.15777 
L 163.238173 95.977203 
L 169.196803 102.182061 
L 175.155433 101.227467 
L 181.114063 105.045842 
L 187.072693 109.341513 
L 193.031323 126.0469 
L 198.989953 123.18312 
L 204.948584 135.115539 
L 210.907214 143.229585 
L 216.865844 139.888507 
L 222.824474 150.389037 
L 228.783104 155.162004 
L 234.741734 154.684708 
L 240.700364 162.321456 
L 246.658994 165.185237 
L 252.617624 169.480908 
L 258.576254 168.526314 
L 264.534884 173.776579 
L 270.493514 163.27605 
L 276.452144 173.776579 
L 282.410774 180.936031 
L 288.369405 179.981437 
L 294.328035 182.367921 
L 300.286665 167.571721 
L 306.245295 191.43656 
L 312.203925 187.140889 
L 318.162555 190.481967 
L 324.121185 188.57278 
L 330.079815 184.754405 
L 336.038445 200.982496 
L 341.997075 196.686825 
L 347.955705 202.414386 
" clip-path="url(#p3ab3c64d89)" style="fill: none; stroke: #ef476f; stroke-width: 2; stroke-linecap: square"/>
   </g>
   <g id="line2d_23">
    <path d="M 122.780043 -1 
L 127.486393 21.9962 
L 133.445023 39.656182 
L 139.403653 55.884272 
L 145.362283 63.521021 
L 151.320913 70.203176 
L 157.279543 74.498847 
L 163.238173 99.31828 
L 169.196803 106.000435 
L 175.155433 104.568545 
L 181.114063 108.386919 
L 187.072693 114.114481 
L 193.031323 129.387978 
L 198.989953 126.0469 
L 204.948584 139.41121 
L 210.907214 146.570662 
L 216.865844 144.184178 
L 222.824474 155.162004 
L 228.783104 160.889566 
L 234.741734 160.412269 
L 240.700364 167.094424 
L 246.658994 170.912798 
L 252.617624 174.253876 
L 258.576254 174.253876 
L 264.534884 179.026844 
L 270.493514 170.435502 
L 276.452144 179.981437 
L 282.410774 186.663592 
L 288.369405 185.231702 
L 294.328035 188.57278 
L 300.286665 174.731173 
L 306.245295 196.686825 
L 312.203925 193.823044 
L 318.162555 196.209528 
L 324.121185 194.300341 
L 330.079815 190.481967 
L 336.038445 206.232761 
L 341.997075 202.891683 
L 347.955705 208.141948 
" clip-path="url(#p3ab3c64d89)" style="fill: none; stroke: #06d6a0; stroke-width: 2; stroke-linecap: square"/>
   </g>
   <g id="line2d_24">
    <path d="M 122.594891 -1 
L 127.486393 24.859981 
L 133.445023 42.042666 
L 139.403653 58.748053 
L 145.362283 66.384802 
L 151.320913 74.976144 
L 157.279543 75.453441 
L 163.238173 102.182061 
L 169.196803 107.909622 
L 175.155433 106.955029 
L 181.114063 110.773403 
L 187.072693 115.069074 
L 193.031323 132.729055 
L 198.989953 128.433384 
L 204.948584 141.797694 
L 210.907214 149.434443 
L 216.865844 148.002553 
L 222.824474 158.025785 
L 228.783104 163.27605 
L 234.741734 164.230643 
L 240.700364 170.435502 
L 246.658994 174.253876 
L 252.617624 177.594953 
L 258.576254 178.549547 
L 264.534884 181.890625 
L 270.493514 178.549547 
L 276.452144 183.799812 
L 282.410774 191.43656 
L 288.369405 190.481967 
L 294.328035 193.823044 
L 300.286665 176.64036 
L 306.245295 201.459793 
L 312.203925 199.550606 
L 318.162555 200.505199 
L 324.121185 198.596012 
L 330.079815 194.777638 
L 336.038445 210.051135 
L 341.997075 207.664651 
L 347.955705 212.914916 
" clip-path="url(#p3ab3c64d89)" style="fill: none; stroke: #8338ec; stroke-width: 2; stroke-linecap: square"/>
   </g>
   <g id="line2d_25">
    <path d="M 122.721343 -1 
L 127.486393 23.428091 
L 133.445023 41.088072 
L 139.403653 57.79346 
L 145.362283 64.952911 
L 151.320913 73.544254 
L 157.279543 75.930738 
L 163.238173 101.227467 
L 169.196803 107.432326 
L 175.155433 106.477732 
L 181.114063 110.296106 
L 187.072693 114.114481 
L 193.031323 131.774462 
L 198.989953 127.956087 
L 204.948584 140.843101 
L 210.907214 149.434443 
L 216.865844 146.093365 
L 222.824474 156.593895 
L 228.783104 162.798753 
L 234.741734 162.321456 
L 240.700364 168.526314 
L 246.658994 172.821986 
L 252.617624 176.64036 
L 258.576254 176.163063 
L 264.534884 180.458734 
L 270.493514 173.299282 
L 276.452144 181.890625 
L 282.410774 189.527373 
L 288.369405 187.618186 
L 294.328035 191.43656 
L 300.286665 173.776579 
L 306.245295 199.073309 
L 312.203925 197.641419 
L 318.162555 198.118715 
L 324.121185 196.686825 
L 330.079815 192.868451 
L 336.038445 208.141948 
L 341.997075 205.278167 
L 347.955705 210.528432 
" clip-path="url(#p3ab3c64d89)" style="fill: none; stroke: #e49b0f; stroke-width: 2.3; stroke-linecap: square"/>
   </g>
   <g id="PathCollection_1">
    <defs>
     <path id="mbbd471465d" d="M 0 2.738613 
C 0.726289 2.738613 1.422928 2.450055 1.936492 1.936492 
C 2.450055 1.422928 2.738613 0.726289 2.738613 0 
C 2.738613 -0.726289 2.450055 -1.422928 1.936492 -1.936492 
C 1.422928 -2.450055 0.726289 -2.738613 0 -2.738613 
C -0.726289 -2.738613 -1.422928 -2.450055 -1.936492 -1.936492 
C -2.450055 -1.422928 -2.738613 -0.726289 -2.738613 0 
C -2.738613 0.726289 -2.450055 1.422928 -1.936492 1.936492 
C -1.422928 2.450055 -0.726289 2.738613 0 2.738613 
z
" style="stroke: #2e2e2e; stroke-width: 1.6"/>
    </defs>
    <g clip-path="url(#p3ab3c64d89)">
     <use xlink:href="#mbbd471465d" x="347.955705" y="191.913857" style="fill: #ffffff; stroke: #2e2e2e; stroke-width: 1.6"/>
    </g>
   </g>
   <g id="PathCollection_2">
    <defs>
     <path id="mbdd96ebdee" d="M 0 2.738613 
C 0.726289 2.738613 1.422928 2.450055 1.936492 1.936492 
C 2.450055 1.422928 2.738613 0.726289 2.738613 0 
C 2.738613 -0.726289 2.450055 -1.422928 1.936492 -1.936492 
C 1.422928 -2.450055 0.726289 -2.738613 0 -2.738613 
C -0.726289 -2.738613 -1.422928 -2.450055 -1.936492 -1.936492 
C -2.450055 -1.422928 -2.738613 -0.726289 -2.738613 0 
C -2.738613 0.726289 -2.450055 1.422928 -1.936492 1.936492 
C -1.422928 2.450055 -0.726289 2.738613 0 2.738613 
z
" style="stroke: #ef476f; stroke-width: 1.6"/>
    </defs>
    <g clip-path="url(#p3ab3c64d89)">
     <use xlink:href="#mbdd96ebdee" x="347.955705" y="202.414386" style="fill: #ffffff; stroke: #ef476f; stroke-width: 1.6"/>
    </g>
   </g>
   <g id="PathCollection_3">
    <defs>
     <path id="m5c3080ab7d" d="M 0 2.738613 
C 0.726289 2.738613 1.422928 2.450055 1.936492 1.936492 
C 2.450055 1.422928 2.738613 0.726289 2.738613 0 
C 2.738613 -0.726289 2.450055 -1.422928 1.936492 -1.936492 
C 1.422928 -2.450055 0.726289 -2.738613 0 -2.738613 
C -0.726289 -2.738613 -1.422928 -2.450055 -1.936492 -1.936492 
C -2.450055 -1.422928 -2.738613 -0.726289 -2.738613 0 
C -2.738613 0.726289 -2.450055 1.422928 -1.936492 1.936492 
C -1.422928 2.450055 -0.726289 2.738613 0 2.738613 
z
" style="stroke: #06d6a0; stroke-width: 1.6"/>
    </defs>
    <g clip-path="url(#p3ab3c64d89)">
     <use xlink:href="#m5c3080ab7d" x="347.955705" y="208.141948" style="fill: #ffffff; stroke: #06d6a0; stroke-width: 1.6"/>
    </g>
   </g>
   <g id="PathCollection_4">
    <defs>
     <path id="m0d6209b884" d="M 0 2.738613 
C 0.726289 2.738613 1.422928 2.450055 1.936492 1.936492 
C 2.450055 1.422928 2.738613 0.726289 2.738613 0 
C 2.738613 -0.726289 2.450055 -1.422928 1.936492 -1.936492 
C 1.422928 -2.450055 0.726289 -2.738613 0 -2.738613 
C -0.726289 -2.738613 -1.422928 -2.450055 -1.936492 -1.936492 
C -2.450055 -1.422928 -2.738613 -0.726289 -2.738613 0 
C -2.738613 0.726289 -2.450055 1.422928 -1.936492 1.936492 
C -1.422928 2.450055 -0.726289 2.738613 0 2.738613 
z
" style="stroke: #8338ec; stroke-width: 1.6"/>
    </defs>
    <g clip-path="url(#p3ab3c64d89)">
     <use xlink:href="#m0d6209b884" x="347.955705" y="212.914916" style="fill: #ffffff; stroke: #8338ec; stroke-width: 1.6"/>
    </g>
   </g>
   <g id="PathCollection_5">
    <defs>
     <path id="mb6982abb51" d="M 0 2.738613 
C 0.726289 2.738613 1.422928 2.450055 1.936492 1.936492 
C 2.450055 1.422928 2.738613 0.726289 2.738613 0 
C 2.738613 -0.726289 2.450055 -1.422928 1.936492 -1.936492 
C 1.422928 -2.450055 0.726289 -2.738613 0 -2.738613 
C -0.726289 -2.738613 -1.422928 -2.450055 -1.936492 -1.936492 
C -2.450055 -1.422928 -2.738613 -0.726289 -2.738613 0 
C -2.738613 0.726289 -2.450055 1.422928 -1.936492 1.936492 
C -1.422928 2.450055 -0.726289 2.738613 0 2.738613 
z
" style="stroke: #e49b0f; stroke-width: 1.6"/>
    </defs>
    <g clip-path="url(#p3ab3c64d89)">
     <use xlink:href="#mb6982abb51" x="347.955705" y="210.528432" style="fill: #ffffff; stroke: #e49b0f; stroke-width: 1.6"/>
    </g>
   </g>
   <g id="legend_1">
    <g id="line2d_26">
     <path d="M 250.372894 18.6 
L 257.572894 18.6 
L 264.772894 18.6 
" style="fill: none; stroke-dasharray: 7.4,3.2; stroke-dashoffset: 0; stroke: #2e2e2e; stroke-width: 2"/>
    </g>
    <g id="text_13">
     <!-- \textbf{Baseline} -->
     <g transform="translate(268.972894 22.8) scale(0.12 -0.12)">
      <defs>
       <path id="LMRoman12-Bold-42" d="M 4717 1184 
C 4717 1792 4186 2233 3411 2291 
C 4333 2465 4512 2997 4512 3303 
C 4512 3900 3974 4416 2950 4416 
L 250 4416 
L 250 4140 
L 928 4140 
L 928 275 
L 250 275 
L 250 0 
L 3142 0 
C 4198 0 4717 569 4717 1184 
z
M 3667 3309 
C 3667 2854 3418 2387 2669 2387 
L 1715 2387 
L 1715 4140 
L 2874 4140 
C 3533 4140 3667 3634 3667 3309 
z
M 3846 1196 
C 3846 793 3629 275 2893 275 
L 1715 275 
L 1715 2176 
L 2989 2176 
C 3738 2176 3846 1484 3846 1196 
z
" transform="scale(0.015625)"/>
       <path id="LMRoman12-Bold-61" d="M 3462 115 
C 3462 249 3405 249 3315 249 
C 2912 256 2912 358 2912 506 
L 2912 1892 
C 2912 2482 2445 2880 1542 2880 
C 1184 2880 429 2847 429 2309 
C 429 2039 634 1924 806 1924 
C 998 1924 1184 2059 1184 2302 
C 1184 2424 1139 2540 1030 2610 
C 1242 2668 1395 2668 1517 2668 
C 1952 2668 2214 2424 2214 1898 
L 2214 1642 
C 1203 1642 186 1359 186 647 
C 186 64 928 -64 1370 -64 
C 1862 -64 2176 204 2304 487 
C 2304 275 2304 0 2950 0 
L 3277 0 
C 3411 0 3462 0 3462 140 
L 3462 115 
z
M 2214 889 
C 2214 288 1677 172 1472 172 
C 1158 172 896 384 896 678 
C 896 1260 1587 1459 2214 1491 
L 2214 889 
z
" transform="scale(0.015625)"/>
       <path id="LMRoman12-Bold-6c" d="M 1830 0 
L 1830 275 
L 1389 275 
L 1389 4480 
L 282 4416 
L 282 4140 
C 678 4140 723 4140 723 3889 
L 723 275 
L 282 275 
L 282 0 
C 429 12 883 12 1056 12 
C 1229 12 1683 12 1830 0 
z
" transform="scale(0.015625)"/>
       <path id="LMRoman12-Bold-69" d="M 1786 0 
L 1786 275 
L 1389 275 
L 1389 2880 
L 301 2835 
L 301 2560 
C 678 2560 723 2560 723 2309 
L 723 275 
L 282 275 
L 282 0 
C 429 12 870 12 1043 12 
C 1222 12 1632 12 1786 0 
z
M 1466 3891 
C 1466 4153 1248 4352 1005 4352 
C 742 4352 538 4140 538 3891 
C 538 3628 755 3430 998 3430 
C 1261 3430 1466 3641 1466 3891 
z
" transform="scale(0.015625)"/>
       <path id="LMRoman12-Bold-6e" d="M 3840 0 
L 3840 275 
L 3398 275 
L 3398 1958 
C 3398 2566 3136 2880 2432 2880 
C 1971 2880 1574 2656 1357 2176 
L 1350 2176 
L 1350 2880 
L 269 2835 
L 269 2560 
C 666 2560 710 2560 710 2304 
L 710 275 
L 269 275 
L 269 0 
C 416 12 877 12 1056 12 
C 1235 12 1702 12 1850 0 
L 1850 275 
L 1408 275 
L 1408 1638 
C 1408 2329 1920 2668 2330 2668 
C 2566 2668 2701 2515 2701 2028 
L 2701 275 
L 2259 275 
L 2259 0 
C 2406 12 2867 12 3046 12 
C 3226 12 3693 12 3840 0 
z
" transform="scale(0.015625)"/>
      </defs>
      <use xlink:href="#LMRoman12-Bold-42" transform="scale(0.996264)"/>
      <use xlink:href="#LMRoman12-Bold-61" transform="translate(79.676235 0) scale(0.996264)"/>
      <use xlink:href="#LMRoman12-Bold-73" transform="translate(134.159424 0) scale(0.996264)"/>
      <use xlink:href="#LMRoman12-Bold-65" transform="translate(178.368578 0) scale(0.996264)"/>
      <use xlink:href="#LMRoman12-Bold-6c" transform="translate(229.510126 0) scale(0.996264)"/>
      <use xlink:href="#LMRoman12-Bold-69" transform="translate(260.643376 0) scale(0.996264)"/>
      <use xlink:href="#LMRoman12-Bold-6e" transform="translate(291.776626 0) scale(0.996264)"/>
      <use xlink:href="#LMRoman12-Bold-65" transform="translate(354.043127 0) scale(0.996264)"/>
     </g>
    </g>
    <g id="line2d_27">
     <path d="M 250.372894 34.090972 
L 257.572894 34.090972 
L 264.772894 34.090972 
" style="fill: none; stroke: #ef476f; stroke-width: 2; stroke-linecap: square"/>
    </g>
    <g id="text_14">
     <!-- \textbf{TDM (L6)} -->
     <g transform="translate(268.972894 38.290972) scale(0.12 -0.12)">
      <defs>
       <path id="LMRoman12-Bold-44" d="M 5114 2169 
C 5114 3625 4141 4416 2938 4416 
L 243 4416 
L 243 4140 
L 922 4140 
L 922 275 
L 243 275 
L 243 0 
L 2938 0 
C 4166 0 5114 790 5114 2169 
z
M 4243 2175 
C 4243 1421 4147 1086 3923 784 
C 3699 487 3270 275 2694 275 
L 1734 275 
L 1734 4140 
L 2694 4140 
C 3251 4140 3699 3921 3936 3586 
C 4122 3322 4243 3006 4243 2175 
z
" transform="scale(0.015625)"/>
       <path id="LMRoman12-Bold-4d" d="M 6560 0 
L 6560 275 
L 5882 275 
L 5882 4140 
L 6560 4140 
L 6560 4416 
L 5197 4416 
C 5062 4416 5005 4416 4947 4281 
L 3411 816 
L 1875 4281 
C 1818 4416 1760 4416 1626 4416 
L 262 4416 
L 262 4140 
L 941 4140 
L 941 468 
C 941 326 934 320 768 294 
C 653 281 525 275 410 275 
L 262 275 
L 262 0 
C 410 12 909 12 1088 12 
C 1267 12 1773 12 1920 0 
L 1920 275 
L 1773 275 
C 1600 275 1587 275 1434 294 
C 1248 320 1242 326 1242 468 
L 1242 4063 
L 1248 4063 
L 2989 134 
C 3021 64 3059 0 3168 0 
C 3277 0 3315 64 3347 134 
L 5120 4140 
L 5126 4140 
L 5126 275 
L 4448 275 
L 4448 0 
C 4621 12 5286 12 5504 12 
C 5722 12 6387 12 6560 0 
z
" transform="scale(0.015625)"/>
       <path id="LMRoman12-Bold-28" d="M 2394 -1524 
C 2394 -1498 2394 -1485 2272 -1370 
C 1555 -654 1280 471 1280 1596 
C 1280 2856 1594 3892 2310 4614 
C 2387 4691 2394 4697 2394 4723 
C 2394 4800 2317 4800 2285 4800 
C 2227 4800 2214 4800 2048 4665 
C 1126 3930 691 2754 691 1603 
C 691 426 1133 -718 2042 -1460 
C 2208 -1600 2221 -1600 2285 -1600 
C 2317 -1600 2394 -1600 2394 -1524 
z
" transform="scale(0.015625)"/>
       <path id="LMRoman12-Bold-36" d="M 3290 1334 
C 3290 2232 2669 2707 1907 2707 
C 1779 2707 1370 2707 1114 2162 
L 1114 2335 
C 1114 2727 1133 3142 1312 3488 
C 1453 3756 1779 3993 2195 3993 
C 2317 3993 2547 3975 2701 3827 
C 2458 3801 2355 3622 2355 3449 
C 2355 3219 2528 3072 2733 3072 
C 2899 3072 3110 3180 3110 3462 
C 3110 3845 2854 4224 2182 4224 
C 1382 4224 301 3737 301 2046 
C 301 1616 301 -64 1818 -64 
C 2662 -64 3290 435 3290 1334 
z
M 2477 1340 
C 2477 705 2477 192 1811 192 
C 1402 192 1242 538 1216 589 
C 1126 801 1126 1315 1126 1372 
C 1126 2162 1466 2496 1843 2496 
C 2477 2496 2477 1982 2477 1340 
z
" transform="scale(0.015625)"/>
       <path id="LMRoman12-Bold-29" d="M 2099 1596 
C 2099 2773 1658 3917 749 4659 
C 582 4800 570 4800 506 4800 
C 474 4800 397 4800 397 4723 
C 397 4697 397 4684 518 4569 
C 1235 3853 1510 2728 1510 1603 
C 1510 343 1197 -693 480 -1415 
C 403 -1492 397 -1498 397 -1524 
C 397 -1600 474 -1600 506 -1600 
C 563 -1600 576 -1600 742 -1466 
C 1664 -731 2099 445 2099 1596 
z
" transform="scale(0.015625)"/>
      </defs>
      <use xlink:href="#LMRoman12-Bold-54" transform="scale(0.996264)"/>
      <use xlink:href="#LMRoman12-Bold-44" transform="translate(77.949419 0) scale(0.996264)"/>
      <use xlink:href="#LMRoman12-Bold-4d" transform="translate(163.852305 0) scale(0.996264)"/>
      <use xlink:href="#LMRoman12-Bold-28" transform="translate(307.530142 0) scale(0.996264)"/>
      <use xlink:href="#LMRoman12-Bold-4c" transform="translate(351.116693 0) scale(0.996264)"/>
      <use xlink:href="#LMRoman12-Bold-36" transform="translate(418.455739 0) scale(0.996264)"/>
      <use xlink:href="#LMRoman12-Bold-29" transform="translate(474.49559 0) scale(0.996264)"/>
     </g>
    </g>
    <g id="line2d_28">
     <path d="M 250.372894 50.24614 
L 257.572894 50.24614 
L 264.772894 50.24614 
" style="fill: none; stroke: #06d6a0; stroke-width: 2; stroke-linecap: square"/>
    </g>
    <g id="text_15">
     <!-- \textbf{TDM (L5- -L6)} -->
     <g transform="translate(268.972894 54.44614) scale(0.12 -0.12)">
      <defs>
       <path id="LMRoman12-Bold-7b" d="M 3590 1644 
L 3590 1856 
L 0 1856 
L 0 1644 
L 3590 1644 
z
" transform="scale(0.015625)"/>
      </defs>
      <use xlink:href="#LMRoman12-Bold-54" transform="scale(0.996264)"/>
      <use xlink:href="#LMRoman12-Bold-44" transform="translate(77.949419 0) scale(0.996264)"/>
      <use xlink:href="#LMRoman12-Bold-4d" transform="translate(163.852305 0) scale(0.996264)"/>
      <use xlink:href="#LMRoman12-Bold-28" transform="translate(307.530142 0) scale(0.996264)"/>
      <use xlink:href="#LMRoman12-Bold-4c" transform="translate(351.116693 0) scale(0.996264)"/>
      <use xlink:href="#LMRoman12-Bold-35" transform="translate(418.455739 0) scale(0.996264)"/>
      <use xlink:href="#LMRoman12-Bold-7b" transform="translate(474.49559 0) scale(0.996264)"/>
      <use xlink:href="#LMRoman12-Bold-4c" transform="translate(530.53544 0) scale(0.996264)"/>
      <use xlink:href="#LMRoman12-Bold-36" transform="translate(597.874487 0) scale(0.996264)"/>
      <use xlink:href="#LMRoman12-Bold-29" transform="translate(653.914337 0) scale(0.996264)"/>
     </g>
    </g>
    <g id="line2d_29">
     <path d="M 250.372894 66.401308 
L 257.572894 66.401308 
L 264.772894 66.401308 
" style="fill: none; stroke: #e49b0f; stroke-width: 2.3; stroke-linecap: square"/>
    </g>
    <g id="text_16">
     <!-- \textbf{TDM (L4- -L6)} -->
     <g transform="translate(268.972894 70.601308) scale(0.12 -0.12)">
      <use xlink:href="#LMRoman12-Bold-54" transform="scale(0.996264)"/>
      <use xlink:href="#LMRoman12-Bold-44" transform="translate(77.949419 0) scale(0.996264)"/>
      <use xlink:href="#LMRoman12-Bold-4d" transform="translate(163.852305 0) scale(0.996264)"/>
      <use xlink:href="#LMRoman12-Bold-28" transform="translate(307.530142 0) scale(0.996264)"/>
      <use xlink:href="#LMRoman12-Bold-4c" transform="translate(351.116693 0) scale(0.996264)"/>
      <use xlink:href="#LMRoman12-Bold-34" transform="translate(418.455739 0) scale(0.996264)"/>
      <use xlink:href="#LMRoman12-Bold-7b" transform="translate(474.49559 0) scale(0.996264)"/>
      <use xlink:href="#LMRoman12-Bold-4c" transform="translate(530.53544 0) scale(0.996264)"/>
      <use xlink:href="#LMRoman12-Bold-36" transform="translate(597.874487 0) scale(0.996264)"/>
      <use xlink:href="#LMRoman12-Bold-29" transform="translate(653.914337 0) scale(0.996264)"/>
     </g>
    </g>
    <g id="line2d_30">
     <path d="M 250.372894 82.556476 
L 257.572894 82.556476 
L 264.772894 82.556476 
" style="fill: none; stroke: #8338ec; stroke-width: 2; stroke-linecap: square"/>
    </g>
    <g id="text_17">
     <!-- \textbf{TDM (L3- -L6)} -->
     <g transform="translate(268.972894 86.756476) scale(0.12 -0.12)">
      <use xlink:href="#LMRoman12-Bold-54" transform="scale(0.996264)"/>
      <use xlink:href="#LMRoman12-Bold-44" transform="translate(77.949419 0) scale(0.996264)"/>
      <use xlink:href="#LMRoman12-Bold-4d" transform="translate(163.852305 0) scale(0.996264)"/>
      <use xlink:href="#LMRoman12-Bold-28" transform="translate(307.530142 0) scale(0.996264)"/>
      <use xlink:href="#LMRoman12-Bold-4c" transform="translate(351.116693 0) scale(0.996264)"/>
      <use xlink:href="#LMRoman12-Bold-33" transform="translate(418.455739 0) scale(0.996264)"/>
      <use xlink:href="#LMRoman12-Bold-7b" transform="translate(474.49559 0) scale(0.996264)"/>
      <use xlink:href="#LMRoman12-Bold-4c" transform="translate(530.53544 0) scale(0.996264)"/>
      <use xlink:href="#LMRoman12-Bold-36" transform="translate(597.874487 0) scale(0.996264)"/>
      <use xlink:href="#LMRoman12-Bold-29" transform="translate(653.914337 0) scale(0.996264)"/>
     </g>
    </g>
   </g>
  </g>
 </g>
 <defs>
  <clipPath id="p3ab3c64d89">
   <rect x="50.024202" y="7.2" width="309.848764" height="210.010587"/>
  </clipPath>
 </defs>
</svg>
