<?xml version="1.0" encoding="utf-8" standalone="no"?>
<!DOCTYPE svg PUBLIC "-//W3C//DTD SVG 1.1//EN"
  "http://www.w3.org/Graphics/SVG/1.1/DTD/svg11.dtd">
<svg xmlns:xlink="http://www.w3.org/1999/xlink" width="368.39952pt" height="296.39952pt" viewBox="0 0 368.39952 296.39952" xmlns="http://www.w3.org/2000/svg" version="1.1">
 <metadata>
  <rdf:RDF xmlns:dc="http://purl.org/dc/elements/1.1/" xmlns:cc="http://creativecommons.org/ns#" xmlns:rdf="http://www.w3.org/1999/02/22-rdf-syntax-ns#">
   <cc:Work>
    <dc:type rdf:resource="http://purl.org/dc/dcmitype/StillImage"/>
    <dc:date>2026-07-16T15:18:06.273429</dc:date>
    <dc:format>image/svg+xml</dc:format>
    <dc:creator>
     <cc:Agent>
      <dc:title>Matplotlib v3.10.0, https://matplotlib.org/</dc:title>
     </cc:Agent>
    </dc:creator>
   </cc:Work>
  </rdf:RDF>
 </metadata>
 <defs>
  <style type="text/css">*{stroke-linejoin: round; stroke-linecap: butt}</style>
 </defs>
 <g id="figure_1">
  <g id="patch_1">
   <path d="M 0 296.39952 
L 368.39952 296.39952 
L 368.39952 0 
L 0 0 
z
" style="fill: #ffffff"/>
  </g>
  <g id="axes_1">
   <g id="patch_2">
    <path d="M 51.851562 251.688539 
L 361.19952 251.688539 
L 361.19952 7.2 
L 51.851562 7.2 
z
" style="fill: #ffffff"/>
   </g>
   <g id="patch_3">
    <path d="M 51.851562 251.688539 
L 51.851562 7.2 
" style="fill: none; stroke: #000000; stroke-linejoin: miter; stroke-linecap: square"/>
   </g>
   <g id="patch_4">
    <path d="M 361.19952 251.688539 
L 361.19952 7.2 
" style="fill: none; stroke: #000000; stroke-linejoin: miter; stroke-linecap: square"/>
   </g>
   <g id="patch_5">
    <path d="M 51.851562 251.688539 
L 361.19952 251.688539 
" style="fill: none; stroke: #000000; stroke-linejoin: miter; stroke-linecap: square"/>
   </g>
   <g id="patch_6">
    <path d="M 51.851562 7.2 
L 361.19952 7.2 
" style="fill: none; stroke: #000000; stroke-linejoin: miter; stroke-linecap: square"/>
   </g>
   <g id="matplotlib.axis_1">
    <g id="xtick_1">
     <g id="line2d_1">
      <path d="M 79.14697 251.688539 
L 79.14697 7.2 
" clip-path="url(#p142ad9695e)" style="fill: none; stroke-dasharray: 2.96,1.28; stroke-dashoffset: 0; stroke: #b0b0b0; stroke-opacity: 0.35; stroke-width: 0.8"/>
     </g>
     <g id="line2d_2">
      <defs>
       <path id="m2828b237c2" d="M 0 0 
L 0 3.5 
" style="stroke: #000000; stroke-width: 0.8"/>
      </defs>
      <g>
       <use xlink:href="#m2828b237c2" x="79.14697" y="251.688539" style="stroke: #000000; stroke-width: 0.8"/>
      </g>
     </g>
     <g id="text_1">
      <!-- $\mathdefault{0}$ -->
      <g transform="translate(75.50438 267.737248) scale(0.13 -0.13)">
       <defs>
        <path id="LMRoman12-Bold-30" d="M 3309 2060 
C 3309 2677 3309 4224 1798 4224 
C 282 4224 282 2683 282 2060 
C 282 1444 282 -64 1792 -64 
C 3302 -64 3309 1424 3309 2060 
z
M 2541 2137 
C 2541 622 2445 532 2253 339 
C 2125 211 1952 147 1798 147 
C 1594 147 1440 230 1312 365 
C 1152 526 1050 628 1050 2137 
C 1050 2587 1050 2998 1101 3331 
C 1190 3967 1651 4012 1792 4012 
C 1997 4012 2394 3916 2483 3376 
C 2541 3049 2541 2529 2541 2137 
z
" transform="scale(0.015625)"/>
       </defs>
       <use xlink:href="#LMRoman12-Bold-30" transform="scale(0.996264)"/>
      </g>
     </g>
    </g>
    <g id="xtick_2">
     <g id="line2d_3">
      <path d="M 115.540848 251.688539 
L 115.540848 7.2 
" clip-path="url(#p142ad9695e)" style="fill: none; stroke-dasharray: 2.96,1.28; stroke-dashoffset: 0; stroke: #b0b0b0; stroke-opacity: 0.35; stroke-width: 0.8"/>
     </g>
     <g id="line2d_4">
      <g>
       <use xlink:href="#m2828b237c2" x="115.540848" y="251.688539" style="stroke: #000000; stroke-width: 0.8"/>
      </g>
     </g>
     <g id="text_2">
      <!-- $\mathdefault{2}$ -->
      <g transform="translate(111.898257 267.737248) scale(0.13 -0.13)">
       <defs>
        <path id="LMRoman12-Bold-32" d="M 3232 1378 
L 2963 1378 
C 2944 1243 2899 864 2803 800 
C 2752 755 2253 755 2157 755 
L 1165 755 
L 2086 1519 
C 2797 2052 3232 2379 3232 2995 
C 3232 3759 2547 4224 1702 4224 
C 979 4224 358 3806 358 3187 
C 358 2848 634 2752 781 2752 
C 979 2752 1210 2886 1210 3180 
C 1210 3449 1011 3584 813 3610 
C 1069 3921 1408 3948 1542 3948 
C 2131 3948 2413 3449 2413 2988 
C 2413 2488 2074 2026 1811 1750 
L 422 294 
C 358 236 358 224 358 108 
L 358 0 
L 3046 0 
L 3232 1378 
z
" transform="scale(0.015625)"/>
       </defs>
       <use xlink:href="#LMRoman12-Bold-32" transform="scale(0.996264)"/>
      </g>
     </g>
    </g>
    <g id="xtick_3">
     <g id="line2d_5">
      <path d="M 151.934725 251.688539 
L 151.934725 7.2 
" clip-path="url(#p142ad9695e)" style="fill: none; stroke-dasharray: 2.96,1.28; stroke-dashoffset: 0; stroke: #b0b0b0; stroke-opacity: 0.35; stroke-width: 0.8"/>
     </g>
     <g id="line2d_6">
      <g>
       <use xlink:href="#m2828b237c2" x="151.934725" y="251.688539" style="stroke: #000000; stroke-width: 0.8"/>
      </g>
     </g>
     <g id="text_3">
      <!-- $\mathdefault{4}$ -->
      <g transform="translate(148.292135 267.737248) scale(0.13 -0.13)">
       <defs>
        <path id="LMRoman12-Bold-34" d="M 3392 0 
L 3392 275 
L 2771 275 
L 2771 1004 
L 3392 1004 
L 3392 1280 
L 2771 1280 
L 2771 4037 
C 2771 4198 2765 4224 2605 4224 
C 2490 4224 2477 4224 2400 4127 
L 198 1280 
L 198 1004 
L 2016 1004 
L 2016 275 
L 1318 275 
L 1318 0 
C 1504 12 2138 12 2368 12 
C 2586 12 3219 12 3392 0 
z
M 2074 1280 
L 493 1280 
L 2074 3324 
L 2074 1280 
z
" transform="scale(0.015625)"/>
       </defs>
       <use xlink:href="#LMRoman12-Bold-34" transform="scale(0.996264)"/>
      </g>
     </g>
    </g>
    <g id="xtick_4">
     <g id="line2d_7">
      <path d="M 188.328603 251.688539 
L 188.328603 7.2 
" clip-path="url(#p142ad9695e)" style="fill: none; stroke-dasharray: 2.96,1.28; stroke-dashoffset: 0; stroke: #b0b0b0; stroke-opacity: 0.35; stroke-width: 0.8"/>
     </g>
     <g id="line2d_8">
      <g>
       <use xlink:href="#m2828b237c2" x="188.328603" y="251.688539" style="stroke: #000000; stroke-width: 0.8"/>
      </g>
     </g>
     <g id="text_4">
      <!-- $\mathdefault{6}$ -->
      <g transform="translate(184.686012 267.737248) scale(0.13 -0.13)">
       <defs>
        <path id="LMRoman12-Bold-36" d="M 3290 1334 
C 3290 2232 2669 2707 1907 2707 
C 1779 2707 1370 2707 1114 2162 
L 1114 2335 
C 1114 2727 1133 3142 1312 3488 
C 1453 3756 1779 3993 2195 3993 
C 2317 3993 2547 3975 2701 3827 
C 2458 3801 2355 3622 2355 3449 
C 2355 3219 2528 3072 2733 3072 
C 2899 3072 3110 3180 3110 3462 
C 3110 3845 2854 4224 2182 4224 
C 1382 4224 301 3737 301 2046 
C 301 1616 301 -64 1818 -64 
C 2662 -64 3290 435 3290 1334 
z
M 2477 1340 
C 2477 705 2477 192 1811 192 
C 1402 192 1242 538 1216 589 
C 1126 801 1126 1315 1126 1372 
C 1126 2162 1466 2496 1843 2496 
C 2477 2496 2477 1982 2477 1340 
z
" transform="scale(0.015625)"/>
       </defs>
       <use xlink:href="#LMRoman12-Bold-36" transform="scale(0.996264)"/>
      </g>
     </g>
    </g>
    <g id="xtick_5">
     <g id="line2d_9">
      <path d="M 224.72248 251.688539 
L 224.72248 7.2 
" clip-path="url(#p142ad9695e)" style="fill: none; stroke-dasharray: 2.96,1.28; stroke-dashoffset: 0; stroke: #b0b0b0; stroke-opacity: 0.35; stroke-width: 0.8"/>
     </g>
     <g id="line2d_10">
      <g>
       <use xlink:href="#m2828b237c2" x="224.72248" y="251.688539" style="stroke: #000000; stroke-width: 0.8"/>
      </g>
     </g>
     <g id="text_5">
      <!-- $\mathdefault{8}$ -->
      <g transform="translate(221.07989 267.737248) scale(0.13 -0.13)">
       <defs>
        <path id="LMRoman12-Bold-38" d="M 3290 1193 
C 3290 1893 2739 2195 2413 2375 
C 2733 2542 3091 2780 3091 3280 
C 3091 3942 2502 4224 1805 4224 
C 954 4224 499 3736 499 3113 
C 499 2767 672 2381 1146 2131 
C 422 1810 301 1367 301 1033 
C 301 294 941 -64 1786 -64 
C 2733 -64 3290 448 3290 1193 
z
M 2637 3280 
C 2637 3017 2522 2741 2157 2529 
L 1261 3036 
C 1133 3107 954 3255 954 3467 
C 954 3980 1638 3993 1786 3993 
C 2330 3993 2637 3704 2637 3280 
z
M 2778 866 
C 2778 352 2266 192 1805 192 
C 1171 192 813 532 813 1039 
C 813 1508 1101 1803 1408 1977 
L 2291 1469 
C 2502 1347 2778 1193 2778 866 
z
" transform="scale(0.015625)"/>
       </defs>
       <use xlink:href="#LMRoman12-Bold-38" transform="scale(0.996264)"/>
      </g>
     </g>
    </g>
    <g id="xtick_6">
     <g id="line2d_11">
      <path d="M 261.116357 251.688539 
L 261.116357 7.2 
" clip-path="url(#p142ad9695e)" style="fill: none; stroke-dasharray: 2.96,1.28; stroke-dashoffset: 0; stroke: #b0b0b0; stroke-opacity: 0.35; stroke-width: 0.8"/>
     </g>
     <g id="line2d_12">
      <g>
       <use xlink:href="#m2828b237c2" x="261.116357" y="251.688539" style="stroke: #000000; stroke-width: 0.8"/>
      </g>
     </g>
     <g id="text_6">
      <!-- $\mathdefault{10}$ -->
      <g transform="translate(253.831177 267.737248) scale(0.13 -0.13)">
       <defs>
        <path id="LMRoman12-Bold-31" d="M 3091 0 
L 3091 275 
L 2214 275 
L 2214 4029 
C 2214 4224 2202 4224 1997 4224 
C 1523 3795 813 3795 672 3795 
L 550 3795 
L 550 3520 
L 672 3520 
C 896 3520 1235 3558 1491 3641 
L 1491 275 
L 602 275 
L 602 0 
L 1843 12 
L 3091 0 
z
" transform="scale(0.015625)"/>
       </defs>
       <use xlink:href="#LMRoman12-Bold-31" transform="scale(0.996264)"/>
       <use xlink:href="#LMRoman12-Bold-30" transform="translate(56.039851 0) scale(0.996264)"/>
      </g>
     </g>
    </g>
    <g id="xtick_7">
     <g id="line2d_13">
      <path d="M 297.510235 251.688539 
L 297.510235 7.2 
" clip-path="url(#p142ad9695e)" style="fill: none; stroke-dasharray: 2.96,1.28; stroke-dashoffset: 0; stroke: #b0b0b0; stroke-opacity: 0.35; stroke-width: 0.8"/>
     </g>
     <g id="line2d_14">
      <g>
       <use xlink:href="#m2828b237c2" x="297.510235" y="251.688539" style="stroke: #000000; stroke-width: 0.8"/>
      </g>
     </g>
     <g id="text_7">
      <!-- $\mathdefault{12}$ -->
      <g transform="translate(290.225054 267.737248) scale(0.13 -0.13)">
       <use xlink:href="#LMRoman12-Bold-31" transform="scale(0.996264)"/>
       <use xlink:href="#LMRoman12-Bold-32" transform="translate(56.039851 0) scale(0.996264)"/>
      </g>
     </g>
    </g>
    <g id="xtick_8">
     <g id="line2d_15">
      <path d="M 333.904112 251.688539 
L 333.904112 7.2 
" clip-path="url(#p142ad9695e)" style="fill: none; stroke-dasharray: 2.96,1.28; stroke-dashoffset: 0; stroke: #b0b0b0; stroke-opacity: 0.35; stroke-width: 0.8"/>
     </g>
     <g id="line2d_16">
      <g>
       <use xlink:href="#m2828b237c2" x="333.904112" y="251.688539" style="stroke: #000000; stroke-width: 0.8"/>
      </g>
     </g>
     <g id="text_8">
      <!-- $\mathdefault{14}$ -->
      <g transform="translate(326.618931 267.737248) scale(0.13 -0.13)">
       <use xlink:href="#LMRoman12-Bold-31" transform="scale(0.996264)"/>
       <use xlink:href="#LMRoman12-Bold-34" transform="translate(56.039851 0) scale(0.996264)"/>
      </g>
     </g>
    </g>
    <g id="text_9">
     <!-- \textbf{Throughput Drop vs Baseline (\%)} -->
     <g transform="translate(80.580044 285.46353) scale(0.15 -0.15)">
      <defs>
       <path id="LMRoman12-Bold-54" d="M 4736 2828 
L 4608 4352 
L 390 4352 
L 262 2828 
L 531 2828 
C 589 3530 640 4076 1562 4076 
L 2080 4076 
L 2080 275 
L 1114 275 
L 1114 0 
L 2502 12 
L 3891 0 
L 3891 275 
L 2925 275 
L 2925 4076 
L 3437 4076 
C 4358 4076 4410 3536 4467 2828 
L 4736 2828 
z
" transform="scale(0.015625)"/>
       <path id="LMRoman12-Bold-68" d="M 3840 0 
L 3840 275 
L 3398 275 
L 3398 1964 
C 3398 2567 3136 2880 2432 2880 
C 1786 2880 1472 2429 1382 2240 
L 1376 2240 
L 1376 4480 
L 269 4416 
L 269 4140 
C 666 4140 710 4140 710 3885 
L 710 275 
L 269 275 
L 269 0 
C 416 12 877 12 1056 12 
C 1235 12 1702 12 1850 0 
L 1850 275 
L 1408 275 
L 1408 1638 
C 1408 2329 1920 2668 2330 2668 
C 2566 2668 2701 2515 2701 2028 
L 2701 275 
L 2259 275 
L 2259 0 
C 2406 12 2867 12 3046 12 
C 3226 12 3693 12 3840 0 
z
" transform="scale(0.015625)"/>
       <path id="LMRoman12-Bold-72" d="M 2733 2374 
C 2733 2700 2400 2880 2093 2880 
C 1587 2880 1370 2438 1280 2169 
L 1274 2169 
L 1274 2880 
L 224 2835 
L 224 2560 
C 621 2560 666 2560 666 2309 
L 666 275 
L 224 275 
L 224 0 
C 371 12 851 12 1030 12 
C 1216 12 1734 12 1888 0 
L 1888 275 
L 1331 275 
L 1331 1443 
C 1331 1651 1376 2668 2125 2668 
C 2035 2598 1990 2489 1990 2374 
C 1990 2111 2202 2003 2362 2003 
C 2522 2003 2733 2111 2733 2374 
z
" transform="scale(0.015625)"/>
       <path id="LMRoman12-Bold-6f" d="M 3392 1379 
C 3392 2245 2803 2880 1798 2880 
C 755 2880 198 2213 198 1379 
C 198 538 787 -64 1792 -64 
C 2835 -64 3392 570 3392 1379 
z
M 2624 1443 
C 2624 910 2624 166 1798 166 
C 966 166 966 917 966 1443 
C 966 1744 966 2065 1088 2296 
C 1229 2553 1517 2668 1792 2668 
C 2157 2668 2387 2495 2496 2315 
C 2624 2084 2624 1751 2624 1443 
z
" transform="scale(0.015625)"/>
       <path id="LMRoman12-Bold-75" d="M 3840 0 
L 3840 275 
C 3443 275 3398 275 3398 524 
L 3398 2880 
L 2259 2835 
L 2259 2560 
C 2656 2560 2701 2560 2701 2307 
L 2701 1035 
C 2701 542 2413 147 1914 147 
C 1434 147 1408 309 1408 666 
L 1408 2880 
L 269 2835 
L 269 2560 
C 666 2560 710 2560 710 2307 
L 710 769 
C 710 121 1139 -64 1824 -64 
C 1978 -64 2451 -64 2726 458 
L 2733 458 
L 2733 -64 
L 3840 0 
z
" transform="scale(0.015625)"/>
       <path id="LMRoman12-Bold-67" d="M 3488 2547 
C 3488 2700 3373 2905 3104 2905 
C 2829 2905 2566 2771 2432 2655 
C 2170 2822 1920 2880 1594 2880 
C 710 2880 358 2387 358 1939 
C 358 1740 422 1478 691 1260 
C 582 1139 467 915 467 684 
C 467 409 614 172 749 70 
C 595 38 198 -109 198 -474 
C 198 -852 614 -1280 1792 -1280 
C 2854 -1280 3392 -935 3392 -455 
C 3392 108 3021 294 2861 371 
C 2554 524 2144 524 1581 524 
C 1421 524 1139 524 1107 531 
C 832 576 755 823 755 946 
C 755 998 762 1094 832 1177 
C 1139 1011 1498 1011 1594 1011 
C 2477 1011 2829 1499 2829 1939 
C 2829 2260 2643 2486 2566 2549 
C 2752 2650 2906 2675 3014 2688 
C 2995 2656 2976 2631 2976 2549 
C 2976 2417 3066 2298 3232 2298 
C 3398 2298 3488 2417 3488 2549 
L 3488 2547 
z
M 2150 1939 
C 2150 1650 2150 1216 1594 1216 
C 1037 1205 1037 1646 1037 1940 
C 1037 2234 1037 2675 1594 2675 
C 2150 2675 2150 2234 2150 1940 
L 2150 1939 
z
M 2867 -482 
C 2867 -705 2643 -1076 1798 -1076 
C 954 -1076 723 -717 723 -474 
C 723 -64 1126 -64 1222 -64 
L 1952 -64 
C 2419 -64 2867 -148 2867 -481 
L 2867 -482 
z
" transform="scale(0.015625)"/>
       <path id="LMRoman12-Bold-70" d="M 3750 1427 
C 3750 2310 3155 2880 2291 2880 
C 1914 2880 1587 2751 1331 2547 
L 1331 2880 
L 224 2835 
L 224 2560 
C 621 2560 666 2560 666 2307 
L 666 -1005 
L 224 -1005 
L 224 -1280 
C 371 -1268 832 -1268 1011 -1268 
C 1190 -1268 1658 -1268 1805 -1280 
L 1805 -1005 
L 1363 -1005 
L 1363 238 
C 1523 96 1805 -64 2189 -64 
C 3066 -64 3750 471 3750 1418 
L 3750 1427 
z
M 2982 1418 
C 2982 478 2522 147 2112 147 
C 1837 147 1562 289 1363 594 
L 1363 2242 
C 1600 2547 1939 2649 2189 2649 
C 2605 2649 2982 2271 2982 1427 
L 2982 1418 
z
" transform="scale(0.015625)"/>
       <path id="LMRoman12-Bold-74" d="M 2394 768 
L 2394 1107 
L 2125 1107 
L 2125 774 
C 2125 352 1933 166 1734 166 
C 1350 166 1350 595 1350 742 
L 1350 2540 
L 2272 2540 
L 2272 2816 
L 1350 2816 
L 1350 4032 
L 1082 4032 
C 1075 3401 768 2771 134 2751 
L 134 2540 
L 653 2540 
L 653 761 
C 653 83 1178 -64 1638 -64 
C 2112 -64 2394 294 2394 768 
z
" transform="scale(0.015625)"/>
       <path id="LMRoman12-Bold-44" d="M 5114 2169 
C 5114 3625 4141 4416 2938 4416 
L 243 4416 
L 243 4140 
L 922 4140 
L 922 275 
L 243 275 
L 243 0 
L 2938 0 
C 4166 0 5114 790 5114 2169 
z
M 4243 2175 
C 4243 1421 4147 1086 3923 784 
C 3699 487 3270 275 2694 275 
L 1734 275 
L 1734 4140 
L 2694 4140 
C 3251 4140 3699 3921 3936 3586 
C 4122 3322 4243 3006 4243 2175 
z
" transform="scale(0.015625)"/>
       <path id="LMRoman12-Bold-76" d="M 3642 2540 
L 3642 2816 
C 3411 2803 3398 2803 3136 2803 
L 2586 2816 
L 2586 2540 
C 2758 2540 2899 2508 2899 2463 
C 2899 2463 2899 2451 2867 2386 
L 2118 738 
L 1293 2540 
L 1645 2540 
L 1645 2816 
C 1498 2803 1050 2803 877 2803 
C 691 2803 320 2803 154 2816 
L 154 2540 
L 557 2540 
L 1683 89 
C 1741 -32 1754 -64 1901 -64 
C 2003 -64 2054 -52 2112 77 
L 3168 2393 
C 3213 2489 3238 2540 3642 2540 
z
" transform="scale(0.015625)"/>
       <path id="LMRoman12-Bold-73" d="M 2592 880 
C 2592 1190 2426 1392 2298 1501 
C 2035 1707 1818 1744 1472 1805 
C 1062 1871 678 1938 678 2240 
C 678 2687 1248 2687 1382 2687 
C 2093 2687 2131 2208 2144 2048 
C 2150 1969 2202 1969 2278 1969 
C 2413 1969 2413 1987 2413 2131 
L 2413 2713 
C 2413 2835 2413 2880 2317 2880 
C 2278 2880 2266 2880 2170 2822 
C 2144 2803 2074 2758 2042 2739 
C 1862 2841 1626 2880 1395 2880 
C 1203 2880 243 2880 243 2017 
C 243 1379 1037 1246 1235 1216 
C 1408 1183 1619 1145 1645 1145 
C 1901 1087 2157 925 2157 651 
C 2157 147 1574 147 1440 147 
C 1114 147 710 251 531 886 
C 493 1017 486 1023 378 1023 
C 243 1023 243 1004 243 853 
L 243 102 
C 243 -20 243 -64 339 -64 
C 384 -64 397 -64 525 38 
L 691 160 
C 979 -64 1325 -64 1440 -64 
C 1792 -64 2592 12 2592 880 
z
" transform="scale(0.015625)"/>
       <path id="LMRoman12-Bold-42" d="M 4717 1184 
C 4717 1792 4186 2233 3411 2291 
C 4333 2465 4512 2997 4512 3303 
C 4512 3900 3974 4416 2950 4416 
L 250 4416 
L 250 4140 
L 928 4140 
L 928 275 
L 250 275 
L 250 0 
L 3142 0 
C 4198 0 4717 569 4717 1184 
z
M 3667 3309 
C 3667 2854 3418 2387 2669 2387 
L 1715 2387 
L 1715 4140 
L 2874 4140 
C 3533 4140 3667 3634 3667 3309 
z
M 3846 1196 
C 3846 793 3629 275 2893 275 
L 1715 275 
L 1715 2176 
L 2989 2176 
C 3738 2176 3846 1484 3846 1196 
z
" transform="scale(0.015625)"/>
       <path id="LMRoman12-Bold-61" d="M 3462 115 
C 3462 249 3405 249 3315 249 
C 2912 256 2912 358 2912 506 
L 2912 1892 
C 2912 2482 2445 2880 1542 2880 
C 1184 2880 429 2847 429 2309 
C 429 2039 634 1924 806 1924 
C 998 1924 1184 2059 1184 2302 
C 1184 2424 1139 2540 1030 2610 
C 1242 2668 1395 2668 1517 2668 
C 1952 2668 2214 2424 2214 1898 
L 2214 1642 
C 1203 1642 186 1359 186 647 
C 186 64 928 -64 1370 -64 
C 1862 -64 2176 204 2304 487 
C 2304 275 2304 0 2950 0 
L 3277 0 
C 3411 0 3462 0 3462 140 
L 3462 115 
z
M 2214 889 
C 2214 288 1677 172 1472 172 
C 1158 172 896 384 896 678 
C 896 1260 1587 1459 2214 1491 
L 2214 889 
z
" transform="scale(0.015625)"/>
       <path id="LMRoman12-Bold-65" d="M 3078 731 
C 3078 829 2982 829 2944 829 
C 2842 829 2835 809 2797 725 
C 2630 302 2208 166 1901 166 
C 973 166 966 1043 966 1408 
L 2893 1408 
C 3040 1408 3078 1408 3078 1568 
C 3078 1758 3034 2232 2739 2529 
C 2470 2796 2112 2880 1741 2880 
C 742 2880 198 2232 198 1433 
C 198 523 858 -64 1824 -64 
C 2790 -64 3078 621 3078 731 
z
M 2490 1593 
L 966 1593 
C 979 1852 986 2099 1120 2327 
C 1242 2529 1466 2668 1741 2668 
C 2426 2668 2483 1909 2490 1593 
z
" transform="scale(0.015625)"/>
       <path id="LMRoman12-Bold-6c" d="M 1830 0 
L 1830 275 
L 1389 275 
L 1389 4480 
L 282 4416 
L 282 4140 
C 678 4140 723 4140 723 3889 
L 723 275 
L 282 275 
L 282 0 
C 429 12 883 12 1056 12 
C 1229 12 1683 12 1830 0 
z
" transform="scale(0.015625)"/>
       <path id="LMRoman12-Bold-69" d="M 1786 0 
L 1786 275 
L 1389 275 
L 1389 2880 
L 301 2835 
L 301 2560 
C 678 2560 723 2560 723 2309 
L 723 275 
L 282 275 
L 282 0 
C 429 12 870 12 1043 12 
C 1222 12 1632 12 1786 0 
z
M 1466 3891 
C 1466 4153 1248 4352 1005 4352 
C 742 4352 538 4140 538 3891 
C 538 3628 755 3430 998 3430 
C 1261 3430 1466 3641 1466 3891 
z
" transform="scale(0.015625)"/>
       <path id="LMRoman12-Bold-6e" d="M 3840 0 
L 3840 275 
L 3398 275 
L 3398 1958 
C 3398 2566 3136 2880 2432 2880 
C 1971 2880 1574 2656 1357 2176 
L 1350 2176 
L 1350 2880 
L 269 2835 
L 269 2560 
C 666 2560 710 2560 710 2304 
L 710 275 
L 269 275 
L 269 0 
C 416 12 877 12 1056 12 
C 1235 12 1702 12 1850 0 
L 1850 275 
L 1408 275 
L 1408 1638 
C 1408 2329 1920 2668 2330 2668 
C 2566 2668 2701 2515 2701 2028 
L 2701 275 
L 2259 275 
L 2259 0 
C 2406 12 2867 12 3046 12 
C 3226 12 3693 12 3840 0 
z
" transform="scale(0.015625)"/>
       <path id="LMRoman12-Bold-28" d="M 2394 -1524 
C 2394 -1498 2394 -1485 2272 -1370 
C 1555 -654 1280 471 1280 1596 
C 1280 2856 1594 3892 2310 4614 
C 2387 4691 2394 4697 2394 4723 
C 2394 4800 2317 4800 2285 4800 
C 2227 4800 2214 4800 2048 4665 
C 1126 3930 691 2754 691 1603 
C 691 426 1133 -718 2042 -1460 
C 2208 -1600 2221 -1600 2285 -1600 
C 2317 -1600 2394 -1600 2394 -1524 
z
" transform="scale(0.015625)"/>
       <path id="LMRoman12-Bold-25" d="M 4992 4640 
C 4992 4755 4902 4819 4819 4819 
C 4736 4819 4698 4774 4627 4691 
C 4314 4320 3885 4140 3379 4140 
C 2925 4140 2438 4300 2022 4614 
C 1888 4710 1741 4819 1472 4819 
C 947 4819 397 4428 397 3532 
C 397 2592 979 2240 1472 2240 
C 1952 2240 2394 2636 2394 3526 
C 2394 3692 2381 3961 2285 4204 
C 2541 4076 2925 3936 3392 3936 
C 3661 3936 3930 3980 4160 4083 
L 4166 4076 
L 1069 -13 
C 1024 -71 998 -103 998 -161 
C 998 -263 1082 -340 1178 -340 
C 1261 -340 1299 -289 1344 -231 
L 4922 4492 
C 4973 4563 4992 4582 4992 4640 
z
M 5594 947 
C 5594 1875 5126 2240 4672 2240 
C 4147 2240 3597 1849 3597 953 
C 3597 12 4179 -340 4672 -340 
C 5152 -340 5594 57 5594 947 
z
M 2125 3532 
C 2125 2675 1734 2451 1491 2451 
C 1024 2451 1024 3110 1024 3526 
C 1024 3948 1024 4608 1491 4608 
C 1754 4608 2125 4352 2125 3532 
z
M 5325 953 
C 5325 95 4934 -129 4691 -129 
C 4224 -129 4224 531 4224 947 
C 4224 1369 4224 2028 4691 2028 
C 4954 2028 5325 1772 5325 953 
z
" transform="scale(0.015625)"/>
       <path id="LMRoman12-Bold-29" d="M 2099 1596 
C 2099 2773 1658 3917 749 4659 
C 582 4800 570 4800 506 4800 
C 474 4800 397 4800 397 4723 
C 397 4697 397 4684 518 4569 
C 1235 3853 1510 2728 1510 1603 
C 1510 343 1197 -693 480 -1415 
C 403 -1492 397 -1498 397 -1524 
C 397 -1600 474 -1600 506 -1600 
C 563 -1600 576 -1600 742 -1466 
C 1664 -731 2099 445 2099 1596 
z
" transform="scale(0.015625)"/>
      </defs>
      <use xlink:href="#LMRoman12-Bold-54" transform="scale(0.996264)"/>
      <use xlink:href="#LMRoman12-Bold-68" transform="translate(77.949419 0) scale(0.996264)"/>
      <use xlink:href="#LMRoman12-Bold-72" transform="translate(140.21592 0) scale(0.996264)"/>
      <use xlink:href="#LMRoman12-Bold-6f" transform="translate(185.994279 0) scale(0.996264)"/>
      <use xlink:href="#LMRoman12-Bold-75" transform="translate(242.034129 0) scale(0.996264)"/>
      <use xlink:href="#LMRoman12-Bold-67" transform="translate(304.30063 0) scale(0.996264)"/>
      <use xlink:href="#LMRoman12-Bold-68" transform="translate(360.34048 0) scale(0.996264)"/>
      <use xlink:href="#LMRoman12-Bold-70" transform="translate(422.606981 0) scale(0.996264)"/>
      <use xlink:href="#LMRoman12-Bold-75" transform="translate(484.873482 0) scale(0.996264)"/>
      <use xlink:href="#LMRoman12-Bold-74" transform="translate(547.139982 0) scale(0.996264)"/>
      <use xlink:href="#LMRoman12-Bold-44" transform="translate(628.086433 0) scale(0.996264)"/>
      <use xlink:href="#LMRoman12-Bold-72" transform="translate(713.989319 0) scale(0.996264)"/>
      <use xlink:href="#LMRoman12-Bold-6f" transform="translate(759.767677 0) scale(0.996264)"/>
      <use xlink:href="#LMRoman12-Bold-70" transform="translate(815.807528 0) scale(0.996264)"/>
      <use xlink:href="#LMRoman12-Bold-76" transform="translate(915.433929 0) scale(0.996264)"/>
      <use xlink:href="#LMRoman12-Bold-73" transform="translate(974.587104 0) scale(0.996264)"/>
      <use xlink:href="#LMRoman12-Bold-42" transform="translate(1056.156159 0) scale(0.996264)"/>
      <use xlink:href="#LMRoman12-Bold-61" transform="translate(1135.832395 0) scale(0.996264)"/>
      <use xlink:href="#LMRoman12-Bold-73" transform="translate(1190.315583 0) scale(0.996264)"/>
      <use xlink:href="#LMRoman12-Bold-65" transform="translate(1234.524738 0) scale(0.996264)"/>
      <use xlink:href="#LMRoman12-Bold-6c" transform="translate(1285.666285 0) scale(0.996264)"/>
      <use xlink:href="#LMRoman12-Bold-69" transform="translate(1316.799535 0) scale(0.996264)"/>
      <use xlink:href="#LMRoman12-Bold-6e" transform="translate(1347.932786 0) scale(0.996264)"/>
      <use xlink:href="#LMRoman12-Bold-65" transform="translate(1410.199286 0) scale(0.996264)"/>
      <use xlink:href="#LMRoman12-Bold-28" transform="translate(1498.700734 0) scale(0.996264)"/>
      <use xlink:href="#LMRoman12-Bold-25" transform="translate(1542.287284 0) scale(0.996264)"/>
      <use xlink:href="#LMRoman12-Bold-29" transform="translate(1635.687035 0) scale(0.996264)"/>
     </g>
    </g>
   </g>
   <g id="matplotlib.axis_2">
    <g id="ytick_1">
     <g id="line2d_17">
      <path d="M 51.851562 238.590939 
L 361.19952 238.590939 
" clip-path="url(#p142ad9695e)" style="fill: none; stroke-dasharray: 2.96,1.28; stroke-dashoffset: 0; stroke: #b0b0b0; stroke-opacity: 0.35; stroke-width: 0.8"/>
     </g>
     <g id="line2d_18">
      <defs>
       <path id="mdc68343261" d="M 0 0 
L -3.5 0 
" style="stroke: #000000; stroke-width: 0.8"/>
      </defs>
      <g>
       <use xlink:href="#mdc68343261" x="51.851562" y="238.590939" style="stroke: #000000; stroke-width: 0.8"/>
      </g>
     </g>
     <g id="text_10">
      <!-- $\mathdefault{0.0}$ -->
      <g transform="translate(26.14396 243.115293) scale(0.13 -0.13)">
       <defs>
        <path id="LMMathItalic10-Bold-3a" d="M 1517 499 
C 1517 774 1293 998 1018 998 
C 742 998 518 774 518 499 
C 518 224 742 0 1018 0 
C 1293 0 1517 224 1517 499 
z
" transform="scale(0.015625)"/>
       </defs>
       <use xlink:href="#LMRoman12-Bold-30" transform="scale(0.996264)"/>
       <use xlink:href="#LMMathItalic10-Bold-3a" transform="translate(56.039851 0) scale(0.996264)"/>
       <use xlink:href="#LMRoman12-Bold-30" transform="translate(87.864782 0) scale(0.996264)"/>
      </g>
     </g>
    </g>
    <g id="ytick_2">
     <g id="line2d_19">
      <path d="M 51.851562 194.932271 
L 361.19952 194.932271 
" clip-path="url(#p142ad9695e)" style="fill: none; stroke-dasharray: 2.96,1.28; stroke-dashoffset: 0; stroke: #b0b0b0; stroke-opacity: 0.35; stroke-width: 0.8"/>
     </g>
     <g id="line2d_20">
      <g>
       <use xlink:href="#mdc68343261" x="51.851562" y="194.932271" style="stroke: #000000; stroke-width: 0.8"/>
      </g>
     </g>
     <g id="text_11">
      <!-- $\mathdefault{0.5}$ -->
      <g transform="translate(26.14396 199.456625) scale(0.13 -0.13)">
       <defs>
        <path id="LMRoman12-Bold-35" d="M 3232 1286 
C 3232 2067 2701 2624 1824 2624 
C 1568 2624 1261 2572 986 2368 
L 986 3328 
C 1203 3308 1376 3308 1472 3308 
C 1626 3276 1990 3276 2419 3539 
C 2618 3664 2950 3960 2950 4112 
C 2950 4145 2950 4224 2874 4224 
C 2874 4224 2854 4224 2790 4191 
C 2496 4098 2182 4032 1824 4032 
C 1459 4032 1152 4098 851 4200 
C 806 4212 787 4224 768 4224 
C 691 4224 691 4164 691 4062 
L 691 2179 
C 691 2055 691 1984 819 1984 
C 883 1984 896 1991 947 2055 
C 1024 2146 1254 2432 1798 2432 
C 2387 2432 2387 1822 2387 1312 
C 2387 851 2387 192 1600 192 
C 1363 192 960 280 742 640 
C 1082 627 1165 883 1165 1024 
C 1165 1267 998 1440 762 1440 
C 570 1440 358 1324 358 1024 
C 358 469 864 -64 1626 -64 
C 2611 -84 3232 486 3232 1280 
L 3232 1286 
z
" transform="scale(0.015625)"/>
       </defs>
       <use xlink:href="#LMRoman12-Bold-30" transform="scale(0.996264)"/>
       <use xlink:href="#LMMathItalic10-Bold-3a" transform="translate(56.039851 0) scale(0.996264)"/>
       <use xlink:href="#LMRoman12-Bold-35" transform="translate(87.864782 0) scale(0.996264)"/>
      </g>
     </g>
    </g>
    <g id="ytick_3">
     <g id="line2d_21">
      <path d="M 51.851562 151.273603 
L 361.19952 151.273603 
" clip-path="url(#p142ad9695e)" style="fill: none; stroke-dasharray: 2.96,1.28; stroke-dashoffset: 0; stroke: #b0b0b0; stroke-opacity: 0.35; stroke-width: 0.8"/>
     </g>
     <g id="line2d_22">
      <g>
       <use xlink:href="#mdc68343261" x="51.851562" y="151.273603" style="stroke: #000000; stroke-width: 0.8"/>
      </g>
     </g>
     <g id="text_12">
      <!-- $\mathdefault{1.0}$ -->
      <g transform="translate(26.14396 155.797958) scale(0.13 -0.13)">
       <use xlink:href="#LMRoman12-Bold-31" transform="scale(0.996264)"/>
       <use xlink:href="#LMMathItalic10-Bold-3a" transform="translate(56.039851 0) scale(0.996264)"/>
       <use xlink:href="#LMRoman12-Bold-30" transform="translate(87.864782 0) scale(0.996264)"/>
      </g>
     </g>
    </g>
    <g id="ytick_4">
     <g id="line2d_23">
      <path d="M 51.851562 107.614936 
L 361.19952 107.614936 
" clip-path="url(#p142ad9695e)" style="fill: none; stroke-dasharray: 2.96,1.28; stroke-dashoffset: 0; stroke: #b0b0b0; stroke-opacity: 0.35; stroke-width: 0.8"/>
     </g>
     <g id="line2d_24">
      <g>
       <use xlink:href="#mdc68343261" x="51.851562" y="107.614936" style="stroke: #000000; stroke-width: 0.8"/>
      </g>
     </g>
     <g id="text_13">
      <!-- $\mathdefault{1.5}$ -->
      <g transform="translate(26.14396 112.13929) scale(0.13 -0.13)">
       <use xlink:href="#LMRoman12-Bold-31" transform="scale(0.996264)"/>
       <use xlink:href="#LMMathItalic10-Bold-3a" transform="translate(56.039851 0) scale(0.996264)"/>
       <use xlink:href="#LMRoman12-Bold-35" transform="translate(87.864782 0) scale(0.996264)"/>
      </g>
     </g>
    </g>
    <g id="ytick_5">
     <g id="line2d_25">
      <path d="M 51.851562 63.956268 
L 361.19952 63.956268 
" clip-path="url(#p142ad9695e)" style="fill: none; stroke-dasharray: 2.96,1.28; stroke-dashoffset: 0; stroke: #b0b0b0; stroke-opacity: 0.35; stroke-width: 0.8"/>
     </g>
     <g id="line2d_26">
      <g>
       <use xlink:href="#mdc68343261" x="51.851562" y="63.956268" style="stroke: #000000; stroke-width: 0.8"/>
      </g>
     </g>
     <g id="text_14">
      <!-- $\mathdefault{2.0}$ -->
      <g transform="translate(26.14396 68.480622) scale(0.13 -0.13)">
       <use xlink:href="#LMRoman12-Bold-32" transform="scale(0.996264)"/>
       <use xlink:href="#LMMathItalic10-Bold-3a" transform="translate(56.039851 0) scale(0.996264)"/>
       <use xlink:href="#LMRoman12-Bold-30" transform="translate(87.864782 0) scale(0.996264)"/>
      </g>
     </g>
    </g>
    <g id="ytick_6">
     <g id="line2d_27">
      <path d="M 51.851562 20.2976 
L 361.19952 20.2976 
" clip-path="url(#p142ad9695e)" style="fill: none; stroke-dasharray: 2.96,1.28; stroke-dashoffset: 0; stroke: #b0b0b0; stroke-opacity: 0.35; stroke-width: 0.8"/>
     </g>
     <g id="line2d_28">
      <g>
       <use xlink:href="#mdc68343261" x="51.851562" y="20.2976" style="stroke: #000000; stroke-width: 0.8"/>
      </g>
     </g>
     <g id="text_15">
      <!-- $\mathdefault{2.5}$ -->
      <g transform="translate(26.14396 24.821955) scale(0.13 -0.13)">
       <use xlink:href="#LMRoman12-Bold-32" transform="scale(0.996264)"/>
       <use xlink:href="#LMMathItalic10-Bold-3a" transform="translate(56.039851 0) scale(0.996264)"/>
       <use xlink:href="#LMRoman12-Bold-35" transform="translate(87.864782 0) scale(0.996264)"/>
      </g>
     </g>
    </g>
    <g id="text_16">
     <!-- \textbf{BLEU Gain vs Baseline (\%)} -->
     <g transform="translate(18.40797 233.038237) rotate(-90) scale(0.15 -0.15)">
      <defs>
       <path id="LMRoman12-Bold-4c" d="M 4019 1737 
L 3750 1737 
C 3706 1293 3603 275 2451 275 
L 1766 275 
L 1766 4140 
L 2618 4140 
L 2618 4416 
L 1395 4403 
C 1158 4403 429 4403 243 4416 
L 243 4140 
L 922 4140 
L 922 275 
L 243 275 
L 243 0 
L 3834 0 
L 4019 1737 
z
" transform="scale(0.015625)"/>
       <path id="LMRoman12-Bold-45" d="M 4518 1717 
L 4250 1717 
C 4115 770 3878 275 2765 275 
L 1766 275 
L 1766 2112 
L 2144 2112 
C 2758 2112 2822 1851 2822 1368 
L 3091 1368 
L 3091 3138 
L 2822 3138 
C 2822 2657 2758 2387 2144 2387 
L 1766 2387 
L 1766 4076 
L 2765 4076 
C 3744 4076 3955 3661 4051 2837 
L 4320 2837 
L 4134 4352 
L 243 4352 
L 243 4076 
L 922 4076 
L 922 275 
L 243 275 
L 243 0 
L 4243 0 
L 4518 1717 
z
" transform="scale(0.015625)"/>
       <path id="LMRoman12-Bold-55" d="M 5286 4140 
L 5286 4416 
C 5139 4403 4640 4403 4461 4403 
C 4282 4403 3782 4403 3635 4416 
L 3635 4140 
L 3782 4140 
C 3955 4140 3968 4140 4122 4121 
C 4307 4095 4314 4089 4314 3948 
L 4314 1501 
C 4314 583 3667 211 2912 211 
C 1792 211 1766 1071 1766 1444 
L 1766 4140 
L 2445 4140 
L 2445 4416 
C 2259 4403 1574 4403 1344 4403 
C 1114 4403 429 4403 243 4416 
L 243 4140 
L 922 4140 
L 922 1488 
C 922 641 1600 -64 2886 -64 
C 4070 -64 4608 673 4608 1482 
L 4608 3948 
C 4608 4089 4614 4095 4781 4121 
C 4896 4134 5024 4140 5139 4140 
L 5286 4140 
z
" transform="scale(0.015625)"/>
       <path id="LMRoman12-Bold-47" d="M 5293 1472 
L 5293 1747 
C 5139 1734 4454 1734 4250 1734 
L 3046 1747 
L 3046 1472 
L 3949 1472 
L 3949 825 
C 3949 692 3949 515 3693 356 
C 3565 274 3366 211 3098 211 
C 2733 211 2099 299 1702 762 
C 1453 1047 1299 1434 1299 2204 
C 1299 2866 1408 3317 1696 3657 
C 2106 4140 2746 4204 3053 4204 
C 3533 4204 4307 3934 4499 2802 
C 4512 2744 4570 2744 4646 2744 
C 4794 2744 4794 2757 4794 2911 
L 4794 4313 
C 4794 4460 4794 4480 4653 4480 
L 4173 4018 
C 3814 4326 3386 4480 2912 4480 
C 1382 4480 397 3548 397 2197 
C 397 882 1350 -64 2918 -64 
C 3347 -64 3853 32 4115 369 
C 4333 166 4698 12 4717 12 
C 4794 12 4794 76 4794 179 
L 4794 1472 
L 5293 1472 
z
" transform="scale(0.015625)"/>
      </defs>
      <use xlink:href="#LMRoman12-Bold-42" transform="scale(0.996264)"/>
      <use xlink:href="#LMRoman12-Bold-4c" transform="translate(79.676235 0) scale(0.996264)"/>
      <use xlink:href="#LMRoman12-Bold-45" transform="translate(147.015282 0) scale(0.996264)"/>
      <use xlink:href="#LMRoman12-Bold-55" transform="translate(220.580979 0) scale(0.996264)"/>
      <use xlink:href="#LMRoman12-Bold-47" transform="translate(344.076169 0) scale(0.996264)"/>
      <use xlink:href="#LMRoman12-Bold-61" transform="translate(432.170772 0) scale(0.996264)"/>
      <use xlink:href="#LMRoman12-Bold-69" transform="translate(486.65396 0) scale(0.996264)"/>
      <use xlink:href="#LMRoman12-Bold-6e" transform="translate(517.78721 0) scale(0.996264)"/>
      <use xlink:href="#LMRoman12-Bold-76" transform="translate(617.413611 0) scale(0.996264)"/>
      <use xlink:href="#LMRoman12-Bold-73" transform="translate(676.566787 0) scale(0.996264)"/>
      <use xlink:href="#LMRoman12-Bold-42" transform="translate(758.135842 0) scale(0.996264)"/>
      <use xlink:href="#LMRoman12-Bold-61" transform="translate(837.812077 0) scale(0.996264)"/>
      <use xlink:href="#LMRoman12-Bold-73" transform="translate(892.295265 0) scale(0.996264)"/>
      <use xlink:href="#LMRoman12-Bold-65" transform="translate(936.50442 0) scale(0.996264)"/>
      <use xlink:href="#LMRoman12-Bold-6c" transform="translate(987.645968 0) scale(0.996264)"/>
      <use xlink:href="#LMRoman12-Bold-69" transform="translate(1018.779218 0) scale(0.996264)"/>
      <use xlink:href="#LMRoman12-Bold-6e" transform="translate(1049.912468 0) scale(0.996264)"/>
      <use xlink:href="#LMRoman12-Bold-65" transform="translate(1112.178969 0) scale(0.996264)"/>
      <use xlink:href="#LMRoman12-Bold-28" transform="translate(1200.680417 0) scale(0.996264)"/>
      <use xlink:href="#LMRoman12-Bold-25" transform="translate(1244.266967 0) scale(0.996264)"/>
      <use xlink:href="#LMRoman12-Bold-29" transform="translate(1337.666718 0) scale(0.996264)"/>
     </g>
    </g>
   </g>
   <g id="text_17">
    <!-- \textbf{0.00\%} -->
    <g transform="translate(65.499266 231.126893) scale(0.12 -0.12)">
     <defs>
      <path id="LMRoman12-Bold-2e" d="M 1459 460 
C 1459 723 1248 921 998 921 
C 749 921 538 723 538 460 
C 538 198 749 0 998 0 
C 1248 0 1459 198 1459 460 
z
" transform="scale(0.015625)"/>
     </defs>
     <use xlink:href="#LMRoman12-Bold-30" transform="scale(0.996264)"/>
     <use xlink:href="#LMRoman12-Bold-2e" transform="translate(56.039851 0) scale(0.996264)"/>
     <use xlink:href="#LMRoman12-Bold-30" transform="translate(87.173101 0) scale(0.996264)"/>
     <use xlink:href="#LMRoman12-Bold-30" transform="translate(143.212951 0) scale(0.996264)"/>
     <use xlink:href="#LMRoman12-Bold-25" transform="translate(199.252802 0) scale(0.996264)"/>
    </g>
   </g>
   <g id="text_18">
    <!-- \textbf{6.05\%} -->
    <g transform="translate(142.836256 161.273025) scale(0.12 -0.12)">
     <use xlink:href="#LMRoman12-Bold-36" transform="scale(0.996264)"/>
     <use xlink:href="#LMRoman12-Bold-2e" transform="translate(56.039851 0) scale(0.996264)"/>
     <use xlink:href="#LMRoman12-Bold-30" transform="translate(87.173101 0) scale(0.996264)"/>
     <use xlink:href="#LMRoman12-Bold-35" transform="translate(143.212951 0) scale(0.996264)"/>
     <use xlink:href="#LMRoman12-Bold-25" transform="translate(199.252802 0) scale(0.996264)"/>
    </g>
   </g>
   <g id="text_19">
    <!-- \textbf{8.37\%} -->
    <g transform="translate(183.23346 103.643583) scale(0.12 -0.12)">
     <defs>
      <path id="LMRoman12-Bold-33" d="M 3290 1164 
C 3290 1479 3130 2092 2138 2265 
C 2701 2436 3091 2824 3091 3327 
C 3091 3812 2630 4224 1741 4224 
C 1024 4224 499 3839 499 3315 
C 499 2995 749 2892 915 2892 
C 1101 2892 1325 3014 1325 3308 
C 1325 3455 1261 3673 960 3718 
C 1229 3993 1664 3993 1702 3993 
C 2272 3993 2272 3539 2272 3347 
C 2272 3155 2246 2861 2042 2605 
C 1875 2392 1709 2380 1466 2368 
C 1389 2361 1261 2355 1235 2342 
C 1197 2323 1197 2278 1197 2252 
C 1197 2143 1235 2143 1363 2143 
L 1670 2143 
C 2387 2143 2387 1473 2387 1164 
C 2387 876 2387 192 1696 192 
C 1562 192 1139 211 832 434 
C 1107 492 1203 691 1203 883 
C 1203 1145 1018 1331 755 1331 
C 486 1324 301 1139 301 870 
C 301 281 941 -64 1728 -64 
C 2784 -64 3290 518 3290 1158 
L 3290 1164 
z
" transform="scale(0.015625)"/>
      <path id="LMRoman12-Bold-37" d="M 3488 4147 
L 2138 4147 
C 2093 4147 1139 4179 1062 4192 
C 902 4217 890 4288 877 4352 
L 608 4352 
L 397 2768 
L 666 2768 
C 672 2833 723 3282 832 3353 
C 890 3392 1421 3392 1523 3392 
L 2682 3392 
C 1939 2486 1856 2383 1658 2004 
C 1280 1259 1222 681 1222 366 
C 1222 -64 1549 -64 1600 -64 
C 1760 -64 1850 19 1894 64 
C 1978 167 1978 244 1978 526 
C 1978 1509 2067 2229 2470 2711 
L 3430 3859 
C 3488 3923 3488 3936 3488 4147 
z
" transform="scale(0.015625)"/>
     </defs>
     <use xlink:href="#LMRoman12-Bold-38" transform="scale(0.996264)"/>
     <use xlink:href="#LMRoman12-Bold-2e" transform="translate(56.039851 0) scale(0.996264)"/>
     <use xlink:href="#LMRoman12-Bold-33" transform="translate(87.173101 0) scale(0.996264)"/>
     <use xlink:href="#LMRoman12-Bold-37" transform="translate(143.212951 0) scale(0.996264)"/>
     <use xlink:href="#LMRoman12-Bold-25" transform="translate(199.252802 0) scale(0.996264)"/>
    </g>
   </g>
   <g id="text_20">
    <!-- \textbf{12.70\%} -->
    <g transform="translate(251.108041 66.533716) scale(0.12 -0.12)">
     <use xlink:href="#LMRoman12-Bold-31" transform="scale(0.996264)"/>
     <use xlink:href="#LMRoman12-Bold-32" transform="translate(56.039851 0) scale(0.996264)"/>
     <use xlink:href="#LMRoman12-Bold-2e" transform="translate(112.079701 0) scale(0.996264)"/>
     <use xlink:href="#LMRoman12-Bold-37" transform="translate(143.212951 0) scale(0.996264)"/>
     <use xlink:href="#LMRoman12-Bold-30" transform="translate(199.252802 0) scale(0.996264)"/>
     <use xlink:href="#LMRoman12-Bold-25" transform="translate(255.292653 0) scale(0.996264)"/>
    </g>
   </g>
   <g id="text_21">
    <!-- \textbf{17.84\%} -->
    <g transform="translate(312.249755 60.421502) scale(0.12 -0.12)">
     <use xlink:href="#LMRoman12-Bold-31" transform="scale(0.996264)"/>
     <use xlink:href="#LMRoman12-Bold-37" transform="translate(56.039851 0) scale(0.996264)"/>
     <use xlink:href="#LMRoman12-Bold-2e" transform="translate(112.079701 0) scale(0.996264)"/>
     <use xlink:href="#LMRoman12-Bold-38" transform="translate(143.212951 0) scale(0.996264)"/>
     <use xlink:href="#LMRoman12-Bold-34" transform="translate(199.252802 0) scale(0.996264)"/>
     <use xlink:href="#LMRoman12-Bold-25" transform="translate(255.292653 0) scale(0.996264)"/>
    </g>
   </g>
   <g id="PathCollection_1">
    <defs>
     <path id="mab4b37d4d0" d="M 0 6.324555 
C 1.677292 6.324555 3.286112 5.65816 4.472136 4.472136 
C 5.65816 3.286112 6.324555 1.677292 6.324555 0 
C 6.324555 -1.677292 5.65816 -3.286112 4.472136 -4.472136 
C 3.286112 -5.65816 1.677292 -6.324555 0 -6.324555 
C -1.677292 -6.324555 -3.286112 -5.65816 -4.472136 -4.472136 
C -5.65816 -3.286112 -6.324555 -1.677292 -6.324555 0 
C -6.324555 1.677292 -5.65816 3.286112 -4.472136 4.472136 
C -3.286112 5.65816 -1.677292 6.324555 0 6.324555 
z
" style="stroke: #000000; stroke-width: 0.6"/>
    </defs>
    <g clip-path="url(#p142ad9695e)">
     <use xlink:href="#mab4b37d4d0" x="79.14697" y="238.590939" style="fill: #2e2e2e; stroke: #000000; stroke-width: 0.6"/>
    </g>
   </g>
   <g id="PathCollection_2">
    <defs>
     <path id="mfb48573098" d="M 0 12.815524 
C 3.398717 12.815524 6.658689 11.4652 9.061944 9.061944 
C 11.4652 6.658689 12.815524 3.398717 12.815524 0 
C 12.815524 -3.398717 11.4652 -6.658689 9.061944 -9.061944 
C 6.658689 -11.4652 3.398717 -12.815524 0 -12.815524 
C -3.398717 -12.815524 -6.658689 -11.4652 -9.061944 -9.061944 
C -11.4652 -6.658689 -12.815524 -3.398717 -12.815524 0 
C -12.815524 3.398717 -11.4652 6.658689 -9.061944 9.061944 
C -6.658689 11.4652 -3.398717 12.815524 0 12.815524 
z
" style="stroke: #000000; stroke-width: 0.6"/>
    </defs>
    <g clip-path="url(#p142ad9695e)">
     <use xlink:href="#mfb48573098" x="155.574113" y="139.049176" style="fill: #ef476f; stroke: #000000; stroke-width: 0.6"/>
    </g>
   </g>
   <g id="PathCollection_3">
    <defs>
     <path id="m7fe1d06de1" d="M 0 14.256617 
C 3.780899 14.256617 7.407451 12.75445 10.08095 10.08095 
C 12.75445 7.407451 14.256617 3.780899 14.256617 0 
C 14.256617 -3.780899 12.75445 -7.407451 10.08095 -10.08095 
C 7.407451 -12.75445 3.780899 -14.256617 0 -14.256617 
C -3.780899 -14.256617 -7.407451 -12.75445 -10.08095 -10.08095 
C -12.75445 -7.407451 -14.256617 -3.780899 -14.256617 0 
C -14.256617 3.780899 -12.75445 7.407451 -10.08095 10.08095 
C -7.407451 12.75445 -3.780899 14.256617 0 14.256617 
z
" style="stroke: #000000; stroke-width: 0.6"/>
    </defs>
    <g clip-path="url(#p142ad9695e)">
     <use xlink:href="#m7fe1d06de1" x="195.971317" y="79.673388" style="fill: #06d6a0; stroke: #000000; stroke-width: 0.6"/>
    </g>
   </g>
   <g id="PathCollection_4">
    <defs>
     <path id="m7c0fc9b8b7" d="M 0 19.039433 
C 5.049317 19.039433 9.892506 17.033318 13.462912 13.462912 
C 17.033318 9.892506 19.039433 5.049317 19.039433 0 
C 19.039433 -5.049317 17.033318 -9.892506 13.462912 -13.462912 
C 9.892506 -17.033318 5.049317 -19.039433 0 -19.039433 
C -5.049317 -19.039433 -9.892506 -17.033318 -13.462912 -13.462912 
C -17.033318 -9.892506 -19.039433 -5.049317 -19.039433 0 
C -19.039433 5.049317 -17.033318 9.892506 -13.462912 13.462912 
C -9.892506 17.033318 -5.049317 19.039433 0 19.039433 
z
" style="stroke: #000000; stroke-width: 0.6"/>
    </defs>
    <g clip-path="url(#p142ad9695e)">
     <use xlink:href="#m7c0fc9b8b7" x="330.446694" y="31.648854" style="fill: #8338ec; stroke: #000000; stroke-width: 0.6"/>
    </g>
   </g>
   <g id="legend_1">
    <g id="line2d_29">
     <defs>
      <path id="m646df09e96" d="M 0 4.5 
C 1.193414 4.5 2.338109 4.025852 3.181981 3.181981 
C 4.025852 2.338109 4.5 1.193414 4.5 0 
C 4.5 -1.193414 4.025852 -2.338109 3.181981 -3.181981 
C 2.338109 -4.025852 1.193414 -4.5 0 -4.5 
C -1.193414 -4.5 -2.338109 -4.025852 -3.181981 -3.181981 
C -4.025852 -2.338109 -4.5 -1.193414 -4.5 0 
C -4.5 1.193414 -4.025852 2.338109 -3.181981 3.181981 
C -2.338109 4.025852 -1.193414 4.5 0 4.5 
z
" style="stroke: #000000; stroke-width: 0.6"/>
     </defs>
     <g>
      <use xlink:href="#m646df09e96" x="65.051562" y="18.6" style="fill: #2e2e2e; stroke: #000000; stroke-width: 0.6"/>
     </g>
    </g>
    <g id="text_22">
     <!-- \textbf{Baseline} -->
     <g transform="translate(73.451562 22.8) scale(0.12 -0.12)">
      <use xlink:href="#LMRoman12-Bold-42" transform="scale(0.996264)"/>
      <use xlink:href="#LMRoman12-Bold-61" transform="translate(79.676235 0) scale(0.996264)"/>
      <use xlink:href="#LMRoman12-Bold-73" transform="translate(134.159424 0) scale(0.996264)"/>
      <use xlink:href="#LMRoman12-Bold-65" transform="translate(178.368578 0) scale(0.996264)"/>
      <use xlink:href="#LMRoman12-Bold-6c" transform="translate(229.510126 0) scale(0.996264)"/>
      <use xlink:href="#LMRoman12-Bold-69" transform="translate(260.643376 0) scale(0.996264)"/>
      <use xlink:href="#LMRoman12-Bold-6e" transform="translate(291.776626 0) scale(0.996264)"/>
      <use xlink:href="#LMRoman12-Bold-65" transform="translate(354.043127 0) scale(0.996264)"/>
     </g>
    </g>
    <g id="line2d_30">
     <defs>
      <path id="m0147ab46f8" d="M 0 4.5 
C 1.193414 4.5 2.338109 4.025852 3.181981 3.181981 
C 4.025852 2.338109 4.5 1.193414 4.5 0 
C 4.5 -1.193414 4.025852 -2.338109 3.181981 -3.181981 
C 2.338109 -4.025852 1.193414 -4.5 0 -4.5 
C -1.193414 -4.5 -2.338109 -4.025852 -3.181981 -3.181981 
C -4.025852 -2.338109 -4.5 -1.193414 -4.5 0 
C -4.5 1.193414 -4.025852 2.338109 -3.181981 3.181981 
C -2.338109 4.025852 -1.193414 4.5 0 4.5 
z
" style="stroke: #000000; stroke-width: 0.6"/>
     </defs>
     <g>
      <use xlink:href="#m0147ab46f8" x="65.051562" y="32.924596" style="fill: #ef476f; stroke: #000000; stroke-width: 0.6"/>
     </g>
    </g>
    <g id="text_23">
     <!-- \textbf{TDM L6} -->
     <g transform="translate(73.451562 37.124596) scale(0.12 -0.12)">
      <defs>
       <path id="LMRoman12-Bold-4d" d="M 6560 0 
L 6560 275 
L 5882 275 
L 5882 4140 
L 6560 4140 
L 6560 4416 
L 5197 4416 
C 5062 4416 5005 4416 4947 4281 
L 3411 816 
L 1875 4281 
C 1818 4416 1760 4416 1626 4416 
L 262 4416 
L 262 4140 
L 941 4140 
L 941 468 
C 941 326 934 320 768 294 
C 653 281 525 275 410 275 
L 262 275 
L 262 0 
C 410 12 909 12 1088 12 
C 1267 12 1773 12 1920 0 
L 1920 275 
L 1773 275 
C 1600 275 1587 275 1434 294 
C 1248 320 1242 326 1242 468 
L 1242 4063 
L 1248 4063 
L 2989 134 
C 3021 64 3059 0 3168 0 
C 3277 0 3315 64 3347 134 
L 5120 4140 
L 5126 4140 
L 5126 275 
L 4448 275 
L 4448 0 
C 4621 12 5286 12 5504 12 
C 5722 12 6387 12 6560 0 
z
" transform="scale(0.015625)"/>
      </defs>
      <use xlink:href="#LMRoman12-Bold-54" transform="scale(0.996264)"/>
      <use xlink:href="#LMRoman12-Bold-44" transform="translate(77.949419 0) scale(0.996264)"/>
      <use xlink:href="#LMRoman12-Bold-4d" transform="translate(163.852305 0) scale(0.996264)"/>
      <use xlink:href="#LMRoman12-Bold-4c" transform="translate(307.530142 0) scale(0.996264)"/>
      <use xlink:href="#LMRoman12-Bold-36" transform="translate(374.869189 0) scale(0.996264)"/>
     </g>
    </g>
    <g id="line2d_31">
     <defs>
      <path id="m3122251b74" d="M 0 4.5 
C 1.193414 4.5 2.338109 4.025852 3.181981 3.181981 
C 4.025852 2.338109 4.5 1.193414 4.5 0 
C 4.5 -1.193414 4.025852 -2.338109 3.181981 -3.181981 
C 2.338109 -4.025852 1.193414 -4.5 0 -4.5 
C -1.193414 -4.5 -2.338109 -4.025852 -3.181981 -3.181981 
C -4.025852 -2.338109 -4.5 -1.193414 -4.5 0 
C -4.5 1.193414 -4.025852 2.338109 -3.181981 3.181981 
C -2.338109 4.025852 -1.193414 4.5 0 4.5 
z
" style="stroke: #000000; stroke-width: 0.6"/>
     </defs>
     <g>
      <use xlink:href="#m3122251b74" x="65.051562" y="47.249192" style="fill: #06d6a0; stroke: #000000; stroke-width: 0.6"/>
     </g>
    </g>
    <g id="text_24">
     <!-- \textbf{TDM L5-L6} -->
     <g transform="translate(73.451562 51.449192) scale(0.12 -0.12)">
      <defs>
       <path id="LMRoman12-Bold-2d" d="M 1997 1139 
L 1997 1728 
L 77 1728 
L 77 1139 
L 1997 1139 
z
" transform="scale(0.015625)"/>
      </defs>
      <use xlink:href="#LMRoman12-Bold-54" transform="scale(0.996264)"/>
      <use xlink:href="#LMRoman12-Bold-44" transform="translate(77.949419 0) scale(0.996264)"/>
      <use xlink:href="#LMRoman12-Bold-4d" transform="translate(163.852305 0) scale(0.996264)"/>
      <use xlink:href="#LMRoman12-Bold-4c" transform="translate(307.530142 0) scale(0.996264)"/>
      <use xlink:href="#LMRoman12-Bold-35" transform="translate(374.869189 0) scale(0.996264)"/>
      <use xlink:href="#LMRoman12-Bold-2d" transform="translate(430.909039 0) scale(0.996264)"/>
      <use xlink:href="#LMRoman12-Bold-4c" transform="translate(468.26894 0) scale(0.996264)"/>
      <use xlink:href="#LMRoman12-Bold-36" transform="translate(535.607986 0) scale(0.996264)"/>
     </g>
    </g>
    <g id="line2d_32">
     <defs>
      <path id="mdcc1f6c419" d="M 0 4.5 
C 1.193414 4.5 2.338109 4.025852 3.181981 3.181981 
C 4.025852 2.338109 4.5 1.193414 4.5 0 
C 4.5 -1.193414 4.025852 -2.338109 3.181981 -3.181981 
C 2.338109 -4.025852 1.193414 -4.5 0 -4.5 
C -1.193414 -4.5 -2.338109 -4.025852 -3.181981 -3.181981 
C -4.025852 -2.338109 -4.5 -1.193414 -4.5 0 
C -4.5 1.193414 -4.025852 2.338109 -3.181981 3.181981 
C -2.338109 4.025852 -1.193414 4.5 0 4.5 
z
" style="stroke: #000000; stroke-width: 0.6"/>
     </defs>
     <g>
      <use xlink:href="#mdcc1f6c419" x="65.051562" y="61.573787" style="fill: #e49b0f; stroke: #000000; stroke-width: 0.6"/>
     </g>
    </g>
    <g id="text_25">
     <!-- \textbf{TDM L4-L6} -->
     <g transform="translate(73.451562 65.773787) scale(0.12 -0.12)">
      <use xlink:href="#LMRoman12-Bold-54" transform="scale(0.996264)"/>
      <use xlink:href="#LMRoman12-Bold-44" transform="translate(77.949419 0) scale(0.996264)"/>
      <use xlink:href="#LMRoman12-Bold-4d" transform="translate(163.852305 0) scale(0.996264)"/>
      <use xlink:href="#LMRoman12-Bold-4c" transform="translate(307.530142 0) scale(0.996264)"/>
      <use xlink:href="#LMRoman12-Bold-34" transform="translate(374.869189 0) scale(0.996264)"/>
      <use xlink:href="#LMRoman12-Bold-2d" transform="translate(430.909039 0) scale(0.996264)"/>
      <use xlink:href="#LMRoman12-Bold-4c" transform="translate(468.26894 0) scale(0.996264)"/>
      <use xlink:href="#LMRoman12-Bold-36" transform="translate(535.607986 0) scale(0.996264)"/>
     </g>
    </g>
    <g id="line2d_33">
     <defs>
      <path id="m3cdb7cf88a" d="M 0 4.5 
C 1.193414 4.5 2.338109 4.025852 3.181981 3.181981 
C 4.025852 2.338109 4.5 1.193414 4.5 0 
C 4.5 -1.193414 4.025852 -2.338109 3.181981 -3.181981 
C 2.338109 -4.025852 1.193414 -4.5 0 -4.5 
C -1.193414 -4.5 -2.338109 -4.025852 -3.181981 -3.181981 
C -4.025852 -2.338109 -4.5 -1.193414 -4.5 0 
C -4.5 1.193414 -4.025852 2.338109 -3.181981 3.181981 
C -2.338109 4.025852 -1.193414 4.5 0 4.5 
z
" style="stroke: #000000; stroke-width: 0.6"/>
     </defs>
     <g>
      <use xlink:href="#m3cdb7cf88a" x="65.051562" y="75.898383" style="fill: #8338ec; stroke: #000000; stroke-width: 0.6"/>
     </g>
    </g>
    <g id="text_26">
     <!-- \textbf{TDM L3-L6} -->
     <g transform="translate(73.451562 80.098383) scale(0.12 -0.12)">
      <use xlink:href="#LMRoman12-Bold-54" transform="scale(0.996264)"/>
      <use xlink:href="#LMRoman12-Bold-44" transform="translate(77.949419 0) scale(0.996264)"/>
      <use xlink:href="#LMRoman12-Bold-4d" transform="translate(163.852305 0) scale(0.996264)"/>
      <use xlink:href="#LMRoman12-Bold-4c" transform="translate(307.530142 0) scale(0.996264)"/>
      <use xlink:href="#LMRoman12-Bold-33" transform="translate(374.869189 0) scale(0.996264)"/>
      <use xlink:href="#LMRoman12-Bold-2d" transform="translate(430.909039 0) scale(0.996264)"/>
      <use xlink:href="#LMRoman12-Bold-4c" transform="translate(468.26894 0) scale(0.996264)"/>
      <use xlink:href="#LMRoman12-Bold-36" transform="translate(535.607986 0) scale(0.996264)"/>
     </g>
    </g>
   </g>
   <g id="PathCollection_5">
    <defs>
     <path id="mba78e7375b" d="M 0 16.615205 
C 4.406404 16.615205 8.632926 14.864522 11.748724 11.748724 
C 14.864522 8.632926 16.615205 4.406404 16.615205 0 
C 16.615205 -4.406404 14.864522 -8.632926 11.748724 -11.748724 
C 8.632926 -14.864522 4.406404 -16.615205 0 -16.615205 
C -4.406404 -16.615205 -8.632926 -14.864522 -11.748724 -11.748724 
C -14.864522 -8.632926 -16.615205 -4.406404 -16.615205 0 
C -16.615205 4.406404 -14.864522 8.632926 -11.748724 11.748724 
C -8.632926 14.864522 -4.406404 16.615205 0 16.615205 
z
" style="stroke: #000000; stroke-width: 0.6"/>
    </defs>
    <g clip-path="url(#p142ad9695e)">
     <use xlink:href="#mba78e7375b" x="269.30498" y="40.380587" style="fill: #e49b0f; stroke: #000000; stroke-width: 0.6"/>
    </g>
   </g>
  </g>
 </g>
 <defs>
  <clipPath id="p142ad9695e">
   <rect x="51.851562" y="7.2" width="309.347958" height="244.488539"/>
  </clipPath>
 </defs>
</svg>
