<?xml version="1.0" encoding="utf-8" standalone="no"?>
<!DOCTYPE svg PUBLIC "-//W3C//DTD SVG 1.1//EN"
  "http://www.w3.org/Graphics/SVG/1.1/DTD/svg11.dtd">
<svg xmlns:xlink="http://www.w3.org/1999/xlink" width="368.39952pt" height="296.39952pt" viewBox="0 0 368.39952 296.39952" xmlns="http://www.w3.org/2000/svg" version="1.1">
 <metadata>
  <rdf:RDF xmlns:dc="http://purl.org/dc/elements/1.1/" xmlns:cc="http://creativecommons.org/ns#" xmlns:rdf="http://www.w3.org/1999/02/22-rdf-syntax-ns#">
   <cc:Work>
    <dc:type rdf:resource="http://purl.org/dc/dcmitype/StillImage"/>
    <dc:date>2026-07-16T15:18:04.643495</dc:date>
    <dc:format>image/svg+xml</dc:format>
    <dc:creator>
     <cc:Agent>
      <dc:title>Matplotlib v3.10.0, https://matplotlib.org/</dc:title>
     </cc:Agent>
    </dc:creator>
   </cc:Work>
  </rdf:RDF>
 </metadata>
 <defs>
  <style type="text/css">*{stroke-linejoin: round; stroke-linecap: butt}</style>
 </defs>
 <g id="figure_1">
  <g id="patch_1">
   <path d="M 0 296.39952 
L 368.39952 296.39952 
L 368.39952 0 
L 0 0 
z
" style="fill: #ffffff"/>
  </g>
  <g id="axes_1">
   <g id="patch_2">
    <path d="M 57.309382 251.688539 
L 361.19952 251.688539 
L 361.19952 7.2 
L 57.309382 7.2 
z
" style="fill: #ffffff"/>
   </g>
   <g id="line2d_1">
    <path d="M 85.527752 165.17721 
L 165.841574 99.353372 
L 196.230588 59.85907 
L 252.667328 33.529535 
L 319.957287 27.887492 
" clip-path="url(#p73cf2d3027)" style="fill: none; stroke-dasharray: 1.6,6.4; stroke-dashoffset: 0; stroke: #5a5a5a; stroke-opacity: 0.85; stroke-width: 1.6; stroke-linecap: round"/>
   </g>
   <g id="patch_3">
    <path d="M 57.309382 251.688539 
L 57.309382 7.2 
" style="fill: none; stroke: #000000; stroke-linejoin: miter; stroke-linecap: square"/>
   </g>
   <g id="patch_4">
    <path d="M 361.19952 251.688539 
L 361.19952 7.2 
" style="fill: none; stroke: #000000; stroke-linejoin: miter; stroke-linecap: square"/>
   </g>
   <g id="patch_5">
    <path d="M 57.309382 251.688539 
L 361.19952 251.688539 
" style="fill: none; stroke: #000000; stroke-linejoin: miter; stroke-linecap: square"/>
   </g>
   <g id="patch_6">
    <path d="M 57.309382 7.2 
L 361.19952 7.2 
" style="fill: none; stroke: #000000; stroke-linejoin: miter; stroke-linecap: square"/>
   </g>
   <g id="matplotlib.axis_1">
    <g id="xtick_1">
     <g id="line2d_2">
      <path d="M 79.015821 251.688539 
L 79.015821 7.2 
" clip-path="url(#p73cf2d3027)" style="fill: none; stroke-dasharray: 2.96,1.28; stroke-dashoffset: 0; stroke: #b0b0b0; stroke-opacity: 0.35; stroke-width: 0.8"/>
     </g>
     <g id="line2d_3">
      <defs>
       <path id="me2c322421e" d="M 0 0 
L 0 3.5 
" style="stroke: #000000; stroke-width: 0.8"/>
      </defs>
      <g>
       <use xlink:href="#me2c322421e" x="79.015821" y="251.688539" style="stroke: #000000; stroke-width: 0.8"/>
      </g>
     </g>
     <g id="text_1">
      <!-- $\mathdefault{6.0}$ -->
      <g transform="translate(69.66202 267.737248) scale(0.13 -0.13)">
       <defs>
        <path id="LMRoman12-Bold-36" d="M 3290 1334 
C 3290 2232 2669 2707 1907 2707 
C 1779 2707 1370 2707 1114 2162 
L 1114 2335 
C 1114 2727 1133 3142 1312 3488 
C 1453 3756 1779 3993 2195 3993 
C 2317 3993 2547 3975 2701 3827 
C 2458 3801 2355 3622 2355 3449 
C 2355 3219 2528 3072 2733 3072 
C 2899 3072 3110 3180 3110 3462 
C 3110 3845 2854 4224 2182 4224 
C 1382 4224 301 3737 301 2046 
C 301 1616 301 -64 1818 -64 
C 2662 -64 3290 435 3290 1334 
z
M 2477 1340 
C 2477 705 2477 192 1811 192 
C 1402 192 1242 538 1216 589 
C 1126 801 1126 1315 1126 1372 
C 1126 2162 1466 2496 1843 2496 
C 2477 2496 2477 1982 2477 1340 
z
" transform="scale(0.015625)"/>
        <path id="LMMathItalic10-Bold-3a" d="M 1517 499 
C 1517 774 1293 998 1018 998 
C 742 998 518 774 518 499 
C 518 224 742 0 1018 0 
C 1293 0 1517 224 1517 499 
z
" transform="scale(0.015625)"/>
        <path id="LMRoman12-Bold-30" d="M 3309 2060 
C 3309 2677 3309 4224 1798 4224 
C 282 4224 282 2683 282 2060 
C 282 1444 282 -64 1792 -64 
C 3302 -64 3309 1424 3309 2060 
z
M 2541 2137 
C 2541 622 2445 532 2253 339 
C 2125 211 1952 147 1798 147 
C 1594 147 1440 230 1312 365 
C 1152 526 1050 628 1050 2137 
C 1050 2587 1050 2998 1101 3331 
C 1190 3967 1651 4012 1792 4012 
C 1997 4012 2394 3916 2483 3376 
C 2541 3049 2541 2529 2541 2137 
z
" transform="scale(0.015625)"/>
       </defs>
       <use xlink:href="#LMRoman12-Bold-36" transform="scale(0.996264)"/>
       <use xlink:href="#LMMathItalic10-Bold-3a" transform="translate(56.039851 0) scale(0.996264)"/>
       <use xlink:href="#LMRoman12-Bold-30" transform="translate(87.864782 0) scale(0.996264)"/>
      </g>
     </g>
    </g>
    <g id="xtick_2">
     <g id="line2d_4">
      <path d="M 122.428698 251.688539 
L 122.428698 7.2 
" clip-path="url(#p73cf2d3027)" style="fill: none; stroke-dasharray: 2.96,1.28; stroke-dashoffset: 0; stroke: #b0b0b0; stroke-opacity: 0.35; stroke-width: 0.8"/>
     </g>
     <g id="line2d_5">
      <g>
       <use xlink:href="#me2c322421e" x="122.428698" y="251.688539" style="stroke: #000000; stroke-width: 0.8"/>
      </g>
     </g>
     <g id="text_2">
      <!-- $\mathdefault{6.2}$ -->
      <g transform="translate(113.074896 267.737248) scale(0.13 -0.13)">
       <defs>
        <path id="LMRoman12-Bold-32" d="M 3232 1378 
L 2963 1378 
C 2944 1243 2899 864 2803 800 
C 2752 755 2253 755 2157 755 
L 1165 755 
L 2086 1519 
C 2797 2052 3232 2379 3232 2995 
C 3232 3759 2547 4224 1702 4224 
C 979 4224 358 3806 358 3187 
C 358 2848 634 2752 781 2752 
C 979 2752 1210 2886 1210 3180 
C 1210 3449 1011 3584 813 3610 
C 1069 3921 1408 3948 1542 3948 
C 2131 3948 2413 3449 2413 2988 
C 2413 2488 2074 2026 1811 1750 
L 422 294 
C 358 236 358 224 358 108 
L 358 0 
L 3046 0 
L 3232 1378 
z
" transform="scale(0.015625)"/>
       </defs>
       <use xlink:href="#LMRoman12-Bold-36" transform="scale(0.996264)"/>
       <use xlink:href="#LMMathItalic10-Bold-3a" transform="translate(56.039851 0) scale(0.996264)"/>
       <use xlink:href="#LMRoman12-Bold-32" transform="translate(87.864782 0) scale(0.996264)"/>
      </g>
     </g>
    </g>
    <g id="xtick_3">
     <g id="line2d_6">
      <path d="M 165.841574 251.688539 
L 165.841574 7.2 
" clip-path="url(#p73cf2d3027)" style="fill: none; stroke-dasharray: 2.96,1.28; stroke-dashoffset: 0; stroke: #b0b0b0; stroke-opacity: 0.35; stroke-width: 0.8"/>
     </g>
     <g id="line2d_7">
      <g>
       <use xlink:href="#me2c322421e" x="165.841574" y="251.688539" style="stroke: #000000; stroke-width: 0.8"/>
      </g>
     </g>
     <g id="text_3">
      <!-- $\mathdefault{6.4}$ -->
      <g transform="translate(156.487773 267.737248) scale(0.13 -0.13)">
       <defs>
        <path id="LMRoman12-Bold-34" d="M 3392 0 
L 3392 275 
L 2771 275 
L 2771 1004 
L 3392 1004 
L 3392 1280 
L 2771 1280 
L 2771 4037 
C 2771 4198 2765 4224 2605 4224 
C 2490 4224 2477 4224 2400 4127 
L 198 1280 
L 198 1004 
L 2016 1004 
L 2016 275 
L 1318 275 
L 1318 0 
C 1504 12 2138 12 2368 12 
C 2586 12 3219 12 3392 0 
z
M 2074 1280 
L 493 1280 
L 2074 3324 
L 2074 1280 
z
" transform="scale(0.015625)"/>
       </defs>
       <use xlink:href="#LMRoman12-Bold-36" transform="scale(0.996264)"/>
       <use xlink:href="#LMMathItalic10-Bold-3a" transform="translate(56.039851 0) scale(0.996264)"/>
       <use xlink:href="#LMRoman12-Bold-34" transform="translate(87.864782 0) scale(0.996264)"/>
      </g>
     </g>
    </g>
    <g id="xtick_4">
     <g id="line2d_8">
      <path d="M 209.254451 251.688539 
L 209.254451 7.2 
" clip-path="url(#p73cf2d3027)" style="fill: none; stroke-dasharray: 2.96,1.28; stroke-dashoffset: 0; stroke: #b0b0b0; stroke-opacity: 0.35; stroke-width: 0.8"/>
     </g>
     <g id="line2d_9">
      <g>
       <use xlink:href="#me2c322421e" x="209.254451" y="251.688539" style="stroke: #000000; stroke-width: 0.8"/>
      </g>
     </g>
     <g id="text_4">
      <!-- $\mathdefault{6.6}$ -->
      <g transform="translate(199.90065 267.737248) scale(0.13 -0.13)">
       <use xlink:href="#LMRoman12-Bold-36" transform="scale(0.996264)"/>
       <use xlink:href="#LMMathItalic10-Bold-3a" transform="translate(56.039851 0) scale(0.996264)"/>
       <use xlink:href="#LMRoman12-Bold-36" transform="translate(87.864782 0) scale(0.996264)"/>
      </g>
     </g>
    </g>
    <g id="xtick_5">
     <g id="line2d_10">
      <path d="M 252.667328 251.688539 
L 252.667328 7.2 
" clip-path="url(#p73cf2d3027)" style="fill: none; stroke-dasharray: 2.96,1.28; stroke-dashoffset: 0; stroke: #b0b0b0; stroke-opacity: 0.35; stroke-width: 0.8"/>
     </g>
     <g id="line2d_11">
      <g>
       <use xlink:href="#me2c322421e" x="252.667328" y="251.688539" style="stroke: #000000; stroke-width: 0.8"/>
      </g>
     </g>
     <g id="text_5">
      <!-- $\mathdefault{6.8}$ -->
      <g transform="translate(243.313527 267.737248) scale(0.13 -0.13)">
       <defs>
        <path id="LMRoman12-Bold-38" d="M 3290 1193 
C 3290 1893 2739 2195 2413 2375 
C 2733 2542 3091 2780 3091 3280 
C 3091 3942 2502 4224 1805 4224 
C 954 4224 499 3736 499 3113 
C 499 2767 672 2381 1146 2131 
C 422 1810 301 1367 301 1033 
C 301 294 941 -64 1786 -64 
C 2733 -64 3290 448 3290 1193 
z
M 2637 3280 
C 2637 3017 2522 2741 2157 2529 
L 1261 3036 
C 1133 3107 954 3255 954 3467 
C 954 3980 1638 3993 1786 3993 
C 2330 3993 2637 3704 2637 3280 
z
M 2778 866 
C 2778 352 2266 192 1805 192 
C 1171 192 813 532 813 1039 
C 813 1508 1101 1803 1408 1977 
L 2291 1469 
C 2502 1347 2778 1193 2778 866 
z
" transform="scale(0.015625)"/>
       </defs>
       <use xlink:href="#LMRoman12-Bold-36" transform="scale(0.996264)"/>
       <use xlink:href="#LMMathItalic10-Bold-3a" transform="translate(56.039851 0) scale(0.996264)"/>
       <use xlink:href="#LMRoman12-Bold-38" transform="translate(87.864782 0) scale(0.996264)"/>
      </g>
     </g>
    </g>
    <g id="xtick_6">
     <g id="line2d_12">
      <path d="M 296.080205 251.688539 
L 296.080205 7.2 
" clip-path="url(#p73cf2d3027)" style="fill: none; stroke-dasharray: 2.96,1.28; stroke-dashoffset: 0; stroke: #b0b0b0; stroke-opacity: 0.35; stroke-width: 0.8"/>
     </g>
     <g id="line2d_13">
      <g>
       <use xlink:href="#me2c322421e" x="296.080205" y="251.688539" style="stroke: #000000; stroke-width: 0.8"/>
      </g>
     </g>
     <g id="text_6">
      <!-- $\mathdefault{7.0}$ -->
      <g transform="translate(286.726404 267.737248) scale(0.13 -0.13)">
       <defs>
        <path id="LMRoman12-Bold-37" d="M 3488 4147 
L 2138 4147 
C 2093 4147 1139 4179 1062 4192 
C 902 4217 890 4288 877 4352 
L 608 4352 
L 397 2768 
L 666 2768 
C 672 2833 723 3282 832 3353 
C 890 3392 1421 3392 1523 3392 
L 2682 3392 
C 1939 2486 1856 2383 1658 2004 
C 1280 1259 1222 681 1222 366 
C 1222 -64 1549 -64 1600 -64 
C 1760 -64 1850 19 1894 64 
C 1978 167 1978 244 1978 526 
C 1978 1509 2067 2229 2470 2711 
L 3430 3859 
C 3488 3923 3488 3936 3488 4147 
z
" transform="scale(0.015625)"/>
       </defs>
       <use xlink:href="#LMRoman12-Bold-37" transform="scale(0.996264)"/>
       <use xlink:href="#LMMathItalic10-Bold-3a" transform="translate(56.039851 0) scale(0.996264)"/>
       <use xlink:href="#LMRoman12-Bold-30" transform="translate(87.864782 0) scale(0.996264)"/>
      </g>
     </g>
    </g>
    <g id="xtick_7">
     <g id="line2d_14">
      <path d="M 339.493082 251.688539 
L 339.493082 7.2 
" clip-path="url(#p73cf2d3027)" style="fill: none; stroke-dasharray: 2.96,1.28; stroke-dashoffset: 0; stroke: #b0b0b0; stroke-opacity: 0.35; stroke-width: 0.8"/>
     </g>
     <g id="line2d_15">
      <g>
       <use xlink:href="#me2c322421e" x="339.493082" y="251.688539" style="stroke: #000000; stroke-width: 0.8"/>
      </g>
     </g>
     <g id="text_7">
      <!-- $\mathdefault{7.2}$ -->
      <g transform="translate(330.13928 267.737248) scale(0.13 -0.13)">
       <use xlink:href="#LMRoman12-Bold-37" transform="scale(0.996264)"/>
       <use xlink:href="#LMMathItalic10-Bold-3a" transform="translate(56.039851 0) scale(0.996264)"/>
       <use xlink:href="#LMRoman12-Bold-32" transform="translate(87.864782 0) scale(0.996264)"/>
      </g>
     </g>
    </g>
    <g id="text_8">
     <!-- \textbf{Inference Time (s)} -->
     <g transform="translate(141.059575 285.46353) scale(0.15 -0.15)">
      <defs>
       <path id="LMRoman12-Bold-49" d="M 2477 0 
L 2477 275 
L 1760 275 
L 1760 4140 
L 2477 4140 
L 2477 4416 
C 2246 4403 1606 4403 1338 4403 
C 1069 4403 429 4403 198 4416 
L 198 4140 
L 915 4140 
L 915 275 
L 198 275 
L 198 0 
C 429 12 1069 12 1338 12 
C 1606 12 2246 12 2477 0 
z
" transform="scale(0.015625)"/>
       <path id="LMRoman12-Bold-6e" d="M 3840 0 
L 3840 275 
L 3398 275 
L 3398 1958 
C 3398 2566 3136 2880 2432 2880 
C 1971 2880 1574 2656 1357 2176 
L 1350 2176 
L 1350 2880 
L 269 2835 
L 269 2560 
C 666 2560 710 2560 710 2304 
L 710 275 
L 269 275 
L 269 0 
C 416 12 877 12 1056 12 
C 1235 12 1702 12 1850 0 
L 1850 275 
L 1408 275 
L 1408 1638 
C 1408 2329 1920 2668 2330 2668 
C 2566 2668 2701 2515 2701 2028 
L 2701 275 
L 2259 275 
L 2259 0 
C 2406 12 2867 12 3046 12 
C 3226 12 3693 12 3840 0 
z
" transform="scale(0.015625)"/>
       <path id="LMRoman12-Bold-66" d="M 2701 3908 
C 2701 4167 2470 4435 2016 4435 
C 1434 4435 723 4192 723 3459 
L 723 2816 
L 250 2816 
L 250 2540 
L 723 2540 
L 723 275 
L 282 275 
L 282 0 
C 429 12 909 12 1088 12 
C 1274 12 1792 12 1946 0 
L 1946 275 
L 1389 275 
L 1389 2540 
L 2118 2540 
L 2118 2816 
L 1357 2816 
L 1357 3466 
C 1357 4122 1779 4224 1990 4224 
C 2061 4224 2074 4217 2112 4204 
C 2016 4141 1958 4034 1958 3901 
C 1958 3649 2163 3535 2330 3535 
C 2470 3535 2701 3630 2701 3908 
z
" transform="scale(0.015625)"/>
       <path id="LMRoman12-Bold-65" d="M 3078 731 
C 3078 829 2982 829 2944 829 
C 2842 829 2835 809 2797 725 
C 2630 302 2208 166 1901 166 
C 973 166 966 1043 966 1408 
L 2893 1408 
C 3040 1408 3078 1408 3078 1568 
C 3078 1758 3034 2232 2739 2529 
C 2470 2796 2112 2880 1741 2880 
C 742 2880 198 2232 198 1433 
C 198 523 858 -64 1824 -64 
C 2790 -64 3078 621 3078 731 
z
M 2490 1593 
L 966 1593 
C 979 1852 986 2099 1120 2327 
C 1242 2529 1466 2668 1741 2668 
C 2426 2668 2483 1909 2490 1593 
z
" transform="scale(0.015625)"/>
       <path id="LMRoman12-Bold-72" d="M 2733 2374 
C 2733 2700 2400 2880 2093 2880 
C 1587 2880 1370 2438 1280 2169 
L 1274 2169 
L 1274 2880 
L 224 2835 
L 224 2560 
C 621 2560 666 2560 666 2309 
L 666 275 
L 224 275 
L 224 0 
C 371 12 851 12 1030 12 
C 1216 12 1734 12 1888 0 
L 1888 275 
L 1331 275 
L 1331 1443 
C 1331 1651 1376 2668 2125 2668 
C 2035 2598 1990 2489 1990 2374 
C 1990 2111 2202 2003 2362 2003 
C 2522 2003 2733 2111 2733 2374 
z
" transform="scale(0.015625)"/>
       <path id="LMRoman12-Bold-63" d="M 2995 724 
C 2995 801 2925 801 2861 801 
C 2758 801 2752 795 2720 718 
C 2675 596 2502 166 1914 166 
C 1011 166 1011 1141 1011 1430 
C 1011 1808 1018 2649 1856 2649 
C 1901 2649 2278 2636 2278 2604 
C 2278 2604 2272 2591 2259 2585 
C 2240 2566 2157 2469 2157 2309 
C 2157 2039 2374 1930 2534 1930 
C 2669 1930 2912 2014 2912 2315 
C 2912 2841 2176 2880 1830 2880 
C 691 2880 243 2136 243 1398 
C 243 525 851 -64 1792 -64 
C 2797 -64 2995 679 2995 724 
z
" transform="scale(0.015625)"/>
       <path id="LMRoman12-Bold-54" d="M 4736 2828 
L 4608 4352 
L 390 4352 
L 262 2828 
L 531 2828 
C 589 3530 640 4076 1562 4076 
L 2080 4076 
L 2080 275 
L 1114 275 
L 1114 0 
L 2502 12 
L 3891 0 
L 3891 275 
L 2925 275 
L 2925 4076 
L 3437 4076 
C 4358 4076 4410 3536 4467 2828 
L 4736 2828 
z
" transform="scale(0.015625)"/>
       <path id="LMRoman12-Bold-69" d="M 1786 0 
L 1786 275 
L 1389 275 
L 1389 2880 
L 301 2835 
L 301 2560 
C 678 2560 723 2560 723 2309 
L 723 275 
L 282 275 
L 282 0 
C 429 12 870 12 1043 12 
C 1222 12 1632 12 1786 0 
z
M 1466 3891 
C 1466 4153 1248 4352 1005 4352 
C 742 4352 538 4140 538 3891 
C 538 3628 755 3430 998 3430 
C 1261 3430 1466 3641 1466 3891 
z
" transform="scale(0.015625)"/>
       <path id="LMRoman12-Bold-6d" d="M 5843 0 
L 5843 275 
L 5402 275 
L 5402 1958 
C 5402 2547 5152 2880 4435 2880 
C 3789 2880 3488 2444 3386 2240 
C 3283 2783 2848 2880 2438 2880 
C 1824 2880 1491 2483 1357 2175 
L 1350 2175 
L 1350 2880 
L 269 2835 
L 269 2560 
C 666 2560 710 2560 710 2304 
L 710 275 
L 269 275 
L 269 0 
C 416 12 877 12 1056 12 
C 1235 12 1702 12 1850 0 
L 1850 275 
L 1408 275 
L 1408 1638 
C 1408 2335 1926 2668 2330 2668 
C 2566 2668 2707 2527 2707 2028 
L 2707 275 
L 2266 275 
L 2266 0 
C 2413 12 2874 12 3053 12 
C 3232 12 3699 12 3846 0 
L 3846 275 
L 3405 275 
L 3405 1638 
C 3405 2335 3923 2668 4326 2668 
C 4563 2668 4704 2527 4704 2028 
L 4704 275 
L 4262 275 
L 4262 0 
C 4410 12 4870 12 5050 12 
C 5229 12 5696 12 5843 0 
z
" transform="scale(0.015625)"/>
       <path id="LMRoman12-Bold-28" d="M 2394 -1524 
C 2394 -1498 2394 -1485 2272 -1370 
C 1555 -654 1280 471 1280 1596 
C 1280 2856 1594 3892 2310 4614 
C 2387 4691 2394 4697 2394 4723 
C 2394 4800 2317 4800 2285 4800 
C 2227 4800 2214 4800 2048 4665 
C 1126 3930 691 2754 691 1603 
C 691 426 1133 -718 2042 -1460 
C 2208 -1600 2221 -1600 2285 -1600 
C 2317 -1600 2394 -1600 2394 -1524 
z
" transform="scale(0.015625)"/>
       <path id="LMRoman12-Bold-73" d="M 2592 880 
C 2592 1190 2426 1392 2298 1501 
C 2035 1707 1818 1744 1472 1805 
C 1062 1871 678 1938 678 2240 
C 678 2687 1248 2687 1382 2687 
C 2093 2687 2131 2208 2144 2048 
C 2150 1969 2202 1969 2278 1969 
C 2413 1969 2413 1987 2413 2131 
L 2413 2713 
C 2413 2835 2413 2880 2317 2880 
C 2278 2880 2266 2880 2170 2822 
C 2144 2803 2074 2758 2042 2739 
C 1862 2841 1626 2880 1395 2880 
C 1203 2880 243 2880 243 2017 
C 243 1379 1037 1246 1235 1216 
C 1408 1183 1619 1145 1645 1145 
C 1901 1087 2157 925 2157 651 
C 2157 147 1574 147 1440 147 
C 1114 147 710 251 531 886 
C 493 1017 486 1023 378 1023 
C 243 1023 243 1004 243 853 
L 243 102 
C 243 -20 243 -64 339 -64 
C 384 -64 397 -64 525 38 
L 691 160 
C 979 -64 1325 -64 1440 -64 
C 1792 -64 2592 12 2592 880 
z
" transform="scale(0.015625)"/>
       <path id="LMRoman12-Bold-29" d="M 2099 1596 
C 2099 2773 1658 3917 749 4659 
C 582 4800 570 4800 506 4800 
C 474 4800 397 4800 397 4723 
C 397 4697 397 4684 518 4569 
C 1235 3853 1510 2728 1510 1603 
C 1510 343 1197 -693 480 -1415 
C 403 -1492 397 -1498 397 -1524 
C 397 -1600 474 -1600 506 -1600 
C 563 -1600 576 -1600 742 -1466 
C 1664 -731 2099 445 2099 1596 
z
" transform="scale(0.015625)"/>
      </defs>
      <use xlink:href="#LMRoman12-Bold-49" transform="scale(0.996264)"/>
      <use xlink:href="#LMRoman12-Bold-6e" transform="translate(41.743426 0) scale(0.996264)"/>
      <use xlink:href="#LMRoman12-Bold-66" transform="translate(104.009926 0) scale(0.996264)"/>
      <use xlink:href="#LMRoman12-Bold-65" transform="translate(138.256501 0) scale(0.996264)"/>
      <use xlink:href="#LMRoman12-Bold-72" transform="translate(189.398049 0) scale(0.996264)"/>
      <use xlink:href="#LMRoman12-Bold-65" transform="translate(235.176408 0) scale(0.996264)"/>
      <use xlink:href="#LMRoman12-Bold-6e" transform="translate(286.317955 0) scale(0.996264)"/>
      <use xlink:href="#LMRoman12-Bold-63" transform="translate(348.584456 0) scale(0.996264)"/>
      <use xlink:href="#LMRoman12-Bold-65" transform="translate(398.397656 0) scale(0.996264)"/>
      <use xlink:href="#LMRoman12-Bold-54" transform="translate(486.899104 0) scale(0.996264)"/>
      <use xlink:href="#LMRoman12-Bold-69" transform="translate(564.848523 0) scale(0.996264)"/>
      <use xlink:href="#LMRoman12-Bold-6d" transform="translate(595.981774 0) scale(0.996264)"/>
      <use xlink:href="#LMRoman12-Bold-65" transform="translate(689.381525 0) scale(0.996264)"/>
      <use xlink:href="#LMRoman12-Bold-28" transform="translate(777.882972 0) scale(0.996264)"/>
      <use xlink:href="#LMRoman12-Bold-73" transform="translate(821.469523 0) scale(0.996264)"/>
      <use xlink:href="#LMRoman12-Bold-29" transform="translate(865.678677 0) scale(0.996264)"/>
     </g>
    </g>
   </g>
   <g id="matplotlib.axis_2">
    <g id="ytick_1">
     <g id="line2d_16">
      <path d="M 57.309382 242.285134 
L 361.19952 242.285134 
" clip-path="url(#p73cf2d3027)" style="fill: none; stroke-dasharray: 2.96,1.28; stroke-dashoffset: 0; stroke: #b0b0b0; stroke-opacity: 0.35; stroke-width: 0.8"/>
     </g>
     <g id="line2d_17">
      <defs>
       <path id="me4cfc80fc5" d="M 0 0 
L -3.5 0 
" style="stroke: #000000; stroke-width: 0.8"/>
      </defs>
      <g>
       <use xlink:href="#me4cfc80fc5" x="57.309382" y="242.285134" style="stroke: #000000; stroke-width: 0.8"/>
      </g>
     </g>
     <g id="text_9">
      <!-- $\mathdefault{30.4}$ -->
      <g transform="translate(24.316599 246.809488) scale(0.13 -0.13)">
       <defs>
        <path id="LMRoman12-Bold-33" d="M 3290 1164 
C 3290 1479 3130 2092 2138 2265 
C 2701 2436 3091 2824 3091 3327 
C 3091 3812 2630 4224 1741 4224 
C 1024 4224 499 3839 499 3315 
C 499 2995 749 2892 915 2892 
C 1101 2892 1325 3014 1325 3308 
C 1325 3455 1261 3673 960 3718 
C 1229 3993 1664 3993 1702 3993 
C 2272 3993 2272 3539 2272 3347 
C 2272 3155 2246 2861 2042 2605 
C 1875 2392 1709 2380 1466 2368 
C 1389 2361 1261 2355 1235 2342 
C 1197 2323 1197 2278 1197 2252 
C 1197 2143 1235 2143 1363 2143 
L 1670 2143 
C 2387 2143 2387 1473 2387 1164 
C 2387 876 2387 192 1696 192 
C 1562 192 1139 211 832 434 
C 1107 492 1203 691 1203 883 
C 1203 1145 1018 1331 755 1331 
C 486 1324 301 1139 301 870 
C 301 281 941 -64 1728 -64 
C 2784 -64 3290 518 3290 1158 
L 3290 1164 
z
" transform="scale(0.015625)"/>
       </defs>
       <use xlink:href="#LMRoman12-Bold-33" transform="scale(0.996264)"/>
       <use xlink:href="#LMRoman12-Bold-30" transform="translate(56.039851 0) scale(0.996264)"/>
       <use xlink:href="#LMMathItalic10-Bold-3a" transform="translate(112.079701 0) scale(0.996264)"/>
       <use xlink:href="#LMRoman12-Bold-34" transform="translate(143.904633 0) scale(0.996264)"/>
      </g>
     </g>
    </g>
    <g id="ytick_2">
     <g id="line2d_18">
      <path d="M 57.309382 204.671512 
L 361.19952 204.671512 
" clip-path="url(#p73cf2d3027)" style="fill: none; stroke-dasharray: 2.96,1.28; stroke-dashoffset: 0; stroke: #b0b0b0; stroke-opacity: 0.35; stroke-width: 0.8"/>
     </g>
     <g id="line2d_19">
      <g>
       <use xlink:href="#me4cfc80fc5" x="57.309382" y="204.671512" style="stroke: #000000; stroke-width: 0.8"/>
      </g>
     </g>
     <g id="text_10">
      <!-- $\mathdefault{30.6}$ -->
      <g transform="translate(24.316599 209.195867) scale(0.13 -0.13)">
       <use xlink:href="#LMRoman12-Bold-33" transform="scale(0.996264)"/>
       <use xlink:href="#LMRoman12-Bold-30" transform="translate(56.039851 0) scale(0.996264)"/>
       <use xlink:href="#LMMathItalic10-Bold-3a" transform="translate(112.079701 0) scale(0.996264)"/>
       <use xlink:href="#LMRoman12-Bold-36" transform="translate(143.904633 0) scale(0.996264)"/>
      </g>
     </g>
    </g>
    <g id="ytick_3">
     <g id="line2d_20">
      <path d="M 57.309382 167.057891 
L 361.19952 167.057891 
" clip-path="url(#p73cf2d3027)" style="fill: none; stroke-dasharray: 2.96,1.28; stroke-dashoffset: 0; stroke: #b0b0b0; stroke-opacity: 0.35; stroke-width: 0.8"/>
     </g>
     <g id="line2d_21">
      <g>
       <use xlink:href="#me4cfc80fc5" x="57.309382" y="167.057891" style="stroke: #000000; stroke-width: 0.8"/>
      </g>
     </g>
     <g id="text_11">
      <!-- $\mathdefault{30.8}$ -->
      <g transform="translate(24.316599 171.582245) scale(0.13 -0.13)">
       <use xlink:href="#LMRoman12-Bold-33" transform="scale(0.996264)"/>
       <use xlink:href="#LMRoman12-Bold-30" transform="translate(56.039851 0) scale(0.996264)"/>
       <use xlink:href="#LMMathItalic10-Bold-3a" transform="translate(112.079701 0) scale(0.996264)"/>
       <use xlink:href="#LMRoman12-Bold-38" transform="translate(143.904633 0) scale(0.996264)"/>
      </g>
     </g>
    </g>
    <g id="ytick_4">
     <g id="line2d_22">
      <path d="M 57.309382 129.444269 
L 361.19952 129.444269 
" clip-path="url(#p73cf2d3027)" style="fill: none; stroke-dasharray: 2.96,1.28; stroke-dashoffset: 0; stroke: #b0b0b0; stroke-opacity: 0.35; stroke-width: 0.8"/>
     </g>
     <g id="line2d_23">
      <g>
       <use xlink:href="#me4cfc80fc5" x="57.309382" y="129.444269" style="stroke: #000000; stroke-width: 0.8"/>
      </g>
     </g>
     <g id="text_12">
      <!-- $\mathdefault{31.0}$ -->
      <g transform="translate(24.316599 133.968624) scale(0.13 -0.13)">
       <defs>
        <path id="LMRoman12-Bold-31" d="M 3091 0 
L 3091 275 
L 2214 275 
L 2214 4029 
C 2214 4224 2202 4224 1997 4224 
C 1523 3795 813 3795 672 3795 
L 550 3795 
L 550 3520 
L 672 3520 
C 896 3520 1235 3558 1491 3641 
L 1491 275 
L 602 275 
L 602 0 
L 1843 12 
L 3091 0 
z
" transform="scale(0.015625)"/>
       </defs>
       <use xlink:href="#LMRoman12-Bold-33" transform="scale(0.996264)"/>
       <use xlink:href="#LMRoman12-Bold-31" transform="translate(56.039851 0) scale(0.996264)"/>
       <use xlink:href="#LMMathItalic10-Bold-3a" transform="translate(112.079701 0) scale(0.996264)"/>
       <use xlink:href="#LMRoman12-Bold-30" transform="translate(143.904633 0) scale(0.996264)"/>
      </g>
     </g>
    </g>
    <g id="ytick_5">
     <g id="line2d_24">
      <path d="M 57.309382 91.830648 
L 361.19952 91.830648 
" clip-path="url(#p73cf2d3027)" style="fill: none; stroke-dasharray: 2.96,1.28; stroke-dashoffset: 0; stroke: #b0b0b0; stroke-opacity: 0.35; stroke-width: 0.8"/>
     </g>
     <g id="line2d_25">
      <g>
       <use xlink:href="#me4cfc80fc5" x="57.309382" y="91.830648" style="stroke: #000000; stroke-width: 0.8"/>
      </g>
     </g>
     <g id="text_13">
      <!-- $\mathdefault{31.2}$ -->
      <g transform="translate(24.316599 96.355003) scale(0.13 -0.13)">
       <use xlink:href="#LMRoman12-Bold-33" transform="scale(0.996264)"/>
       <use xlink:href="#LMRoman12-Bold-31" transform="translate(56.039851 0) scale(0.996264)"/>
       <use xlink:href="#LMMathItalic10-Bold-3a" transform="translate(112.079701 0) scale(0.996264)"/>
       <use xlink:href="#LMRoman12-Bold-32" transform="translate(143.904633 0) scale(0.996264)"/>
      </g>
     </g>
    </g>
    <g id="ytick_6">
     <g id="line2d_26">
      <path d="M 57.309382 54.217027 
L 361.19952 54.217027 
" clip-path="url(#p73cf2d3027)" style="fill: none; stroke-dasharray: 2.96,1.28; stroke-dashoffset: 0; stroke: #b0b0b0; stroke-opacity: 0.35; stroke-width: 0.8"/>
     </g>
     <g id="line2d_27">
      <g>
       <use xlink:href="#me4cfc80fc5" x="57.309382" y="54.217027" style="stroke: #000000; stroke-width: 0.8"/>
      </g>
     </g>
     <g id="text_14">
      <!-- $\mathdefault{31.4}$ -->
      <g transform="translate(24.316599 58.741381) scale(0.13 -0.13)">
       <use xlink:href="#LMRoman12-Bold-33" transform="scale(0.996264)"/>
       <use xlink:href="#LMRoman12-Bold-31" transform="translate(56.039851 0) scale(0.996264)"/>
       <use xlink:href="#LMMathItalic10-Bold-3a" transform="translate(112.079701 0) scale(0.996264)"/>
       <use xlink:href="#LMRoman12-Bold-34" transform="translate(143.904633 0) scale(0.996264)"/>
      </g>
     </g>
    </g>
    <g id="ytick_7">
     <g id="line2d_28">
      <path d="M 57.309382 16.603405 
L 361.19952 16.603405 
" clip-path="url(#p73cf2d3027)" style="fill: none; stroke-dasharray: 2.96,1.28; stroke-dashoffset: 0; stroke: #b0b0b0; stroke-opacity: 0.35; stroke-width: 0.8"/>
     </g>
     <g id="line2d_29">
      <g>
       <use xlink:href="#me4cfc80fc5" x="57.309382" y="16.603405" style="stroke: #000000; stroke-width: 0.8"/>
      </g>
     </g>
     <g id="text_15">
      <!-- $\mathdefault{31.6}$ -->
      <g transform="translate(24.316599 21.12776) scale(0.13 -0.13)">
       <use xlink:href="#LMRoman12-Bold-33" transform="scale(0.996264)"/>
       <use xlink:href="#LMRoman12-Bold-31" transform="translate(56.039851 0) scale(0.996264)"/>
       <use xlink:href="#LMMathItalic10-Bold-3a" transform="translate(112.079701 0) scale(0.996264)"/>
       <use xlink:href="#LMRoman12-Bold-36" transform="translate(143.904633 0) scale(0.996264)"/>
      </g>
     </g>
    </g>
    <g id="text_16">
     <!-- \textbf{BLEU} -->
     <g transform="translate(17.409973 152.447979) rotate(-90) scale(0.15 -0.15)">
      <defs>
       <path id="LMRoman12-Bold-42" d="M 4717 1184 
C 4717 1792 4186 2233 3411 2291 
C 4333 2465 4512 2997 4512 3303 
C 4512 3900 3974 4416 2950 4416 
L 250 4416 
L 250 4140 
L 928 4140 
L 928 275 
L 250 275 
L 250 0 
L 3142 0 
C 4198 0 4717 569 4717 1184 
z
M 3667 3309 
C 3667 2854 3418 2387 2669 2387 
L 1715 2387 
L 1715 4140 
L 2874 4140 
C 3533 4140 3667 3634 3667 3309 
z
M 3846 1196 
C 3846 793 3629 275 2893 275 
L 1715 275 
L 1715 2176 
L 2989 2176 
C 3738 2176 3846 1484 3846 1196 
z
" transform="scale(0.015625)"/>
       <path id="LMRoman12-Bold-4c" d="M 4019 1737 
L 3750 1737 
C 3706 1293 3603 275 2451 275 
L 1766 275 
L 1766 4140 
L 2618 4140 
L 2618 4416 
L 1395 4403 
C 1158 4403 429 4403 243 4416 
L 243 4140 
L 922 4140 
L 922 275 
L 243 275 
L 243 0 
L 3834 0 
L 4019 1737 
z
" transform="scale(0.015625)"/>
       <path id="LMRoman12-Bold-45" d="M 4518 1717 
L 4250 1717 
C 4115 770 3878 275 2765 275 
L 1766 275 
L 1766 2112 
L 2144 2112 
C 2758 2112 2822 1851 2822 1368 
L 3091 1368 
L 3091 3138 
L 2822 3138 
C 2822 2657 2758 2387 2144 2387 
L 1766 2387 
L 1766 4076 
L 2765 4076 
C 3744 4076 3955 3661 4051 2837 
L 4320 2837 
L 4134 4352 
L 243 4352 
L 243 4076 
L 922 4076 
L 922 275 
L 243 275 
L 243 0 
L 4243 0 
L 4518 1717 
z
" transform="scale(0.015625)"/>
       <path id="LMRoman12-Bold-55" d="M 5286 4140 
L 5286 4416 
C 5139 4403 4640 4403 4461 4403 
C 4282 4403 3782 4403 3635 4416 
L 3635 4140 
L 3782 4140 
C 3955 4140 3968 4140 4122 4121 
C 4307 4095 4314 4089 4314 3948 
L 4314 1501 
C 4314 583 3667 211 2912 211 
C 1792 211 1766 1071 1766 1444 
L 1766 4140 
L 2445 4140 
L 2445 4416 
C 2259 4403 1574 4403 1344 4403 
C 1114 4403 429 4403 243 4416 
L 243 4140 
L 922 4140 
L 922 1488 
C 922 641 1600 -64 2886 -64 
C 4070 -64 4608 673 4608 1482 
L 4608 3948 
C 4608 4089 4614 4095 4781 4121 
C 4896 4134 5024 4140 5139 4140 
L 5286 4140 
z
" transform="scale(0.015625)"/>
      </defs>
      <use xlink:href="#LMRoman12-Bold-42" transform="scale(0.996264)"/>
      <use xlink:href="#LMRoman12-Bold-4c" transform="translate(79.676235 0) scale(0.996264)"/>
      <use xlink:href="#LMRoman12-Bold-45" transform="translate(147.015282 0) scale(0.996264)"/>
      <use xlink:href="#LMRoman12-Bold-55" transform="translate(220.580979 0) scale(0.996264)"/>
     </g>
    </g>
   </g>
   <g id="text_17">
    <!-- \textbf{5204} -->
    <g transform="translate(72.503889 193.768507) scale(0.12 -0.12)">
     <defs>
      <path id="LMRoman12-Bold-35" d="M 3232 1286 
C 3232 2067 2701 2624 1824 2624 
C 1568 2624 1261 2572 986 2368 
L 986 3328 
C 1203 3308 1376 3308 1472 3308 
C 1626 3276 1990 3276 2419 3539 
C 2618 3664 2950 3960 2950 4112 
C 2950 4145 2950 4224 2874 4224 
C 2874 4224 2854 4224 2790 4191 
C 2496 4098 2182 4032 1824 4032 
C 1459 4032 1152 4098 851 4200 
C 806 4212 787 4224 768 4224 
C 691 4224 691 4164 691 4062 
L 691 2179 
C 691 2055 691 1984 819 1984 
C 883 1984 896 1991 947 2055 
C 1024 2146 1254 2432 1798 2432 
C 2387 2432 2387 1822 2387 1312 
C 2387 851 2387 192 1600 192 
C 1363 192 960 280 742 640 
C 1082 627 1165 883 1165 1024 
C 1165 1267 998 1440 762 1440 
C 570 1440 358 1324 358 1024 
C 358 469 864 -64 1626 -64 
C 2611 -84 3232 486 3232 1280 
L 3232 1286 
z
" transform="scale(0.015625)"/>
     </defs>
     <use xlink:href="#LMRoman12-Bold-35" transform="scale(0.996264)"/>
     <use xlink:href="#LMRoman12-Bold-32" transform="translate(56.039851 0) scale(0.996264)"/>
     <use xlink:href="#LMRoman12-Bold-30" transform="translate(112.079701 0) scale(0.996264)"/>
     <use xlink:href="#LMRoman12-Bold-34" transform="translate(168.119552 0) scale(0.996264)"/>
    </g>
   </g>
   <g id="text_18">
    <!-- \textbf{4985} -->
    <g transform="translate(152.817711 125.499784) scale(0.12 -0.12)">
     <defs>
      <path id="LMRoman12-Bold-39" d="M 3290 2120 
C 3290 2552 3290 4224 1811 4224 
C 928 4224 301 3710 301 2828 
C 301 1934 915 1452 1683 1452 
C 1952 1452 2272 1548 2477 2005 
L 2477 1818 
C 2477 1366 2477 192 1478 192 
C 1280 192 1050 238 915 332 
C 1101 371 1235 505 1235 710 
C 1235 940 1062 1088 858 1088 
C 691 1088 480 979 480 697 
C 480 256 832 -64 1491 -64 
C 2304 -64 3290 454 3290 2120 
z
M 2470 2751 
C 2470 2301 2285 1664 1747 1664 
C 1114 1664 1114 2185 1114 2815 
C 1114 3433 1114 3993 1811 3993 
C 2221 3993 2368 3626 2394 3556 
C 2458 3341 2470 2944 2470 2732 
L 2470 2751 
z
" transform="scale(0.015625)"/>
     </defs>
     <use xlink:href="#LMRoman12-Bold-34" transform="scale(0.996264)"/>
     <use xlink:href="#LMRoman12-Bold-39" transform="translate(56.039851 0) scale(0.996264)"/>
     <use xlink:href="#LMRoman12-Bold-38" transform="translate(112.079701 0) scale(0.996264)"/>
     <use xlink:href="#LMRoman12-Bold-35" transform="translate(168.119552 0) scale(0.996264)"/>
    </g>
   </g>
   <g id="text_19">
    <!-- \textbf{4870} -->
    <g transform="translate(185.377369 84.689005) scale(0.12 -0.12)">
     <use xlink:href="#LMRoman12-Bold-34" transform="scale(0.996264)"/>
     <use xlink:href="#LMRoman12-Bold-38" transform="translate(56.039851 0) scale(0.996264)"/>
     <use xlink:href="#LMRoman12-Bold-37" transform="translate(112.079701 0) scale(0.996264)"/>
     <use xlink:href="#LMRoman12-Bold-30" transform="translate(168.119552 0) scale(0.996264)"/>
    </g>
   </g>
   <g id="text_20">
    <!-- \textbf{4660} -->
    <g transform="translate(240.728787 56.102653) scale(0.12 -0.12)">
     <use xlink:href="#LMRoman12-Bold-34" transform="scale(0.996264)"/>
     <use xlink:href="#LMRoman12-Bold-36" transform="translate(56.039851 0) scale(0.996264)"/>
     <use xlink:href="#LMRoman12-Bold-36" transform="translate(112.079701 0) scale(0.996264)"/>
     <use xlink:href="#LMRoman12-Bold-30" transform="translate(168.119552 0) scale(0.996264)"/>
    </g>
   </g>
   <g id="text_21">
    <!-- \textbf{4485} -->
    <g transform="translate(309.104068 47.45152) scale(0.12 -0.12)">
     <use xlink:href="#LMRoman12-Bold-34" transform="scale(0.996264)"/>
     <use xlink:href="#LMRoman12-Bold-34" transform="translate(56.039851 0) scale(0.996264)"/>
     <use xlink:href="#LMRoman12-Bold-38" transform="translate(112.079701 0) scale(0.996264)"/>
     <use xlink:href="#LMRoman12-Bold-35" transform="translate(168.119552 0) scale(0.996264)"/>
    </g>
   </g>
   <g id="PathCollection_1">
    <defs>
     <path id="m89472aa4f1" d="M 0 19.364917 
C 5.135636 19.364917 10.061621 17.324507 13.693064 13.693064 
C 17.324507 10.061621 19.364917 5.135636 19.364917 0 
C 19.364917 -5.135636 17.324507 -10.061621 13.693064 -13.693064 
C 10.061621 -17.324507 5.135636 -19.364917 0 -19.364917 
C -5.135636 -19.364917 -10.061621 -17.324507 -13.693064 -13.693064 
C -17.324507 -10.061621 -19.364917 -5.135636 -19.364917 0 
C -19.364917 5.135636 -17.324507 10.061621 -13.693064 13.693064 
C -10.061621 17.324507 -5.135636 19.364917 0 19.364917 
z
" style="stroke: #000000; stroke-width: 0.6"/>
    </defs>
    <g clip-path="url(#p73cf2d3027)">
     <use xlink:href="#m89472aa4f1" x="85.527752" y="165.17721" style="fill: #2e2e2e; stroke: #000000; stroke-width: 0.6"/>
    </g>
   </g>
   <g id="PathCollection_2">
    <defs>
     <path id="m312f29f7dc" d="M 0 17.179939 
C 4.556173 17.179939 8.92635 15.369752 12.148051 12.148051 
C 15.369752 8.92635 17.179939 4.556173 17.179939 0 
C 17.179939 -4.556173 15.369752 -8.92635 12.148051 -12.148051 
C 8.92635 -15.369752 4.556173 -17.179939 0 -17.179939 
C -4.556173 -17.179939 -8.92635 -15.369752 -12.148051 -12.148051 
C -15.369752 -8.92635 -17.179939 -4.556173 -17.179939 0 
C -17.179939 4.556173 -15.369752 8.92635 -12.148051 12.148051 
C -8.92635 15.369752 -4.556173 17.179939 0 17.179939 
z
" style="stroke: #000000; stroke-width: 0.6"/>
    </defs>
    <g clip-path="url(#p73cf2d3027)">
     <use xlink:href="#m312f29f7dc" x="165.841574" y="99.353372" style="fill: #ef476f; stroke: #000000; stroke-width: 0.6"/>
    </g>
   </g>
   <g id="PathCollection_3">
    <defs>
     <path id="m5260e94006" d="M 0 15.906873 
C 4.218552 15.906873 8.264891 14.230824 11.247858 11.247858 
C 14.230824 8.264891 15.906873 4.218552 15.906873 0 
C 15.906873 -4.218552 14.230824 -8.264891 11.247858 -11.247858 
C 8.264891 -14.230824 4.218552 -15.906873 0 -15.906873 
C -4.218552 -15.906873 -8.264891 -14.230824 -11.247858 -11.247858 
C -14.230824 -8.264891 -15.906873 -4.218552 -15.906873 0 
C -15.906873 4.218552 -14.230824 8.264891 -11.247858 11.247858 
C -8.264891 14.230824 -4.218552 15.906873 0 15.906873 
z
" style="stroke: #000000; stroke-width: 0.6"/>
    </defs>
    <g clip-path="url(#p73cf2d3027)">
     <use xlink:href="#m5260e94006" x="196.230588" y="59.85907" style="fill: #06d6a0; stroke: #000000; stroke-width: 0.6"/>
    </g>
   </g>
   <g id="PathCollection_4">
    <defs>
     <path id="mf0cfa71b84" d="M 0 10.606602 
C 2.812904 10.606602 5.510977 9.489023 7.5 7.5 
C 9.489023 5.510977 10.606602 2.812904 10.606602 0 
C 10.606602 -2.812904 9.489023 -5.510977 7.5 -7.5 
C 5.510977 -9.489023 2.812904 -10.606602 0 -10.606602 
C -2.812904 -10.606602 -5.510977 -9.489023 -7.5 -7.5 
C -9.489023 -5.510977 -10.606602 -2.812904 -10.606602 0 
C -10.606602 2.812904 -9.489023 5.510977 -7.5 7.5 
C -5.510977 9.489023 -2.812904 10.606602 0 10.606602 
z
" style="stroke: #000000; stroke-width: 0.6"/>
    </defs>
    <g clip-path="url(#p73cf2d3027)">
     <use xlink:href="#mf0cfa71b84" x="319.957287" y="27.887492" style="fill: #8338ec; stroke: #000000; stroke-width: 0.6"/>
    </g>
   </g>
   <g id="legend_1">
    <g id="line2d_30">
     <defs>
      <path id="m33d3fc9934" d="M 0 4.5 
C 1.193414 4.5 2.338109 4.025852 3.181981 3.181981 
C 4.025852 2.338109 4.5 1.193414 4.5 0 
C 4.5 -1.193414 4.025852 -2.338109 3.181981 -3.181981 
C 2.338109 -4.025852 1.193414 -4.5 0 -4.5 
C -1.193414 -4.5 -2.338109 -4.025852 -3.181981 -3.181981 
C -4.025852 -2.338109 -4.5 -1.193414 -4.5 0 
C -4.5 1.193414 -4.025852 2.338109 -3.181981 3.181981 
C -2.338109 4.025852 -1.193414 4.5 0 4.5 
z
" style="stroke: #000000; stroke-width: 0.6"/>
     </defs>
     <g>
      <use xlink:href="#m33d3fc9934" x="264.141043" y="175.743271" style="fill: #2e2e2e; stroke: #000000; stroke-width: 0.6"/>
     </g>
    </g>
    <g id="text_22">
     <!-- \textbf{Baseline} -->
     <g transform="translate(272.541043 179.943271) scale(0.12 -0.12)">
      <defs>
       <path id="LMRoman12-Bold-61" d="M 3462 115 
C 3462 249 3405 249 3315 249 
C 2912 256 2912 358 2912 506 
L 2912 1892 
C 2912 2482 2445 2880 1542 2880 
C 1184 2880 429 2847 429 2309 
C 429 2039 634 1924 806 1924 
C 998 1924 1184 2059 1184 2302 
C 1184 2424 1139 2540 1030 2610 
C 1242 2668 1395 2668 1517 2668 
C 1952 2668 2214 2424 2214 1898 
L 2214 1642 
C 1203 1642 186 1359 186 647 
C 186 64 928 -64 1370 -64 
C 1862 -64 2176 204 2304 487 
C 2304 275 2304 0 2950 0 
L 3277 0 
C 3411 0 3462 0 3462 140 
L 3462 115 
z
M 2214 889 
C 2214 288 1677 172 1472 172 
C 1158 172 896 384 896 678 
C 896 1260 1587 1459 2214 1491 
L 2214 889 
z
" transform="scale(0.015625)"/>
       <path id="LMRoman12-Bold-6c" d="M 1830 0 
L 1830 275 
L 1389 275 
L 1389 4480 
L 282 4416 
L 282 4140 
C 678 4140 723 4140 723 3889 
L 723 275 
L 282 275 
L 282 0 
C 429 12 883 12 1056 12 
C 1229 12 1683 12 1830 0 
z
" transform="scale(0.015625)"/>
      </defs>
      <use xlink:href="#LMRoman12-Bold-42" transform="scale(0.996264)"/>
      <use xlink:href="#LMRoman12-Bold-61" transform="translate(79.676235 0) scale(0.996264)"/>
      <use xlink:href="#LMRoman12-Bold-73" transform="translate(134.159424 0) scale(0.996264)"/>
      <use xlink:href="#LMRoman12-Bold-65" transform="translate(178.368578 0) scale(0.996264)"/>
      <use xlink:href="#LMRoman12-Bold-6c" transform="translate(229.510126 0) scale(0.996264)"/>
      <use xlink:href="#LMRoman12-Bold-69" transform="translate(260.643376 0) scale(0.996264)"/>
      <use xlink:href="#LMRoman12-Bold-6e" transform="translate(291.776626 0) scale(0.996264)"/>
      <use xlink:href="#LMRoman12-Bold-65" transform="translate(354.043127 0) scale(0.996264)"/>
     </g>
    </g>
    <g id="line2d_31">
     <defs>
      <path id="m52440dc4bd" d="M 0 4.5 
C 1.193414 4.5 2.338109 4.025852 3.181981 3.181981 
C 4.025852 2.338109 4.5 1.193414 4.5 0 
C 4.5 -1.193414 4.025852 -2.338109 3.181981 -3.181981 
C 2.338109 -4.025852 1.193414 -4.5 0 -4.5 
C -1.193414 -4.5 -2.338109 -4.025852 -3.181981 -3.181981 
C -4.025852 -2.338109 -4.5 -1.193414 -4.5 0 
C -4.5 1.193414 -4.025852 2.338109 -3.181981 3.181981 
C -2.338109 4.025852 -1.193414 4.5 0 4.5 
z
" style="stroke: #000000; stroke-width: 0.6"/>
     </defs>
     <g>
      <use xlink:href="#m52440dc4bd" x="264.141043" y="190.634242" style="fill: #ef476f; stroke: #000000; stroke-width: 0.6"/>
     </g>
    </g>
    <g id="text_23">
     <!-- \textbf{TDM (L6)} -->
     <g transform="translate(272.541043 194.834242) scale(0.12 -0.12)">
      <defs>
       <path id="LMRoman12-Bold-44" d="M 5114 2169 
C 5114 3625 4141 4416 2938 4416 
L 243 4416 
L 243 4140 
L 922 4140 
L 922 275 
L 243 275 
L 243 0 
L 2938 0 
C 4166 0 5114 790 5114 2169 
z
M 4243 2175 
C 4243 1421 4147 1086 3923 784 
C 3699 487 3270 275 2694 275 
L 1734 275 
L 1734 4140 
L 2694 4140 
C 3251 4140 3699 3921 3936 3586 
C 4122 3322 4243 3006 4243 2175 
z
" transform="scale(0.015625)"/>
       <path id="LMRoman12-Bold-4d" d="M 6560 0 
L 6560 275 
L 5882 275 
L 5882 4140 
L 6560 4140 
L 6560 4416 
L 5197 4416 
C 5062 4416 5005 4416 4947 4281 
L 3411 816 
L 1875 4281 
C 1818 4416 1760 4416 1626 4416 
L 262 4416 
L 262 4140 
L 941 4140 
L 941 468 
C 941 326 934 320 768 294 
C 653 281 525 275 410 275 
L 262 275 
L 262 0 
C 410 12 909 12 1088 12 
C 1267 12 1773 12 1920 0 
L 1920 275 
L 1773 275 
C 1600 275 1587 275 1434 294 
C 1248 320 1242 326 1242 468 
L 1242 4063 
L 1248 4063 
L 2989 134 
C 3021 64 3059 0 3168 0 
C 3277 0 3315 64 3347 134 
L 5120 4140 
L 5126 4140 
L 5126 275 
L 4448 275 
L 4448 0 
C 4621 12 5286 12 5504 12 
C 5722 12 6387 12 6560 0 
z
" transform="scale(0.015625)"/>
      </defs>
      <use xlink:href="#LMRoman12-Bold-54" transform="scale(0.996264)"/>
      <use xlink:href="#LMRoman12-Bold-44" transform="translate(77.949419 0) scale(0.996264)"/>
      <use xlink:href="#LMRoman12-Bold-4d" transform="translate(163.852305 0) scale(0.996264)"/>
      <use xlink:href="#LMRoman12-Bold-28" transform="translate(307.530142 0) scale(0.996264)"/>
      <use xlink:href="#LMRoman12-Bold-4c" transform="translate(351.116693 0) scale(0.996264)"/>
      <use xlink:href="#LMRoman12-Bold-36" transform="translate(418.455739 0) scale(0.996264)"/>
      <use xlink:href="#LMRoman12-Bold-29" transform="translate(474.49559 0) scale(0.996264)"/>
     </g>
    </g>
    <g id="line2d_32">
     <defs>
      <path id="m13845600ce" d="M 0 4.5 
C 1.193414 4.5 2.338109 4.025852 3.181981 3.181981 
C 4.025852 2.338109 4.5 1.193414 4.5 0 
C 4.5 -1.193414 4.025852 -2.338109 3.181981 -3.181981 
C 2.338109 -4.025852 1.193414 -4.5 0 -4.5 
C -1.193414 -4.5 -2.338109 -4.025852 -3.181981 -3.181981 
C -4.025852 -2.338109 -4.5 -1.193414 -4.5 0 
C -4.5 1.193414 -4.025852 2.338109 -3.181981 3.181981 
C -2.338109 4.025852 -1.193414 4.5 0 4.5 
z
" style="stroke: #000000; stroke-width: 0.6"/>
     </defs>
     <g>
      <use xlink:href="#m13845600ce" x="264.141043" y="206.189411" style="fill: #06d6a0; stroke: #000000; stroke-width: 0.6"/>
     </g>
    </g>
    <g id="text_24">
     <!-- \textbf{TDM (L5-L6)} -->
     <g transform="translate(272.541043 210.389411) scale(0.12 -0.12)">
      <defs>
       <path id="LMRoman12-Bold-2d" d="M 1997 1139 
L 1997 1728 
L 77 1728 
L 77 1139 
L 1997 1139 
z
" transform="scale(0.015625)"/>
      </defs>
      <use xlink:href="#LMRoman12-Bold-54" transform="scale(0.996264)"/>
      <use xlink:href="#LMRoman12-Bold-44" transform="translate(77.949419 0) scale(0.996264)"/>
      <use xlink:href="#LMRoman12-Bold-4d" transform="translate(163.852305 0) scale(0.996264)"/>
      <use xlink:href="#LMRoman12-Bold-28" transform="translate(307.530142 0) scale(0.996264)"/>
      <use xlink:href="#LMRoman12-Bold-4c" transform="translate(351.116693 0) scale(0.996264)"/>
      <use xlink:href="#LMRoman12-Bold-35" transform="translate(418.455739 0) scale(0.996264)"/>
      <use xlink:href="#LMRoman12-Bold-2d" transform="translate(474.49559 0) scale(0.996264)"/>
      <use xlink:href="#LMRoman12-Bold-4c" transform="translate(511.85549 0) scale(0.996264)"/>
      <use xlink:href="#LMRoman12-Bold-36" transform="translate(579.194537 0) scale(0.996264)"/>
      <use xlink:href="#LMRoman12-Bold-29" transform="translate(635.234387 0) scale(0.996264)"/>
     </g>
    </g>
    <g id="line2d_33">
     <defs>
      <path id="md964a4f689" d="M 0 4.5 
C 1.193414 4.5 2.338109 4.025852 3.181981 3.181981 
C 4.025852 2.338109 4.5 1.193414 4.5 0 
C 4.5 -1.193414 4.025852 -2.338109 3.181981 -3.181981 
C 2.338109 -4.025852 1.193414 -4.5 0 -4.5 
C -1.193414 -4.5 -2.338109 -4.025852 -3.181981 -3.181981 
C -4.025852 -2.338109 -4.5 -1.193414 -4.5 0 
C -4.5 1.193414 -4.025852 2.338109 -3.181981 3.181981 
C -2.338109 4.025852 -1.193414 4.5 0 4.5 
z
" style="stroke: #000000; stroke-width: 0.6"/>
     </defs>
     <g>
      <use xlink:href="#md964a4f689" x="264.141043" y="221.744579" style="fill: #e49b0f; stroke: #000000; stroke-width: 0.6"/>
     </g>
    </g>
    <g id="text_25">
     <!-- \textbf{TDM (L4-L6)} -->
     <g transform="translate(272.541043 225.944579) scale(0.12 -0.12)">
      <use xlink:href="#LMRoman12-Bold-54" transform="scale(0.996264)"/>
      <use xlink:href="#LMRoman12-Bold-44" transform="translate(77.949419 0) scale(0.996264)"/>
      <use xlink:href="#LMRoman12-Bold-4d" transform="translate(163.852305 0) scale(0.996264)"/>
      <use xlink:href="#LMRoman12-Bold-28" transform="translate(307.530142 0) scale(0.996264)"/>
      <use xlink:href="#LMRoman12-Bold-4c" transform="translate(351.116693 0) scale(0.996264)"/>
      <use xlink:href="#LMRoman12-Bold-34" transform="translate(418.455739 0) scale(0.996264)"/>
      <use xlink:href="#LMRoman12-Bold-2d" transform="translate(474.49559 0) scale(0.996264)"/>
      <use xlink:href="#LMRoman12-Bold-4c" transform="translate(511.85549 0) scale(0.996264)"/>
      <use xlink:href="#LMRoman12-Bold-36" transform="translate(579.194537 0) scale(0.996264)"/>
      <use xlink:href="#LMRoman12-Bold-29" transform="translate(635.234387 0) scale(0.996264)"/>
     </g>
    </g>
    <g id="line2d_34">
     <defs>
      <path id="m82248d466d" d="M 0 4.5 
C 1.193414 4.5 2.338109 4.025852 3.181981 3.181981 
C 4.025852 2.338109 4.5 1.193414 4.5 0 
C 4.5 -1.193414 4.025852 -2.338109 3.181981 -3.181981 
C 2.338109 -4.025852 1.193414 -4.5 0 -4.5 
C -1.193414 -4.5 -2.338109 -4.025852 -3.181981 -3.181981 
C -4.025852 -2.338109 -4.5 -1.193414 -4.5 0 
C -4.5 1.193414 -4.025852 2.338109 -3.181981 3.181981 
C -2.338109 4.025852 -1.193414 4.5 0 4.5 
z
" style="stroke: #000000; stroke-width: 0.6"/>
     </defs>
     <g>
      <use xlink:href="#m82248d466d" x="264.141043" y="237.299747" style="fill: #8338ec; stroke: #000000; stroke-width: 0.6"/>
     </g>
    </g>
    <g id="text_26">
     <!-- \textbf{TDM (L3-L6)} -->
     <g transform="translate(272.541043 241.499747) scale(0.12 -0.12)">
      <use xlink:href="#LMRoman12-Bold-54" transform="scale(0.996264)"/>
      <use xlink:href="#LMRoman12-Bold-44" transform="translate(77.949419 0) scale(0.996264)"/>
      <use xlink:href="#LMRoman12-Bold-4d" transform="translate(163.852305 0) scale(0.996264)"/>
      <use xlink:href="#LMRoman12-Bold-28" transform="translate(307.530142 0) scale(0.996264)"/>
      <use xlink:href="#LMRoman12-Bold-4c" transform="translate(351.116693 0) scale(0.996264)"/>
      <use xlink:href="#LMRoman12-Bold-33" transform="translate(418.455739 0) scale(0.996264)"/>
      <use xlink:href="#LMRoman12-Bold-2d" transform="translate(474.49559 0) scale(0.996264)"/>
      <use xlink:href="#LMRoman12-Bold-4c" transform="translate(511.85549 0) scale(0.996264)"/>
      <use xlink:href="#LMRoman12-Bold-36" transform="translate(579.194537 0) scale(0.996264)"/>
      <use xlink:href="#LMRoman12-Bold-29" transform="translate(635.234387 0) scale(0.996264)"/>
     </g>
    </g>
   </g>
   <g id="PathCollection_5">
    <defs>
     <path id="m0d484433c7" d="M 0 13.280062 
C 3.521914 13.280062 6.900053 11.880791 9.390422 9.390422 
C 11.880791 6.900053 13.280062 3.521914 13.280062 0 
C 13.280062 -3.521914 11.880791 -6.900053 9.390422 -9.390422 
C 6.900053 -11.880791 3.521914 -13.280062 0 -13.280062 
C -3.521914 -13.280062 -6.900053 -11.880791 -9.390422 -9.390422 
C -11.880791 -6.900053 -13.280062 -3.521914 -13.280062 0 
C -13.280062 3.521914 -11.880791 6.900053 -9.390422 9.390422 
C -6.900053 11.880791 -3.521914 13.280062 0 13.280062 
z
" style="stroke: #000000; stroke-width: 0.6"/>
    </defs>
    <g clip-path="url(#p73cf2d3027)">
     <use xlink:href="#m0d484433c7" x="252.667328" y="33.529535" style="fill: #e49b0f; stroke: #000000; stroke-width: 0.6"/>
    </g>
   </g>
  </g>
 </g>
 <defs>
  <clipPath id="p73cf2d3027">
   <rect x="57.309382" y="7.2" width="303.890138" height="244.488539"/>
  </clipPath>
 </defs>
</svg>
